<svg width="20" height="20" viewBox="0 0 20 20" fill="none" xmlns="http://www.w3.org/2000/svg">
<path d="M1.00024 19H19V1H1L1.00024 19Z" fill="#D10214"/>
<path d="M17.0001 7.98609C16.7347 7.98609 16.4801 8.08775 16.2923 8.26878C16.1045 8.44981 15.9987 8.6954 15.9982 8.95166C15.9983 9.2082 16.1039 9.45421 16.2918 9.63561C16.4796 9.81702 16.7344 9.91898 17.0001 9.91911C17.2654 9.91861 17.5198 9.81646 17.7072 9.63508C17.8947 9.45371 18 9.20791 18 8.95166C17.9995 8.6957 17.8941 8.45036 17.7066 8.26938C17.5192 8.08839 17.2651 7.98652 17.0001 7.98609ZM15.8382 10.3686C15.8484 10.4027 15.8153 10.4251 15.7508 10.473L15.7114 10.4932L15.726 10.5191C15.7342 10.5332 15.7196 10.5593 15.6926 10.5715L15.6325 10.6016C15.6054 10.6136 15.5762 10.6115 15.5679 10.5955L15.5555 10.5715L15.4805 10.6075L15.4932 10.6317C15.5015 10.6477 15.4847 10.6717 15.4577 10.6839L15.3975 10.7121C15.3683 10.7239 15.3391 10.7201 15.331 10.7039L15.3206 10.6818C15.0898 10.7862 14.8322 10.8967 14.5658 11.017L14.5804 11.0511C14.5889 11.0652 14.5721 11.0892 14.5451 11.1033L14.485 11.1294C14.458 11.1414 14.429 11.1374 14.4205 11.1214L14.4059 11.0895L14.3187 11.1294L14.3352 11.1616C14.3435 11.1797 14.327 11.2037 14.2999 11.2157L14.2396 11.2418C14.2128 11.254 14.1836 11.2519 14.1753 11.2338L14.1607 11.2018C14.038 11.2498 13.907 11.2679 13.8115 11.0953C13.7699 11.0152 13.7677 10.8304 13.7365 10.7321C13.72 10.6799 13.6577 10.6719 13.6577 10.6719C12.4853 10.4551 12.0882 10.6959 11.3359 10.5172C11.101 10.461 10.9719 10.2504 10.681 10.2483C10.047 10.2301 9.85803 10.2384 9.16973 10.2123C9.15751 10.2514 9.14647 10.2908 9.13662 10.3305L6.71698 10.3188L7.08487 10.4951L7.20539 11.5249C7.20539 11.5249 7.108 11.5531 7.07878 11.5571C7.10167 11.764 7.12431 12.0407 7.13697 12.2897C7.1472 12.5144 7.15986 12.7493 7.15767 12.9C7.15548 12.9461 7.15548 13.0563 7.08901 13.1769C7.04543 13.2571 6.96849 13.3234 6.9064 13.3674C6.88547 13.3836 6.79197 13.4438 6.68387 13.5061C6.57163 13.5684 6.44673 13.6326 6.38026 13.6645C6.38659 13.6928 6.40729 13.721 6.41362 13.7428C4.94182 14.4293 3.11894 14.6642 2.52852 15.756C2.45986 15.8825 2.21882 15.8164 2.21249 15.6799C2.21054 15.6175 2.21054 15.5153 2.21493 15.4612L2.1918 15.4589C2.17305 15.4589 2.15868 15.433 2.16063 15.4048L2.16282 15.3406C2.16502 15.3105 2.18157 15.2884 2.20032 15.2884L2.22515 15.2905C2.23327 15.2263 2.24577 15.164 2.26265 15.1038L2.23976 15.0959C2.22296 15.0897 2.21687 15.0618 2.22734 15.0336L2.24804 14.9734C2.26046 14.9452 2.2814 14.9292 2.30014 14.9353L2.32303 14.9412C2.42675 14.7044 2.63054 14.6 2.72403 14.3771L2.70942 14.3713C2.69092 14.3652 2.68459 14.3369 2.69481 14.309L2.71575 14.2488C2.72817 14.2227 2.75105 14.2046 2.76785 14.2107L2.78441 14.2147C2.79902 14.1825 2.81557 14.1465 2.83432 14.1124L2.81338 14.0983C2.79683 14.0882 2.79683 14.0602 2.81338 14.036L2.84893 13.9819C2.86549 13.9577 2.89251 13.9457 2.90712 13.9558L2.9154 13.9598L2.92562 13.9619C2.93001 13.9619 2.93195 13.9598 2.93609 13.958C2.94656 13.9478 2.95679 13.9377 2.96726 13.9297C3.06294 13.8576 3.18151 13.8696 3.2789 13.9255C3.37045 13.9798 3.73225 14.1785 4.07944 13.8754C4.65306 13.3796 5.32432 12.7032 5.82952 12.6811C5.69245 12.3943 5.45531 11.7981 5.42828 11.5773L5.25785 11.5432C5.17069 11.3605 4.95448 10.5134 4.8941 9.87702C4.8941 9.87702 4.82349 9.19052 4.89215 8.94978C4.85247 8.94578 4.78186 9.00197 4.76117 9.00197C4.66962 8.78332 4.96885 6.93447 5.26613 6.39655L5.72142 6.2221C5.6737 6.21599 5.34526 6.20188 4.48044 6.13371C3.99837 6.54514 3.43911 6.99089 3.15644 7.23352C3.10872 7.26784 3.0274 7.53069 3.0274 7.53069C3.0274 7.53069 2.88399 7.65294 2.75325 7.74134C2.57648 7.86195 2.14822 7.95223 2.05691 7.81187C2.03378 7.77755 2.03817 7.76156 2.05886 7.74134C2.12533 7.67528 2.37489 7.5589 2.4601 7.40632C2.32498 7.47238 2.1711 7.54268 2.05058 7.53069C1.99872 7.52857 1.97365 7.4042 2.04011 7.38211C2.22101 7.30781 2.36637 7.27584 2.47252 7.12937C2.57648 6.99066 2.70139 6.89662 2.86743 6.89238C2.86743 6.89238 3.67187 5.87885 4.14567 5.39713C4.2769 5.26453 4.52013 5.30873 4.52013 5.30873L4.56152 5.15426C4.56152 5.15426 6.18719 4.96759 6.94366 5.21045C6.92515 4.7647 7.13283 4.17647 7.85035 4.17647C8.22043 4.17647 8.76483 4.49151 8.83763 4.87473C8.86052 4.99345 8.78991 5.07174 8.75242 5.22033C8.68789 5.44697 8.77725 5.69594 8.75022 5.77423C8.72953 5.8403 8.65259 5.83442 8.58807 5.92258C8.51746 6.01709 8.43858 6.19366 8.43858 6.19366L8.3407 6.40643L7.83355 6.37022C7.64851 6.75579 7.26821 7.54456 7.13527 8.32323C7.53432 8.35732 9.33626 8.60841 9.33626 8.60841L9.38009 8.75088C9.38009 8.75088 10.1409 8.83904 10.7623 9.12422C10.9015 9.1562 11.2509 9.10612 11.4796 9.20839C11.4961 9.19852 11.5336 9.16231 11.5482 9.1522C12.359 9.39318 13.028 9.8025 13.8118 9.98517C13.8118 9.98517 14.1755 10.0717 14.3002 10.0957C14.5892 10.1497 14.7742 10.162 14.9259 10.174C15.1774 10.1921 15.3167 10.1881 15.4995 10.1979C15.6286 10.2062 15.7861 10.1862 15.8382 10.3686Z" fill="white"/>
</svg>
