<svg width="20" height="20" viewBox="0 0 20 20" fill="none" xmlns="http://www.w3.org/2000/svg">
<path d="M13.5504 1.38966C12.8212 1.60131 10.903 2.14611 9.28761 2.60469C7.67225 3.05935 6.33359 3.45522 6.30741 3.47873C6.28124 3.50617 6.0868 4.0353 5.87366 4.66241L5.48477 5.79906L6.52055 5.81866L7.56007 5.83826L7.41798 6.34779C7.33945 6.62607 7.10388 7.49227 6.89448 8.26833C6.22889 10.7298 4.2396 18.0552 4.16481 18.3218C4.00402 18.8901 3.98533 18.9881 4.00776 18.9959C4.02272 19.0038 5.63808 18.9998 7.6012 18.9881L11.1685 18.9685L11.3143 18.4198C11.6658 17.0871 11.7294 16.8481 11.7443 16.801C11.7593 16.7657 11.2619 16.754 9.32874 16.754C7.99008 16.754 6.89448 16.7461 6.89448 16.7383C6.89448 16.7305 6.94683 16.5423 7.00666 16.3189C7.18614 15.6722 7.21606 15.5546 7.39928 14.8726C7.49276 14.516 7.60494 14.1123 7.64233 13.9712C7.75451 13.5714 7.84425 13.2343 8.106 12.2662C8.24062 11.7684 8.65941 10.2163 9.04082 8.81705C10.0355 5.14451 10.1102 4.86231 10.1102 4.81527C10.1102 4.77608 11.6957 4.32926 11.8228 4.32926C11.849 4.32926 11.864 4.34494 11.8527 4.36061C11.8415 4.38021 11.7817 4.58794 11.7219 4.82311C11.5349 5.54429 10.8656 8.09587 10.7871 8.38591C10.6487 8.90328 10.3309 10.1105 9.9345 11.6195C9.26144 14.2063 9.06325 14.9706 9.06325 15.002C9.06325 15.0177 9.5718 15.0255 10.1925 15.0216L11.3218 15.0098L11.3479 14.9118C11.3629 14.857 11.4938 14.3553 11.6434 13.7948C11.7892 13.2343 12.036 12.2975 12.193 11.7175C12.3463 11.1335 12.4959 10.5691 12.5221 10.4632C12.6006 10.1536 13.2924 7.54714 13.6999 6.01463C13.8009 5.63836 13.9767 4.96813 14.0926 4.52523C14.3394 3.58848 14.5338 2.85554 14.7843 1.89919C15.0386 0.946755 15.0311 0.997708 14.9489 1.00163C14.9077 1.00555 14.2795 1.178 13.5504 1.38966Z" fill="black"/>
</svg>
