<svg width="20" height="20" viewBox="0 0 20 20" fill="none" xmlns="http://www.w3.org/2000/svg">
<path d="M9.72539 4.14449C9.72036 4.17489 9.71509 4.17489 9.70956 4.14449C9.65489 3.84318 9.53985 3.53987 9.35356 3.29546C9.18544 3.07526 8.97339 2.90728 8.7174 2.79152C8.53455 2.70871 8.34164 2.65102 8.13867 2.61843C8.13303 2.61758 8.13125 2.61454 8.13333 2.60931C8.13395 2.60797 8.13487 2.60664 8.13609 2.6053C8.1372 2.6042 8.13892 2.60341 8.14125 2.60293C8.33698 2.56669 8.51559 2.51295 8.67709 2.44169C9.0099 2.29469 9.26521 2.07655 9.44302 1.78728C9.5677 1.58446 9.65446 1.35179 9.70331 1.08927C9.70404 1.08574 9.70778 1.07237 9.71453 1.04914C9.71858 1.03504 9.71993 1.01996 9.71858 1.00391C9.71834 1.00026 9.71987 0.999166 9.72319 1.00063L9.72834 1.00263C9.72858 1.00275 9.72871 1.003 9.72871 1.00336C9.72773 1.01771 9.72711 1.02738 9.72687 1.03236C9.72601 1.04379 9.72638 1.05419 9.72797 1.06355C9.80841 1.53284 10.0243 1.95745 10.4087 2.24106C10.6682 2.43276 10.9791 2.54602 11.2974 2.60457C11.3013 2.6053 11.3032 2.60773 11.3029 2.61186C11.3027 2.61393 11.302 2.61563 11.3009 2.61697C11.3 2.61807 11.2986 2.6188 11.2967 2.61916C11.081 2.65491 10.8851 2.7137 10.7089 2.79553C10.3465 2.96382 10.0794 3.22488 9.90763 3.57872C9.8189 3.76172 9.75816 3.95031 9.72539 4.14449ZM9.45315 5.88049C9.49671 5.92949 9.52328 5.97363 9.53285 6.0129C9.56102 6.12726 9.5069 6.25986 9.39019 6.30108C9.35767 6.31251 9.2965 6.31823 9.20667 6.31823H5.44566C5.42627 6.31823 5.41044 6.31093 5.39817 6.29634C3.16559 3.63307 2.0358 2.28508 2.0088 2.25237C1.99579 2.23657 1.9972 2.22112 2.01303 2.20605C2.01861 2.20088 2.02587 2.1979 2.03347 2.19766C2.11385 2.1951 2.19594 2.19547 2.27976 2.19875C2.35204 2.20155 2.53053 2.20215 2.81523 2.20057C2.83272 2.20057 2.8561 2.2055 2.87671 2.2055C3.66823 2.20562 4.35066 2.20556 4.92399 2.20532L5.19808 2.20112C5.35037 2.19881 5.49794 2.20343 5.64078 2.21498C5.75859 2.22447 5.87842 2.24307 5.99273 2.28356C6.22748 2.36673 6.42524 2.49811 6.586 2.67771C8.43558 4.74334 9.3913 5.81094 9.45315 5.88049Z" fill="#131313"/>
<path d="M15.6035 7.90087C15.4347 8.07159 15.2998 8.22181 15.1989 8.35155C15.0115 8.59268 14.8361 8.81829 14.6351 9.04446C14.2328 9.49667 13.8531 9.96431 13.4959 10.4474C13.4816 10.4667 13.4668 10.4795 13.4513 10.4857C13.4302 10.4941 13.4095 10.4953 13.3891 10.4894C12.2332 9.10574 11.0766 7.72121 9.9193 6.33577C9.86444 6.26999 9.83229 6.21886 9.82284 6.18238C9.80726 6.12122 9.81087 6.06134 9.8337 6.00273C9.84487 5.97415 9.87874 5.92813 9.93531 5.86466C10.8759 4.81007 11.8236 3.75099 12.7783 2.68741C12.8561 2.60084 12.9137 2.54302 12.951 2.51396C13.0102 2.46787 13.08 2.42422 13.1607 2.383C13.288 2.31789 13.4513 2.2515 13.6043 2.22906C13.7304 2.21058 13.8404 2.20134 13.9341 2.20134C15.8554 2.20134 16.9844 2.20079 17.3211 2.1997C17.337 2.1997 17.348 2.20043 17.3543 2.20189C17.3588 2.20292 17.3629 2.20507 17.3664 2.20812C17.3698 2.21117 17.3724 2.21502 17.3739 2.2193C17.3754 2.22357 17.3758 2.22813 17.3749 2.23253C17.3741 2.23692 17.3721 2.24101 17.3692 2.24439L13.9745 6.10231C13.9623 6.1163 13.9625 6.13004 13.975 6.14353L15.6035 7.90087Z" fill="#F11D2C"/>
<path d="M8.19256 10.6041L8.10752 10.635C8.10089 10.6373 8.09372 10.6378 8.08683 10.6364C8.07994 10.6349 8.07359 10.6316 8.0685 10.6268C7.89363 10.4621 7.77011 10.3096 7.61512 10.1146C7.56358 10.0497 7.48339 9.95774 7.37454 9.83882C7.03927 9.47295 6.7223 9.09357 6.42361 8.7007C6.369 8.62884 6.231 8.47825 6.00962 8.24892C5.93256 8.16916 5.84113 8.04428 5.73535 7.87429C6.07626 7.59669 6.45962 7.38658 6.88545 7.24395C7.02682 7.19665 7.1742 7.15975 7.3276 7.13324C7.81576 7.0491 8.27994 7.11001 8.72012 7.31599C8.93083 7.41461 9.1338 7.54623 9.32904 7.71087C9.6054 7.94384 9.83334 8.19329 10.0129 8.45922C10.0251 8.47746 10.0228 8.49637 10.0057 8.51594C9.40218 9.21268 8.7978 9.90874 8.19256 10.6041Z" fill="#131313"/>
<path d="M5.7366 7.87446C5.84238 8.04445 5.93381 8.16932 6.01087 8.24909C6.23225 8.47841 6.37025 8.62901 6.42486 8.70087C6.72355 9.09374 7.04053 9.47311 7.37579 9.83899C7.48464 9.95791 7.56483 10.0498 7.61637 10.1148C7.77136 10.3097 7.89488 10.4622 8.06975 10.6269C8.07484 10.6317 8.08119 10.6351 8.08808 10.6365C8.09498 10.638 8.10214 10.6375 8.10877 10.6351L8.19381 10.6043L8.21848 10.6659C8.2213 10.6728 8.21922 10.6775 8.21222 10.6802L8.14227 10.7063C8.14098 10.7067 8.13983 10.7075 8.13891 10.7085C8.13799 10.7096 8.13733 10.7108 8.13699 10.7121C8.13664 10.7135 8.13663 10.7149 8.13694 10.7162C8.13725 10.7176 8.13788 10.7189 8.13878 10.7199L10.6584 13.729C10.8588 13.9846 11.0248 14.2356 11.1565 14.4821C11.5056 15.1358 11.6598 15.8451 11.6189 16.6101C11.6063 16.8473 11.5742 17.0906 11.5228 17.34C11.4902 17.4981 11.4262 17.6698 11.3689 17.8036C11.2634 18.0506 11.1394 18.3157 10.9969 18.5988L10.6832 18.9875C10.6802 18.9912 10.6765 18.9942 10.6722 18.9962C10.6679 18.9983 10.6632 18.9994 10.6584 18.9994C10.6536 18.9995 10.6489 18.9984 10.6446 18.9964C10.6402 18.9945 10.6364 18.9915 10.6334 18.9879C8.9908 17.0271 7.34155 15.0585 5.68561 13.0823C5.58499 12.9621 5.51031 12.8657 5.4616 12.793C5.03399 12.1563 4.80371 11.3951 4.77702 10.6298C4.75125 9.89225 4.91649 9.20178 5.27273 8.55842C5.39091 8.34527 5.527 8.14032 5.68101 7.94358C5.68543 7.93787 5.68494 7.9327 5.67954 7.92808L5.67531 7.92443C5.66966 7.91957 5.67003 7.91519 5.67641 7.9113L5.7366 7.87446Z" fill="black"/>
<path d="M15.6037 7.90083C16.1648 8.59075 16.4761 9.36627 16.5377 10.2274C16.5823 10.849 16.49 11.4469 16.2611 12.0212C16.1641 12.2647 16.0486 12.4819 15.8946 12.7039C15.7213 12.9539 15.537 13.1962 15.3416 13.4309C14.0674 14.9618 12.6911 16.6019 11.2126 18.3513C11.2062 18.3588 11.2005 18.3671 11.1955 18.3763C11.1899 18.3867 11.1848 18.3955 11.1802 18.4027C11.1118 18.4626 11.0557 18.5293 11.012 18.6028C11.0076 18.6016 11.0031 18.6003 10.9985 18.5991C11.141 18.3159 11.265 18.0509 11.3706 17.8039C11.4278 17.67 11.4919 17.4984 11.5244 17.3403C11.5759 17.0909 11.6079 16.8476 11.6205 16.6103C11.6614 15.8454 11.5073 15.1361 11.1581 14.4824C11.0265 14.2359 10.8604 13.9849 10.66 13.7293L13.3893 10.4893C13.4097 10.4953 13.4304 10.4941 13.4515 10.4857C13.467 10.4795 13.4818 10.4667 13.4961 10.4474C13.8533 9.96427 14.233 9.49662 14.6353 9.04442C14.8363 8.81825 15.0117 8.59263 15.1991 8.35151C15.3 8.22177 15.4349 8.07154 15.6037 7.90083Z" fill="#F00514"/>
<path d="M11.1798 18.4022L11.0712 18.6216C11.0683 18.6277 11.0638 18.6292 11.0578 18.626L11.0116 18.6023C11.0553 18.5288 11.1114 18.4622 11.1798 18.4022Z" fill="#131313"/>
</svg>
