<svg width="20" height="20" viewBox="0 0 20 20" fill="none" xmlns="http://www.w3.org/2000/svg">
<path d="M14.4215 1.90674C14.1371 2.53451 12.5299 6.08267 12.1905 10.0264L12.1851 9.90738C12.1419 8.98458 11.9659 5.22207 12.8403 1.26015L12.855 1.26386C13.114 1.32968 13.8147 1.50808 14.4558 1.83045C14.4485 1.84688 14.4372 1.87217 14.4217 1.90632L14.4215 1.90674Z" fill="black"/>
<path d="M14.9913 3.80172L14.5346 5.30065C16.2555 6.51586 17.376 8.47741 17.376 10.6875C17.376 13.1025 16.039 15.2222 14.0414 16.3938L14.5688 17.816C17.1603 16.4224 18.9136 13.7526 18.9136 10.6875C18.9136 7.79208 17.3492 5.24917 14.9913 3.80172ZM3.53759 10.6875C3.53759 8.47741 4.65804 6.51586 6.37899 5.30065L5.92234 3.80172C3.56438 5.24917 2 7.79208 2 10.6875C2 13.7526 3.75324 16.4224 6.34481 17.816L6.87205 16.3938C4.87455 15.2222 3.53759 13.1025 3.53759 10.6875Z" fill="#00BE14"/>
<path d="M8.58575 8.47168C8.58575 8.47168 9.16505 10.5295 9.45216 12.2888H9.95905C9.95905 12.2888 8.95832 6.20625 6.50916 1.83335C6.77918 1.70313 7.32781 1.44794 8.18639 1.24827L10.4653 12.2888H10.9734L8.67404 1.14937C8.67404 1.14937 9.39083 1.00641 10.2939 1C10.2594 2.27099 10.3703 7.85328 11.4842 12.2888H11.9961C11.9961 12.2888 10.7375 7.80838 10.7894 1.00262C11.287 1.00945 12.0465 1.08979 12.415 1.1708L12.4075 1.20507C12.2703 1.82508 10.7115 8.87102 12.8765 16.6627H8.09312C8.09312 16.6627 9.34669 13.0314 8.58575 8.47168ZM7.27868 18.9715L7.85943 17.4168H13.112L13.6917 18.9715H7.27868Z" fill="black"/>
</svg>
