<svg width="20" height="20" viewBox="0 0 20 20" fill="none" xmlns="http://www.w3.org/2000/svg">
<path d="M7.25931 16.7676H12.4202L11.0144 12.4741L13.8231 2.36654L11.7821 1.10214L9.56221 13.54L6.73235 2.40639L6.3147 3.74332L8.64113 12.6192L7.25931 16.7676ZM7.01637 17.4967L6.51575 19H13.151L12.6589 17.4967H7.01637ZM10.9442 1L7.42107 1.96068L9.46527 10.3665L10.9442 1Z" fill="black"/>
<path d="M3.1488 13.6124V8.24917L5.87354 5.60586L5.39126 4.01414L1.64771 7.64579V14.2154L5.74309 18.1885L6.30216 16.6714L3.1488 13.6124ZM16.4987 13.6124V8.24917L13.7739 5.60586L14.2562 4.01414L17.9999 7.64579V14.2154L13.9046 18.1885L13.3453 16.6714L16.4987 13.6124Z" fill="#FF6900"/>
</svg>
