<svg width="19" height="19" viewBox="0 0 19 19" fill="none" xmlns="http://www.w3.org/2000/svg">
<path fill-rule="evenodd" clip-rule="evenodd" d="M6.80737 9.41364L8.21365 10.7144C8.35851 10.641 10.3035 9.14335 10.8764 8.70542C10.6416 6.99024 12.4794 5.64972 14.1542 6.20083C14.1972 6.16955 14.2403 6.13827 14.2826 6.10805C14.3655 6.0483 14.4293 5.99804 14.5112 5.93477C14.9238 5.61704 15.2604 5.22585 15.2604 4.62097C15.2604 3.75389 14.4443 3.00385 13.589 3.00385C12.3191 3.00385 11.9895 3.77251 11.075 4.73203L10.4937 5.37628C10.4245 5.45185 10.3722 5.51195 10.3023 5.58365C9.68909 6.21314 8.97174 7.08549 8.35851 7.71568C7.89244 8.19438 7.29304 8.9026 6.80737 9.41329V9.41364Z" fill="white"/>
<path fill-rule="evenodd" clip-rule="evenodd" d="M12.2681 6.73636C12.3572 6.85832 12.6285 7.03616 12.8387 7.4646C13.251 8.30427 13.1607 9.13937 12.5882 9.88133C12.451 10.0588 12.3353 10.1214 12.2681 10.2135C12.8982 10.5994 13.7773 10.6605 14.4678 10.3505C14.5404 10.3179 14.6538 10.2479 14.7237 10.2328C14.7072 10.1769 14.5397 10.0335 14.4367 9.90945C13.6936 9.01319 13.7359 7.72189 14.5689 6.90753C14.6096 6.86781 14.6084 6.86008 14.6449 6.82071C14.6811 6.781 14.693 6.77853 14.7237 6.73636C14.6369 6.69453 14.5735 6.65587 14.4747 6.61264C13.8346 6.33146 13.1726 6.34517 12.5328 6.60807C12.4475 6.64322 12.3488 6.71667 12.2681 6.73636Z" fill="#159A42"/>
<path fill-rule="evenodd" clip-rule="evenodd" d="M14.2326 8.47487C14.2326 8.99681 14.5558 9.7451 15.0015 10.0182C15.4234 9.75986 15.7703 9.01614 15.7703 8.49456C15.7703 8.00777 15.5809 7.57475 15.2977 7.2275C15.217 7.12874 15.0898 6.9748 14.9803 6.9516C14.8808 7.01276 14.7736 7.14455 14.6964 7.2391C14.4144 7.58389 14.2326 7.99617 14.2326 8.47522V8.47487Z" fill="white"/>
<path fill-rule="evenodd" clip-rule="evenodd" d="M11.2429 8.35781C11.2429 9.05583 11.3708 9.34966 11.8377 9.88425C11.8834 9.93627 11.9318 9.98196 11.9902 10.0182C12.394 9.77073 12.7591 9.07903 12.7591 8.55323C12.7591 7.97541 12.5773 7.46155 12.1562 7.07318C12.102 7.02327 12.0525 6.98742 12.0117 6.93188C11.8411 7.03627 11.5964 7.33818 11.4992 7.51779C11.3797 7.73816 11.2429 8.03235 11.2429 8.35781Z" fill="white"/>
<path fill-rule="evenodd" clip-rule="evenodd" d="M3.52881 12.9417C3.06735 12.9417 3.26099 12.5596 2.66082 12.5596C2.33423 12.5596 2.12021 12.9751 2.34691 13.2288L3.60066 14.375C3.78855 14.5468 4.0552 14.8821 4.33184 14.8821C4.59926 14.8821 4.81404 14.7068 4.81404 14.4706C4.81404 13.9687 3.95452 13.9423 4.60272 13.4833L5.60402 12.7234C5.76808 12.6053 6.82356 11.8156 6.9031 11.7069L5.72199 10.6118C5.64399 10.7147 5.53487 10.816 5.45226 10.9087L3.8454 12.6728C3.78392 12.7427 3.6383 12.9417 3.52841 12.9417H3.52881Z" fill="white"/>
<path fill-rule="evenodd" clip-rule="evenodd" d="M6.06757 10.2659L7.31323 11.4197L7.83539 11.0303L6.49367 9.78821C6.41452 9.83917 6.09599 10.1696 6.06794 10.2659H6.06757Z" fill="#159A42"/>
</svg>
