<svg width="19" height="19" viewBox="0 0 19 19" fill="none" xmlns="http://www.w3.org/2000/svg">
<path fill-rule="evenodd" clip-rule="evenodd" d="M9.40785 11.7834C9.84131 11.7834 10.426 11.7042 10.6752 11.7042C10.6752 11.5279 10.7755 11.145 10.8241 10.9818C10.9276 10.6324 11.1919 10.0656 11.4104 9.77304C11.6018 9.51712 11.7941 9.24527 11.943 8.9591C12.3167 8.24107 12.5762 7.29259 12.5762 6.45078C12.5762 5.65633 12.5635 5.27622 12.3354 4.50008C12.1483 3.86246 11.8725 3.30245 11.4832 2.79139C11.3949 2.67557 11.365 2.67 11.2269 2.62542C10.6672 2.44432 10.0746 2.25287 9.40826 2.25287L9.40785 11.7834Z" fill="#159A42"/>
<path fill-rule="evenodd" clip-rule="evenodd" d="M5.44736 5.97515C5.44736 7.07686 5.51662 7.65638 5.93377 8.657C6.17338 9.23254 6.48226 9.5414 6.77602 10.0326C7.02359 10.4461 7.34877 11.2433 7.34877 11.7042C7.61944 11.7042 8.14367 11.7834 8.61613 11.7834V2.25287C8.12814 2.25287 7.54899 2.39059 7.15454 2.50721C7.03632 2.54223 6.95513 2.57367 6.83731 2.61228C6.51809 2.71656 6.45798 2.871 6.21239 3.28096C5.78729 3.99062 5.44815 5.08836 5.44815 5.97554L5.44736 5.97515Z" fill="#159A42"/>
<path fill-rule="evenodd" clip-rule="evenodd" d="M13.3674 6.23911C13.3674 6.50897 13.3379 6.81862 13.3101 7.07932C13.207 8.03974 12.8822 8.95638 12.3695 9.7556C12.1243 10.1377 11.8735 10.4279 11.6889 10.8701C11.5945 11.0957 11.4727 11.559 11.4668 11.5718C12.0451 11.5718 13.5831 11.0675 14.0894 10.8414C14.7494 10.5473 15.106 10.3494 15.6505 9.89451C15.7707 9.79421 15.7321 9.75163 15.7456 9.56734C15.7588 9.38704 15.7671 9.21151 15.7699 9.03917V8.8115C15.7604 8.19457 15.67 7.61188 15.463 6.99455C15.3715 6.72151 15.2935 6.47194 15.1717 6.22995C14.6479 5.19072 14.3402 4.76364 13.5067 3.96124L12.7604 3.3877L12.9881 4.00463C13.2233 4.71589 13.3678 5.4769 13.3678 6.23871L13.3674 6.23911Z" fill="white"/>
<path fill-rule="evenodd" clip-rule="evenodd" d="M2.25287 8.77366L2.27516 9.54343C2.3074 9.85468 2.20033 9.82284 2.83917 10.2467C3.5433 10.714 4.34455 11.0344 5.1665 11.2724C5.44871 11.3544 6.28377 11.5721 6.55682 11.5721C6.47921 11.4097 6.46887 10.9628 6.02904 10.3048C5.4698 9.4686 5.07334 8.87277 4.85203 7.86498C4.6156 6.78874 4.58097 5.74553 4.84049 4.68123C4.94995 4.23306 5.09723 3.75145 5.28948 3.38806C5.03832 3.45533 4.37759 4.10211 4.14752 4.33176C3.53375 4.94511 3.23561 5.4693 2.86026 6.2128C2.53268 6.86118 2.25287 7.99235 2.25287 8.77366Z" fill="white"/>
<path fill-rule="evenodd" clip-rule="evenodd" d="M5.28892 14.6612L5.60218 14.42C5.86688 14.2062 6.20681 13.7839 6.34492 13.4731C6.47031 13.1913 6.53518 12.9481 6.59568 12.5867C6.64265 12.3049 6.57141 12.3757 6.32224 12.3347C5.01509 12.119 4.37464 11.8691 3.28203 11.3882C3.01097 11.2688 2.79483 11.1248 2.54327 10.9918C2.71562 11.7317 3.30473 12.7025 3.80665 13.3186C3.97064 13.52 4.43037 14.0012 4.60192 14.1338L5.23002 14.6146C5.26265 14.6389 5.26426 14.6405 5.28854 14.6616L5.28892 14.6612Z" fill="white"/>
<path fill-rule="evenodd" clip-rule="evenodd" d="M11.4139 12.3909C11.4139 13.0739 11.7845 13.7855 12.2251 14.246C12.2912 14.3149 12.6538 14.6349 12.7338 14.6349C12.9181 14.6349 13.8161 13.7541 14.0215 13.5463C14.5911 12.9708 15.0699 12.0832 15.3664 11.327C15.4063 11.2247 15.4381 11.1045 15.4799 11.0177C15.3768 11.0416 15.1583 11.1877 15.0488 11.2466C14.1182 11.7473 13.0391 12.0732 11.9927 12.2826C11.8044 12.32 11.5962 12.3479 11.4139 12.3905V12.3909Z" fill="white"/>
<path fill-rule="evenodd" clip-rule="evenodd" d="M9.5396 12.5493H9.40785V15.77C10.2314 15.77 10.9861 15.5022 11.7013 15.212C11.7977 15.173 11.8884 15.1081 11.9951 15.0835C11.933 14.9911 11.8737 14.9772 11.7507 14.8526C11.6651 14.7662 11.5792 14.6934 11.5043 14.5971C11.3383 14.3837 11.2376 14.2878 11.0971 14.0275C11.0653 13.9686 11.0402 13.9376 11.0107 13.8763L10.803 13.3445C10.7341 13.1391 10.6481 12.7726 10.6481 12.4963C10.264 12.4963 9.94362 12.5493 9.53922 12.5493H9.5396Z" fill="white"/>
<path fill-rule="evenodd" clip-rule="evenodd" d="M6.05462 15.0835C6.61864 15.382 7.761 15.77 8.61558 15.77V12.5493C8.14271 12.5493 7.77136 12.4963 7.37452 12.4963C7.37452 12.7491 7.2941 13.122 7.22644 13.325C7.11499 13.6585 7.09588 13.7163 6.93467 14.0104C6.81407 14.2305 6.68311 14.4005 6.53345 14.5859C6.39493 14.7583 6.12546 14.9772 6.05421 15.0835H6.05462Z" fill="white"/>
</svg>
