<svg width="19" height="19" viewBox="0 0 19 19" fill="none" xmlns="http://www.w3.org/2000/svg">
<path fill-rule="evenodd" clip-rule="evenodd" d="M7.55921 11.6249H10.4632C10.54 11.6249 10.5573 11.5691 10.5874 11.5116L11.0687 10.6731C11.1354 10.5574 11.1969 10.4585 11.2628 10.3396C11.3532 10.1773 12.0089 9.06193 12.0089 9.0113C12.0089 8.91206 10.8108 6.94735 10.5954 6.52869C10.5661 6.47123 10.5456 6.39771 10.4628 6.39771H7.55881C7.46721 6.39771 7.41337 6.54757 7.33944 6.67976L6.7621 7.68662C6.67411 7.83207 6.01278 8.96028 6.01278 9.0113C6.01278 9.11014 7.1948 11.0435 7.42582 11.4939C7.45555 11.5514 7.47564 11.6249 7.55881 11.6249H7.55921Z" fill="#159A42"/>
<path fill-rule="evenodd" clip-rule="evenodd" d="M5.97505 15.0573C6.63195 15.4049 7.77178 15.7701 8.77341 15.7701H9.24871C10.2532 15.7701 11.3886 15.4061 12.0471 15.0573C11.7152 14.4297 11.0852 13.3795 10.6991 12.7089C10.6364 12.6004 10.5472 12.3907 10.4629 12.3907H7.55884C7.46121 12.3907 7.18841 12.9516 7.1414 13.0291C7.0044 13.2573 6.8927 13.4663 6.7557 13.6997L5.97465 15.0573H5.97505Z" fill="white"/>
<path fill-rule="evenodd" clip-rule="evenodd" d="M5.97501 2.96563C6.09715 3.19706 6.22452 3.4064 6.35992 3.63662C6.49692 3.87006 6.60901 4.07858 6.74602 4.30679C6.88222 4.5338 6.99512 4.75116 7.13213 4.97697L7.42221 5.4792C7.46078 5.54629 7.48207 5.63228 7.55921 5.63228H10.4632C10.5593 5.63228 10.7963 5.13366 10.8803 4.99344L12.047 2.96563C11.3725 2.60885 10.2519 2.25287 9.22216 2.25287H8.7999C7.77336 2.25287 6.64718 2.61005 5.97501 2.96563Z" fill="white"/>
<path fill-rule="evenodd" clip-rule="evenodd" d="M2.25287 8.61518H5.34172C5.36302 8.52357 5.64546 8.06554 5.71015 7.95384L6.74311 6.16148C6.77887 6.10202 6.82588 6.07189 6.81021 5.98631C6.79495 5.90434 5.34896 3.50328 5.31601 3.36145C5.11071 3.41609 4.24367 4.17507 4.05644 4.39886L3.81457 4.68533C3.01223 5.67934 2.45295 6.83125 2.30389 8.13785C2.28943 8.26482 2.25327 8.4854 2.25327 8.61518H2.25287Z" fill="white"/>
<path fill-rule="evenodd" clip-rule="evenodd" d="M12.7071 14.6611C12.9196 14.6044 13.407 14.1319 13.5785 14.0009C13.7529 13.868 14.0587 13.5228 14.2085 13.3372C14.2568 13.2777 14.2773 13.2637 14.3295 13.1942C14.9992 12.3006 15.4167 11.4725 15.6445 10.3379C15.673 10.1964 15.6999 10.055 15.7196 9.88466C15.7341 9.7577 15.7702 9.53712 15.7702 9.40735H12.6814C12.6601 9.49896 12.3777 9.95699 12.3134 10.0687L11.5612 11.3761C11.4929 11.4918 11.4459 11.5778 11.376 11.6927C11.1354 12.0901 11.1321 11.9225 11.5878 12.6923C11.6806 12.8494 12.6854 14.5651 12.7075 14.6611H12.7071Z" fill="white"/>
<path fill-rule="evenodd" clip-rule="evenodd" d="M5.31561 14.6611C5.33731 14.5683 5.99902 13.4469 6.05969 13.346L6.80981 12.0362C6.82789 11.9382 6.5145 11.4653 6.46187 11.3761L5.71015 10.0687C5.64385 9.95337 5.36302 9.49815 5.34172 9.40735H2.25287C2.25287 9.83686 2.45617 10.7461 2.58594 11.1334C2.76795 11.6766 2.97767 12.1045 3.24726 12.5573C3.62332 13.1889 4.14001 13.7498 4.69969 14.2203C4.81419 14.3163 5.18945 14.6273 5.31521 14.6611H5.31561Z" fill="white"/>
<path fill-rule="evenodd" clip-rule="evenodd" d="M12.6807 8.61508H15.7696C15.7696 8.49696 15.7354 8.27115 15.7218 8.16147C15.5627 6.88178 15.1018 5.86889 14.3517 4.8588C14.3007 4.7901 14.2858 4.77483 14.2328 4.71375C14.1797 4.65309 14.1725 4.62979 14.1134 4.56912C13.7635 4.20952 13.7856 4.19144 13.3228 3.80211C13.2083 3.70608 12.833 3.3951 12.7072 3.36176C12.6747 3.50117 11.2279 5.90626 11.213 5.98661C11.1949 6.08465 11.5079 6.55714 11.561 6.64674L12.3131 7.95415C12.3794 8.06946 12.6598 8.52468 12.6811 8.61548L12.6807 8.61508Z" fill="white"/>
</svg>
