<svg width="22" height="18" viewBox="0 0 22 18" fill="none" xmlns="http://www.w3.org/2000/svg">
<path d="M12.2637 0C14.4728 0 16.2637 1.79086 16.2637 4V13.2207C16.2637 15.4298 14.4728 17.2207 12.2637 17.2207H4C1.79086 17.2207 2.63935e-08 15.4298 0 13.2207V4C0 1.79086 1.79086 0 4 0H12.2637ZM13.8721 8.34668C9.88839 3.84261 5.86577 3.3582 1.91309 8.34668C5.36128 14.2218 10.1476 13.2083 13.8721 8.34668Z" fill="#159A42"/>
<circle cx="7.65609" cy="8.61046" r="1.91304" fill="#EDB327"/>
<path d="M17.2207 5.68327C17.2207 4.9475 17.6247 4.27115 18.2725 3.92233L19.056 3.50042C20.3885 2.78295 22.0042 3.74802 22.0042 5.26137V11.6333C22.0042 13.2178 20.2496 14.173 18.9188 13.3131L18.1353 12.8069C17.5651 12.4384 17.2207 11.8059 17.2207 11.127V5.68327Z" fill="#EDB327"/>
</svg>
