<svg width="17" height="15" viewBox="0 0 17 15" fill="none" xmlns="http://www.w3.org/2000/svg">
<path d="M5.06266 1.61107C6.69255 -0.536992 9.92224 -0.536992 11.5521 1.61107L11.6247 1.70672C12.1255 2.36677 12.8322 2.84092 13.6329 3.05409L14.0488 3.16484C16.5019 3.81798 17.4345 6.80648 15.7884 8.73892C15.2329 9.39097 14.9397 10.2262 14.9658 11.0824L14.9679 11.1499C15.0441 13.6542 12.6188 15.4797 10.2334 14.7136L9.56754 14.4997C8.74806 14.2365 7.86673 14.2365 7.04725 14.4997L6.38142 14.7136C3.99601 15.4797 1.57068 13.6542 1.64694 11.1499L1.64899 11.0824C1.67506 10.2262 1.38188 9.39097 0.826426 8.73892C-0.819735 6.80648 0.112919 3.81798 2.56599 3.16484L2.98192 3.05409C3.78257 2.84092 4.48925 2.36677 4.99008 1.70672L5.06266 1.61107Z" fill="#159A42"/>
</svg>
