<svg width="19" height="19" viewBox="0 0 19 19" fill="none" xmlns="http://www.w3.org/2000/svg">
<path fill-rule="evenodd" clip-rule="evenodd" d="M2.25323 8.53522C2.54383 8.53522 2.92836 8.48826 3.10136 8.51234C3.35703 8.54766 3.68495 8.55088 3.93982 8.59423C6.97545 9.10762 9.08108 11.3771 9.47885 14.4459C9.54187 14.932 9.48728 15.355 9.48728 15.7701C10.2254 15.7536 11.3216 15.4249 11.9622 15.1037C13.3766 14.3945 14.3937 13.3769 15.1034 11.9628C15.4104 11.351 15.7536 10.2002 15.7697 9.48775C15.158 9.48775 15.1154 9.56963 14.364 9.46567C13.2763 9.31555 12.2576 8.98198 11.3597 8.34536C9.62978 7.11908 8.5039 5.11127 8.5039 2.95133C8.5039 2.69323 8.53561 2.53388 8.53561 2.2533C7.6301 2.27337 6.32602 2.72895 5.563 3.18334C4.92761 3.56186 4.3388 4.05559 3.86156 4.62317C3.73312 4.7761 3.62555 4.89612 3.50955 5.06431C3.39677 5.22768 3.29601 5.37339 3.19486 5.54318C3.08729 5.72381 3.01184 5.87754 2.91952 6.06098C2.75495 6.38933 2.60003 6.79153 2.48845 7.1845C2.39613 7.50884 2.26085 8.19604 2.25323 8.53603V8.53522Z" fill="white"/>
<path fill-rule="evenodd" clip-rule="evenodd" d="M2.25325 9.55073C2.5286 12.8615 5.16165 15.4943 8.47182 15.7696C8.47182 15.6087 8.50353 15.5966 8.50353 15.4204C8.50353 14.3888 8.43008 13.6149 7.97492 12.7126C7.89264 12.5492 7.82921 12.4195 7.74372 12.277C7.44549 11.7793 7.3877 11.7323 7.03609 11.3346C6.1069 10.2829 4.60695 9.51862 3.17282 9.51862H2.60166C2.42545 9.51862 2.41341 9.55033 2.25286 9.55033L2.25325 9.55073Z" fill="#159A42"/>
<path fill-rule="evenodd" clip-rule="evenodd" d="M9.51894 2.60168C9.51894 3.6377 9.59039 4.40317 10.0476 5.30954C10.1298 5.47291 10.1933 5.60256 10.2788 5.74506C10.3647 5.88836 10.4453 6.00959 10.5405 6.14967C10.6284 6.27973 10.7271 6.40577 10.8294 6.52699C11.3496 7.14234 11.9926 7.61198 12.7131 7.97484C13.6154 8.42963 14.3893 8.50349 15.4208 8.50349C15.597 8.50349 15.6091 8.47178 15.77 8.47178C15.4947 5.16543 12.858 2.52783 9.55146 2.25287C9.55146 2.41383 9.51975 2.42587 9.51975 2.60168H9.51894Z" fill="#159A42"/>
</svg>
