<svg width="26" height="26" viewBox="0 0 26 26" fill="none" xmlns="http://www.w3.org/2000/svg">
<path fill-rule="evenodd" clip-rule="evenodd" d="M17.2352 2.60538C17.2352 3.2201 17.8304 3.15051 18.4458 3.15006C19.0512 3.14977 19.6564 3.15006 20.2618 3.15006C21.6604 3.15006 22.5927 2.97201 23.3651 3.67873C24.0419 4.29791 23.8938 5.4723 23.8938 6.72148C23.8938 7.32686 23.8939 7.93209 23.8938 8.53746C23.8936 9.16821 23.8056 9.8086 24.4386 9.8086C24.8869 9.8086 25.044 9.42015 25.044 8.96122V5.45034C25.044 3.18315 23.8608 2 21.5936 2H18.0829C17.624 2 17.2355 2.15698 17.2355 2.60538H17.2352Z" fill="#159A42"/>
<path fill-rule="evenodd" clip-rule="evenodd" d="M2 5.45034V8.96122C2 9.42015 2.15698 9.8086 2.60537 9.8086C3.2201 9.8086 3.15051 9.21346 3.15021 8.598C3.14992 7.99262 3.15021 7.38739 3.15021 6.78202C3.15021 5.38342 2.97216 4.45118 3.67888 3.67873C4.29805 3.00214 5.47245 3.15006 6.72163 3.15006C7.327 3.15006 7.93223 3.14992 8.5376 3.15006C9.16835 3.15021 9.80874 3.23805 9.80874 2.60538C9.80874 2.15698 9.42015 2 8.96137 2H5.45049C3.1833 2 2.00014 3.18315 2.00014 5.45034H2Z" fill="#EDB327"/>
<path fill-rule="evenodd" clip-rule="evenodd" d="M2 16.9177V20.5497C2 21.8119 2.24467 22.46 2.89234 23.1077C3.54 23.7553 4.18796 24 5.45034 24H8.96122C9.42015 24 9.8086 23.843 9.8086 23.3946C9.8086 22.7799 9.21346 22.8495 8.598 22.8498C7.7165 22.8504 4.87642 22.9713 4.21882 22.6891C2.85969 22.1061 3.15021 20.4793 3.15021 19.2784C3.15021 18.673 3.15006 18.0678 3.15021 17.4624C3.15036 16.8316 3.2382 16.1913 2.60537 16.1913C2.22672 16.1913 2 16.5269 2 16.9177Z" fill="#159A42"/>
<path fill-rule="evenodd" clip-rule="evenodd" d="M17.2355 23.3946C17.2355 23.8429 17.624 24 18.0829 24H21.5936C23.8608 24 25.044 22.8169 25.044 20.5497V17.0388C25.044 16.5799 24.887 16.1914 24.4386 16.1914C23.8239 16.1914 23.8935 16.7865 23.8938 17.402C23.8944 18.2837 24.0151 21.1236 23.7331 21.7812C23.1501 23.1405 21.5233 22.8498 20.3224 22.8498C19.717 22.8498 19.1118 22.8499 18.5064 22.8498C17.8756 22.8496 17.2352 22.7618 17.2352 23.3946H17.2355Z" fill="#EDB327"/>
<path d="M12.2658 4.64946C13.5968 3.86699 13.0763 4.02711 15.2971 5.24029L18.2492 6.94927C18.6036 7.15889 18.9123 7.32026 19.2492 7.52349C19.5742 7.71949 19.8983 7.89342 20.2473 8.09966C20.5474 8.27691 21.008 8.42665 21.008 8.85161V17.2051C21.0079 17.638 20.5099 17.8005 20.2102 17.9805C19.3779 18.4805 13.5419 21.9001 13.26 21.9004C13.0399 21.9 11.5327 20.9946 11.2287 20.8106L6.27852 17.9522C5.91268 17.7531 5.51204 17.6066 5.51192 17.2051V8.85161C5.51205 8.4437 5.92381 8.30305 6.31758 8.08404C6.6673 7.88937 6.95604 7.69881 7.30977 7.50103C7.66878 7.30024 7.96491 7.13332 8.30782 6.92583L12.2658 4.64946ZM6.66231 16.9024C6.95557 16.9712 10.7361 19.2167 11.2209 19.4864C11.7339 19.7718 12.2068 20.0836 12.715 20.3526V13.3917L6.66231 9.88091V16.9024ZM13.8049 13.3917V20.3526L16.8439 18.6094C17.0705 18.4736 19.6484 16.9522 19.8576 16.9024V9.88091L13.8049 13.3917Z" fill="#159A42"/>
</svg>
