<svg width="26" height="26" viewBox="0 0 26 26" fill="none" xmlns="http://www.w3.org/2000/svg">
<path fill-rule="evenodd" clip-rule="evenodd" d="M3 13.2662C3 15.2374 3.22665 16.4101 3.96095 18.0108C5.5268 21.4246 9.22618 24.0004 13.0573 24.0004C14.2635 24.0004 14.77 23.9906 15.9493 23.7011L17.3682 23.2343C21.0224 21.7657 23.7914 17.9152 23.7914 13.9432C23.7914 11.8053 23.4445 10.1837 22.4354 8.43322C21.5608 6.91593 20.3691 5.71007 18.8986 4.76575C17.8662 4.10284 17.338 4.03618 16.7805 3.7411C16.7805 4.85662 16.3269 5.33913 16.2486 5.67518C16.7433 5.71629 18.0519 6.54525 18.4591 6.84925C21.5938 9.1897 22.758 13.5009 21.1 17.0539C21.0354 17.1924 21.0046 17.3056 20.9373 17.4231C20.3709 18.4121 20.1868 18.7326 19.3553 19.5641C19.1868 19.7326 19.0265 19.9176 18.8395 20.0636C17.3886 21.1974 16.2698 21.7189 14.3846 21.9911C12.9329 22.2007 11.2486 21.9142 9.94669 21.309C8.90379 20.8242 8.26658 20.394 7.43666 19.5641C7.26817 19.3956 7.08317 19.2352 6.93712 19.0483C6.76808 18.832 6.6338 18.6626 6.47409 18.4476L6.06245 17.7954C4.78897 15.3853 4.50404 12.6972 5.69191 10.1555C5.80862 9.90562 5.83864 9.80473 5.97766 9.57092C6.86017 8.08581 7.7688 7.0498 9.36669 6.19068C9.74344 5.9881 10.0967 5.77903 10.5433 5.67504C10.4983 5.48166 10.3184 5.22499 10.1859 4.82363C10.0765 4.49204 10.0115 4.16167 10.0115 3.74097C9.79591 3.85497 9.51787 3.92705 9.2869 4.03185C8.59871 4.34383 7.92526 4.70151 7.31699 5.15643C6.05406 6.10102 5.1779 7.04778 4.37449 8.40293L4.01856 9.06245C3.9592 9.17672 3.91835 9.29775 3.85453 9.43028C3.40759 10.3593 3.00041 12.0158 3.00041 13.2662H3Z" fill="#159A42"/>
<path fill-rule="evenodd" clip-rule="evenodd" d="M9.33352 19.2616C9.37152 19.0981 10.4016 17.361 10.5033 17.1918L11.7028 15.1034C11.5447 14.8674 11.3418 14.6488 11.2676 14.3297H6.4324C6.4324 15.8464 7.37104 17.3445 8.23571 18.3771L8.98719 19.0761C9.23588 19.2847 9.17516 19.2484 9.33352 19.2616Z" fill="#159A42"/>
<path fill-rule="evenodd" clip-rule="evenodd" d="M15.0854 15.1034L16.2664 17.1619C16.3907 17.372 17.4102 19.0711 17.4546 19.2616C17.712 19.2403 18.3714 18.583 18.53 18.403L18.9678 17.8738C19.6587 16.9451 20.3557 15.5119 20.3557 14.3297H15.5205C15.4461 14.6488 15.2432 14.8674 15.0853 15.1034H15.0854Z" fill="#159A42"/>
<path fill-rule="evenodd" clip-rule="evenodd" d="M10.543 7.17441C10.5954 7.39903 11.5725 9.0145 11.7201 9.28523C11.8257 9.47916 11.9197 9.60803 12.0253 9.80195L12.9121 11.3809C13.1687 11.3809 13.1909 11.3326 13.3957 11.3326C13.6006 11.3326 13.6228 11.3809 13.8793 11.3809C13.9266 11.2039 15.7873 8.05395 15.9734 7.72115C16.0734 7.54224 16.2042 7.36481 16.2486 7.17441C15.9784 7.11153 15.7367 6.95655 15.4266 6.88434C15.3604 6.93289 14.0903 8.95851 12.147 7.69802C11.7304 7.42783 11.5432 7.01484 11.3652 6.88434C11.0552 6.95655 10.8135 7.11153 10.5433 7.17441H10.543Z" fill="#159A42"/>
<path fill-rule="evenodd" clip-rule="evenodd" d="M10.5409 20.0338C10.7292 20.0778 10.8998 20.1762 11.1019 20.2465C12.3226 20.6709 13.7901 20.7384 15.0483 20.4314C15.576 20.3027 16.0755 20.0737 16.2463 20.0338C16.1987 19.8298 14.4697 16.8681 14.1644 16.3619C14.0886 16.2361 13.9163 15.9738 13.8771 15.8272C13.6205 15.8272 13.5984 15.8755 13.3935 15.8755C13.1886 15.8755 13.1664 15.8272 12.9099 15.8272C12.8336 16.1127 10.6175 19.7043 10.5406 20.0337L10.5409 20.0338Z" fill="#EDB327"/>
<path fill-rule="evenodd" clip-rule="evenodd" d="M6.43002 12.8782H11.2652C11.3396 12.5592 11.5424 12.3405 11.7004 12.1047C11.5153 11.7548 11.3074 11.4352 11.1201 11.0892C10.9302 10.7387 10.7315 10.4048 10.5193 10.0461C10.4056 9.85376 9.37063 8.11603 9.33114 7.94632C9.15858 7.96065 9.14452 8.00244 9.01159 8.11036C8.90138 8.19974 8.86013 8.25803 8.75803 8.34025C8.56938 8.49225 8.41738 8.62126 8.25564 8.80504C8.15828 8.91552 8.14584 8.95731 8.03779 9.07063C7.28009 9.86498 6.43002 11.6818 6.43002 12.8783V12.8782Z" fill="#EDB327"/>
<path fill-rule="evenodd" clip-rule="evenodd" d="M15.0855 12.1047C15.2436 12.3407 15.4464 12.5593 15.5207 12.8782H20.3558C20.3558 11.1203 19.0936 9.21668 17.8011 8.13186C17.5524 7.92319 17.6131 7.95957 17.4547 7.94632C17.4059 8.1562 16.2294 10.0969 15.9876 10.5407L15.0855 12.1045V12.1047Z" fill="#EDB327"/>
<path fill-rule="evenodd" clip-rule="evenodd" d="M11.458 3.78897C11.458 4.73208 12.1347 5.52737 12.687 6.23477C13.4878 7.2605 14.0621 6.32145 14.5805 5.60608C14.9749 5.0615 15.326 4.47554 15.326 3.78897C15.326 2.89699 14.429 2 13.537 2H13.2468C12.3548 2 11.4579 2.89699 11.4579 3.78897H11.458Z" fill="#EDB327"/>
<path fill-rule="evenodd" clip-rule="evenodd" d="M12.5715 13.5563C12.5715 14.7257 14.2155 14.7257 14.2155 13.5563C14.2155 12.5266 12.5715 12.5266 12.5715 13.5563Z" fill="#EDB327"/>
</svg>
