<svg width="22" height="22" viewBox="0 0 22 22" fill="none" xmlns="http://www.w3.org/2000/svg">
<path d="M10.9999 0C4.93853 0 0 4.93854 0 11C0 17.0615 4.93853 22 10.9999 22C17.0614 22 21.9999 17.0615 21.9999 11C21.9999 4.93854 17.0614 0 10.9999 0ZM18.1499 16.8208C18.0239 16.4542 17.9436 16.099 17.8749 15.7438C17.852 15.6292 17.7947 15.526 17.7947 15.4C17.7947 15.2969 17.703 15.3313 17.6572 15.3313C17.3364 15.3656 17.0155 15.4115 16.6832 15.4573C16.2822 15.5031 15.8812 15.5604 15.4687 15.5948C15.1364 15.6177 14.8041 15.6635 14.4832 15.7094C14.2655 15.7438 14.2655 15.9729 14.1968 16.1104C13.9791 16.5458 13.7843 16.9927 13.5895 17.4396C13.4291 17.7948 13.2687 18.1385 13.1197 18.4938C13.0968 18.551 13.0624 18.5969 13.0051 18.6198C12.5697 18.7802 12.1228 18.8833 11.676 18.9521C11.1718 19.0323 10.6676 19.0667 10.1635 19.0552C9.81972 19.0552 9.47597 19.0323 9.13222 18.9865C9.30409 19.0323 9.48742 19.0896 9.6593 19.124C9.99159 19.1812 10.3239 19.25 10.6562 19.2729C11.2635 19.3302 11.8822 19.3417 12.4895 19.25C12.7645 19.2156 13.0395 19.1927 13.303 19.124C13.4291 19.0896 13.5093 19.1698 13.6124 19.2271C13.8187 19.3531 14.0364 19.4792 14.2541 19.6167C13.2457 19.9948 12.1572 20.2125 11.0114 20.2125C9.86555 20.2125 8.74264 19.9948 7.71143 19.5938C7.71143 19.5938 7.72289 19.5823 7.73435 19.5708C8.04373 19.3875 8.36456 19.1927 8.67393 19.0094C8.93743 18.8604 8.94889 18.8604 8.8343 18.5854C8.6281 18.1042 8.39893 17.6344 8.19268 17.1531C8.04373 16.8094 7.90623 16.4656 7.72289 16.1448C7.69998 16.0875 7.72289 16.0417 7.75727 15.9958C8.10102 15.4229 8.44477 14.8615 8.78847 14.2885C8.78847 14.2885 8.78847 14.2885 8.78847 14.2542C8.41039 14.5635 8.04373 14.8729 7.68852 15.1823C7.51664 15.3313 7.34477 15.4688 7.17289 15.6177C7.06977 15.7094 6.95519 15.6635 6.8406 15.6521C6.35936 15.5719 5.87811 15.5375 5.3854 15.4802C5.09894 15.4458 4.81249 15.4115 4.52603 15.3656C4.31978 15.3313 4.26249 15.1365 4.15936 14.999C3.66666 14.3229 3.33437 13.5667 3.04791 12.7875C3.01353 12.6844 2.99062 12.5698 2.9677 12.4667C2.9677 12.4667 2.95624 12.4552 2.93332 12.4438C2.89895 12.6958 2.97916 12.925 3.02499 13.1542C3.15103 13.9333 3.41457 14.6667 3.74686 15.3771C3.78124 15.4344 3.7927 15.5146 3.83853 15.5604C4.04478 15.7781 4.01041 16.0302 3.9302 16.2823C3.88436 16.4313 3.84999 16.5802 3.81561 16.7292C3.81561 16.7292 3.81561 16.7521 3.81561 16.7635C2.5552 15.1938 1.81041 13.2 1.81041 11.0115C1.81041 10.874 1.82187 10.7479 1.83333 10.6104C2.09687 10.8396 2.34895 11.0573 2.61249 11.2865C2.63541 11.3094 2.65833 11.3208 2.68124 11.3438C2.89895 11.5385 2.89895 11.5385 3.12812 11.3438C3.62082 10.9083 4.11353 10.4729 4.59478 10.026C4.84686 9.79688 5.08748 9.5448 5.35103 9.32709C5.5229 9.17813 5.40832 9.00626 5.37394 8.8573C5.20207 8.00937 5.00728 7.17291 4.86978 6.325C4.84686 6.21041 4.80103 6.10729 4.78957 5.98125C4.78957 5.87812 4.6979 5.87812 4.62915 5.87812C4.26249 5.9125 3.88436 5.93541 3.5177 5.96979C3.48332 5.96979 3.46041 5.98125 3.42603 5.98125C3.39166 5.98125 3.34582 5.98125 3.31145 5.98125C4.52603 4.125 6.38227 2.73854 8.58227 2.14271C8.58227 2.16562 8.57081 2.2 8.55935 2.22292C8.4906 2.38333 8.39893 2.54375 8.3531 2.71562C8.28435 2.99062 8.0781 3.10521 7.84893 3.19687C7.10414 3.51771 6.46248 3.9875 5.86665 4.5375C5.53436 4.83541 5.23644 5.16771 4.94999 5.5C4.92707 5.53437 4.88124 5.55729 4.88124 5.62604C5.06457 5.47708 5.22498 5.32812 5.39686 5.19062C5.91248 4.76666 6.47394 4.42291 7.06977 4.125C7.40206 3.96458 7.73435 3.82708 8.08956 3.7125C8.18122 3.67812 8.27289 3.66666 8.3531 3.7125C9.08638 4.13646 9.80826 4.54896 10.5416 4.97291C10.6103 5.00729 10.6447 5.04166 10.6447 5.12187C10.6905 5.44271 10.7364 5.76354 10.7937 6.08437C10.851 6.41666 10.9197 6.74895 11.0114 7.06979C11.103 6.49687 11.1947 5.9125 11.2864 5.33958C11.3208 5.09896 11.4239 4.93854 11.676 4.82396C12.226 4.54896 12.7645 4.22812 13.303 3.91875C13.5207 3.79271 13.7614 3.68958 13.9676 3.51771C14.0135 3.47187 14.0707 3.50625 14.128 3.50625C13.7957 3.38021 13.8187 3.03646 13.6812 2.78437C13.5895 2.6125 13.5207 2.41771 13.4291 2.23437C13.4176 2.2 13.4062 2.15417 13.4062 2.11979C15.5947 2.71562 17.4853 4.09062 18.7114 5.94687C18.7114 5.96979 18.6884 5.98125 18.6426 5.98125C18.3791 5.96979 18.1155 5.96979 17.852 5.93541C17.6916 5.9125 17.6114 5.76354 17.5197 5.66041C16.9468 5.00729 16.2593 4.50312 15.5145 4.07916C15.1135 3.85 14.678 3.67812 14.2541 3.50625C14.2082 3.48333 14.1624 3.49479 14.1051 3.48333C14.403 3.67812 14.7239 3.81562 15.0103 4.02187C15.4916 4.36562 15.9499 4.74375 16.3509 5.17916C16.603 5.44271 16.8437 5.71771 17.0499 6.02708C17.1301 6.14166 17.1187 6.23333 17.0957 6.33645C16.9582 6.94375 16.8322 7.53958 16.7291 8.14687C16.6947 8.37604 16.6489 8.61666 16.5801 8.84584C16.4884 9.14376 16.6145 9.32709 16.8093 9.49897C17.4509 10.0719 18.0811 10.6448 18.7228 11.2177C18.7801 11.2635 18.8259 11.3208 18.8259 11.4125C18.8259 11.8823 18.7916 12.3521 18.7343 12.8219C18.6884 13.1771 18.6197 13.5208 18.5166 13.8646C18.4364 14.1396 18.3791 14.426 18.2301 14.6781C18.2072 14.7125 18.1843 14.7354 18.2186 14.8156C18.3561 14.5635 18.4822 14.3344 18.6082 14.1052C18.8947 13.5896 19.0666 13.0281 19.227 12.4552C19.3301 12.0885 19.3989 11.7104 19.4218 11.3323C19.4218 11.1719 19.5478 11.0802 19.6509 10.9885C19.8114 10.851 19.9718 10.725 20.1322 10.5875C20.1551 10.5646 20.178 10.5188 20.2239 10.5417C20.2239 10.6792 20.2468 10.8167 20.2468 10.9542C20.2468 10.9885 20.2468 11.0115 20.2468 11.0458C20.2468 11.2979 20.2353 11.5385 20.2124 11.7906C20.2124 11.8938 20.1895 11.9854 20.178 12.0885C20.1551 12.249 20.1322 12.4094 20.1093 12.5698C20.0864 12.7188 20.052 12.8677 20.0291 13.0167C19.9718 13.2458 19.9259 13.475 19.8572 13.7042C19.8572 13.7385 19.8343 13.7615 19.8228 13.7958C19.7426 14.0479 19.6509 14.2885 19.5593 14.5292C19.5478 14.5635 19.5249 14.5979 19.5134 14.6323C19.3989 14.8844 19.2843 15.1365 19.1582 15.3771C18.8832 15.8813 18.5739 16.3396 18.2186 16.775C18.2186 16.775 18.2186 16.7865 18.2072 16.7979L18.1499 16.8208Z" fill="#159A42"/>
</svg>
