<svg width="311" height="396" viewBox="0 0 311 396" fill="none" xmlns="http://www.w3.org/2000/svg">
<path d="M215.798 126.266C215.095 128.276 214.333 130.243 213.511 132.167C212.819 133.803 212.086 135.408 211.313 136.982C191.005 178.342 144.233 198.207 101.795 181.615C59.7932 165.186 36.5753 118.714 45.9063 73.771C46.4166 71.3227 47.023 68.8792 47.7254 66.4405C48.2311 64.687 48.7883 62.94 49.397 61.1995C50.2009 58.907 51.0778 56.6722 52.0278 54.4949C53.2574 51.6553 54.6116 48.9089 56.0903 46.256C77.429 7.7841 122.435 -10.1672 163.397 5.86014C175.03 10.3887 185.63 17.4517 194.51 26.5902C196.11 28.2349 197.647 29.9397 199.121 31.7045C215.546 51.3825 223.725 77.8966 220.727 104.615C220.568 106.055 220.374 107.499 220.148 108.938C219.223 114.847 217.767 120.649 215.798 126.266Z" fill="#159A42"/>
<path d="M99.2975 175.87C99.3959 175.859 99.4861 175.807 99.5484 175.726C99.6106 175.644 99.6398 175.54 99.6295 175.436C99.6295 175.41 99.6295 175.38 99.6133 175.354C99.6096 175.337 99.6042 175.322 99.5972 175.307L99.5488 175.241C99.4694 175.136 99.3847 175.035 99.2952 174.94C99.1687 174.801 99.0516 174.654 98.9447 174.499C98.7899 174.285 98.6649 174.049 98.5735 173.797C98.4463 173.688 98.3325 173.563 98.2346 173.425C98.1299 173.282 98.0359 173.13 97.9533 172.972C97.7997 172.661 97.6776 172.335 97.589 171.998C97.5189 172.343 97.491 172.697 97.506 173.05C97.5211 173.262 97.5527 173.473 97.6005 173.68C97.6434 173.895 97.7132 174.103 97.808 174.299C97.8928 174.499 97.9988 174.687 98.1239 174.862C98.2431 175.019 98.3717 175.168 98.5089 175.307C98.6279 175.427 98.7594 175.533 98.9009 175.621C99.0323 175.712 99.1637 175.794 99.2975 175.87Z" fill="#EDB327"/>
<path d="M103.569 169.691C104.477 168.856 105.441 167.589 104.491 166.854C103.733 168.181 103.361 167.845 102.578 169.387C101.655 169.752 100.712 169.923 100.671 169.462C100.565 169.706 100.157 169.915 99.79 170.271C99.4234 170.626 99.0845 171.111 99.1836 171.615C99.956 171.099 100.618 170.782 101.305 170.344C101.648 170.139 102.017 169.918 102.405 169.711C102.771 169.502 103.117 169.258 103.44 168.98C103.825 169.104 103.594 169.477 103.569 169.691Z" fill="#EDB327"/>
<path d="M191.52 143.494L190.92 143.553C191.122 143.567 191.324 143.548 191.52 143.494Z" fill="#EDB327"/>
<path d="M191.522 143.494L193.064 143.355C193.059 142.985 192.25 143.345 191.522 143.494Z" fill="#EDB327"/>
<path d="M114.931 163.359C114.669 163.492 114.43 163.669 114.221 163.883C114.451 163.758 114.682 163.639 114.929 163.537C114.925 163.477 114.926 163.418 114.931 163.359Z" fill="#EDB327"/>
<path d="M167.869 151.932L167.428 152.073C167.328 152.243 167.245 152.423 167.182 152.612L167.869 151.932Z" fill="#EDB327"/>
<path d="M149.577 157.921C150.002 157.826 149.895 156.903 149.946 156.459C149.889 156.654 149.795 156.833 149.669 156.987C149.542 157.14 149.387 157.264 149.213 157.351C149.281 157.573 149.408 157.771 149.577 157.921Z" fill="#EDB327"/>
<path d="M120.054 165.622L119.572 165.907C119.695 165.822 119.911 165.715 120.054 165.622Z" fill="#EDB327"/>
<path d="M181.045 147.951C181.105 148.062 181.194 148.152 181.301 148.212C181.277 148.153 181.242 148.099 181.198 148.054C181.154 148.01 181.102 147.975 181.045 147.951Z" fill="#EDB327"/>
<path d="M86.6942 76.603C88.3082 77.8207 83.5585 76.9562 86.0717 78.471C85.8942 78.0618 88.8177 77.6405 86.6942 76.603Z" fill="#EDB327"/>
<path d="M115.436 163.325C115.68 163.235 115.931 163.147 116.185 163.082C115.927 163.13 115.675 163.211 115.436 163.325Z" fill="#EDB327"/>
<path d="M206.143 99.5303C206.222 99.7132 206.341 99.8735 206.491 99.9979C206.491 99.9029 206.417 99.7738 206.143 99.5303Z" fill="#EDB327"/>
<path d="M190.39 98.1221C189.998 97.9809 189.88 97.8323 189.311 97.8591C189.355 97.9122 189.405 97.9588 189.461 97.9979C189.68 97.9176 189.954 97.8981 190.39 98.1221Z" fill="#EDB327"/>
<path d="M174.205 95.2949C174.291 95.3811 174.381 95.4624 174.475 95.5385L174.996 95.5799L174.205 95.2949Z" fill="#EDB327"/>
<path d="M155.908 29.9139C156.233 30.0931 156.518 30.3419 156.745 30.6445C156.429 30.0308 158.813 29.5291 155.908 29.9139Z" fill="#EDB327"/>
<path d="M115.075 163.851C115.083 163.737 115.121 163.628 115.184 163.535C115.248 163.442 115.334 163.369 115.435 163.325C115.257 163.391 115.089 163.464 114.925 163.537C114.918 163.673 114.943 163.81 115.075 163.851Z" fill="#EDB327"/>
<path d="M188.621 105.156L186.068 104.574C186.909 104.816 187.761 105.01 188.621 105.156Z" fill="#EDB327"/>
<path d="M178.406 103.375C178.01 102.996 177.553 102.697 177.055 102.491C176.934 102.529 176.82 102.591 176.721 102.674L178.406 103.375Z" fill="#EDB327"/>
<path d="M206.513 135.179L207.329 135.036C207.262 136.887 203.974 135.301 202.095 136.782C202.575 136.482 202.496 135.637 202.413 135.866C200.866 136.275 199.36 136.838 197.913 137.547C196.32 138.277 194.565 139.181 192.455 140.145L192.873 139.541C191.07 139.712 188.333 140.759 186.44 141.146C186.016 141.745 184.946 142.011 185.76 142.425C179.401 141.801 175.32 147.164 169.715 146.74C170.314 146.543 171.043 145.915 170.566 146.063L166.392 147.819C166.936 148.433 167.084 148.077 168.138 148.352C167.718 148.954 166.602 149.668 165.544 150.009C167.331 148.917 165.193 148.852 164.248 148.713C164.451 148.893 164.234 149.227 164.368 149.431C161.765 148.852 164.407 151 161.105 151.107L161.158 150.673C160.073 151.234 159.16 152.071 157.898 152.356C157.147 151.679 159.003 151.577 158.885 150.866C157.17 151.462 155.92 153.545 154.115 153.199C154.781 152.731 155.842 152.393 156.51 151.928C154.525 151.489 154.396 151.801 153.084 152.047L153.213 152.03L152.927 152.076C152.86 152.076 152.794 152.098 152.724 152.11L150.158 152.517L150.977 152.546C149.457 155.362 146.783 154.387 144.304 156.577C146.536 154.502 144.41 155.756 144.362 154.755C143.536 154.731 142.324 154.796 142.568 154.426C141.415 155.644 140.094 154.555 138.464 156.292C138.291 156.019 136.981 156.735 137.081 155.87C135.354 156.679 137.657 156.265 137.613 156.696C135.146 158.618 130.752 157.495 127.183 160.188C123.92 161.869 123.579 163.111 120.542 164.623C119.329 164.475 121.105 163.233 121.105 163.233C119.242 163.335 117.962 163.832 116.429 164.694C116.683 164.324 116.279 164.207 115.684 164.019C114.398 164.506 115.124 165.41 113.268 165.507C113.469 165.076 113.692 164.411 114.229 163.868C112.763 164.64 111.4 165.692 109.881 166.479C109.305 166.08 110.614 165.364 111.078 164.84C109.351 165.649 106.561 166.801 106.247 167.819L107.158 167.77C106.904 167.636 107.04 167.066 107.389 166.827C108.74 165.68 109.694 166.416 109.869 166.691L108.786 167.253C110.464 168.666 113.277 165.507 115.599 164.884L115.016 166.489L117.056 164.66C117.653 164.842 118.209 165.461 117.125 166.016C118.951 166.133 118.449 165.088 120.065 165.359C120.254 165.42 120.199 165.505 120.065 165.602L121.564 164.706C121.333 165.081 122.092 165.541 121.049 165.666C124.146 165.5 125.43 163.211 126.788 163.854L126.558 164.012C130.431 162.307 126.673 162.933 129.352 160.861L132.043 162.565L132.165 161.487C132.587 161.389 133.424 161.199 133.38 161.63C134.727 160.49 133.002 161.299 133.717 160.412C135.951 160.656 139.075 158.262 139.956 159.643C140.461 158.691 137.899 159.687 139.873 158.508C140.943 159.95 142.245 157.451 144.27 157.624C143.956 158.647 142.109 158.742 144.141 158.922C144.832 157.147 147.76 158.109 149.213 157.349C148.959 156.192 152.404 155.819 154.862 154.626C154.811 155.057 159.874 153.71 162.378 153.367L162.362 153.579C162.498 152.281 165.023 151.713 166.743 150.9C166.867 151.611 166.623 151.981 165.74 152.605L167.425 152.064C167.718 151.577 168.188 151.212 169.244 150.729L169.065 151.723C171.299 150.963 173.298 149.288 176.35 148.932C176.281 148.08 173.418 147.429 176.32 145.924C176.537 146.292 176.828 146.92 176.286 147.354C176.581 147.154 177.061 146.808 177.54 146.821L176.526 147.936C177.934 147.836 177.042 147.108 178.114 146.84C178.269 147.466 179.018 147.032 179.006 147.571C178.755 147.714 178.017 147.605 177.683 147.975C178.9 147.712 180.436 147.619 181.045 147.941C180.839 147.622 180.814 147.106 181.653 146.75C183.883 145.993 182.631 147.249 184.031 147.149C184.457 146.548 186.013 146.538 185.79 145.603C186.447 145.398 186.689 145.788 187.016 145.961C188.058 145.184 192.412 144.117 190.821 143.55L190.5 143.579C190.562 143.55 190.622 143.517 190.68 143.479C194.224 141.351 198.75 141.468 202.397 139.826L202.483 140.133C203.557 139.578 204.788 139.108 205.941 138.623C207.094 138.138 208.129 137.62 208.825 137.013C209.489 136.784 210.564 137.025 210.402 137.486C210.774 137.296 211.064 137.13 211.325 136.982C212.093 135.408 212.826 133.803 213.522 132.167C211.2 133.392 208.865 134.551 206.513 135.179ZM137.113 94.8542L135.651 95.6798C142.983 95.7918 150.197 98.4805 157.352 98.6777C156.891 98.8482 156.828 99.1648 156.148 99.0406C157.495 100.076 161.592 100.059 161.716 99.4327C162.793 99.7006 161.876 100.046 162.496 100.49C163.9 101.22 166.362 100.173 167.024 101.084C167.096 101.184 166.879 101.228 166.639 101.25C167.93 101.262 170.683 102.063 169.978 101.108C172.528 101.997 175.05 101.595 177.054 102.494C178.571 101.739 181.455 103.763 182.11 102.426C181.695 103.848 186.518 104.398 188.277 104.002C187.653 104.345 189.645 104.705 188.902 105.205C190.793 105.511 192.568 105.543 192.361 104.737C195.57 107.082 199.568 104.54 201.182 107.112C206.912 107.299 212.185 107.662 217.28 108.188C216.877 109.61 211.684 107.375 211.664 108.938C215.007 109.091 217.444 108.777 220.16 108.938C220.391 107.499 220.58 106.055 220.739 104.615C220.479 104.54 220.229 104.435 219.992 104.301L220.349 102.406C217.243 101.001 214.451 102.406 210.322 101.189L211.62 101.749C210.928 102.411 209.008 101.408 207.601 101.483C207.832 100.867 207.009 100.49 206.49 99.9929C206.49 100.48 203.423 99.4181 202.842 100.626L201.095 99.462C197.756 98.5365 196.944 100.609 193.717 99.8297C194.805 99.3061 193.391 98.612 195.656 98.4805C194.565 98.2857 193.606 97.9934 193.518 98.4366C192.946 97.9301 190.369 98.7727 189.46 97.9958C188.958 98.1955 188.706 98.8336 187.491 98.5682C187.467 98.5329 187.453 98.4902 187.453 98.4464C187.453 98.4025 187.467 98.3598 187.491 98.3246C187.166 98.5389 185.647 98.4318 186.527 99.2428C183.484 96.6759 177.134 97.745 174.483 95.5239C172.078 95.3169 169.18 95.0222 167.022 94.6788C167.179 94.523 167.093 94.3817 167.404 94.4767C164.61 93.4197 165.329 95.9866 162.078 94.7202C160.52 93.3808 163.964 94.4767 162.95 93.9044C162.821 91.7296 158.825 93.4538 156.75 91.8221L157.32 91.7978C155.706 90.7725 152.939 91.7978 150.138 91.1305C150.138 91.1305 150.304 90.9697 150.204 90.8187C148.088 91.5177 144.353 91.206 141.574 90.9673C142.561 90.3146 142.889 90.7749 142.508 89.8422C141.268 89.7277 142.64 91.2425 140.159 91.0087C139.442 90.4096 137.747 89.679 137.669 88.7511L139.974 89.1432C138.992 87.7721 136.991 88.6074 135.81 88.169L136.055 87.6966C132.499 87.1827 132.227 88.4418 128.446 87.5918L128.773 88.0448C126.468 88.8826 127.159 86.9976 124.932 87.5139L124.533 86.1233C123.115 86.1477 119.53 86.4034 117.04 86.1233C118.596 85.4828 121.55 85.5753 123.422 85.3708C122.073 85.0907 118.811 84.5476 117.995 85.0152C118.557 85.0152 119.302 84.8447 119.804 85.1443C117.96 85.7994 115.693 85.8262 113 85.2417C113.943 82.8842 106.095 83.1716 104.523 80.8142C99.6024 80.6705 95.1801 78.3788 89.6466 77.2268C91.2098 79.5794 88.0327 76.9078 87.9589 78.9316C86.647 78.7587 86.1628 78.6126 86.0728 78.4591L82.4299 76.3915C81.6299 75.6 83.7442 76.2527 83.7188 75.7802C80.952 74.9643 82.7181 74.6745 80.9751 73.7052C81.2056 74.4967 79.7854 74.4651 78.2475 73.8075L80.3157 75.2688C76.1655 75.3443 77.2907 72.8066 73.1174 72.8602L74.5008 72.5557C73.4518 72.4827 71.5819 72.0467 69.6935 71.7034C67.8052 71.36 65.8869 71.1822 64.7134 71.7034C64.409 71.3843 64.0609 70.7292 64.9808 70.8242C62.5991 70.0716 59.8116 69.8159 57.19 69.436C54.5685 69.0561 52.1176 68.6201 50.3584 67.6265L50.8403 67.2563C49.918 67.1467 49.0557 67.7093 48.0528 66.9251C48.1611 66.7449 48.5323 66.5549 48.1265 66.4137C48.0412 66.4137 47.896 66.4283 47.7392 66.4332C47.0337 68.8685 46.4273 71.3121 45.92 73.7637C47.0729 73.9634 48.4378 74.168 50.3792 74.4407C49.9296 73.9536 49.3647 73.6517 49.7405 73.4666C50.6628 73.581 51.6842 74.3652 51.4628 74.7184L51.2069 74.7403C56.8949 75.0886 63.1755 80.31 67.9528 79.9959C69.5414 80.1079 71.1392 80.1688 72.7255 80.254C74.8006 80.9091 71.3259 80.5536 72.7762 81.4401C78.0238 81.2842 80.5485 83.5856 84.8324 83.6075C86.1582 85.1784 88.9826 85.7848 91.9545 86.3157C94.9265 86.8466 98.0714 87.2411 100.061 88.4954L99.9252 87.8719C101.14 87.5529 101.196 88.4905 101.986 88.7998C101.956 88.3298 100.889 88.0253 101.634 87.8646C106.381 88.5757 111.184 89.7618 115.986 91.1475C120.789 92.5333 125.61 93.9872 130.38 95.2171C133.878 96.0475 132.896 92.6404 137.101 94.8615L137.113 94.8542ZM194.523 26.5731C192.845 26.7728 190.984 26.8873 189.511 27.4304C189.676 27.2618 189.881 27.1418 190.104 27.0821C188.554 27.0431 188.049 26.6267 187.005 26.4099C186.876 27.708 184.337 28.1537 183.018 29.0572C180.927 27.9905 184.134 27.4572 183.424 26.3247C183.595 27.35 180.005 27.6471 180.747 28.4532C179.156 27.8176 179.398 28.1902 178.527 27.2014C178.377 28.8185 177.118 27.5911 175.917 28.6749C173.634 28.0733 175.225 27.2136 172.825 27.915C171.672 27.54 173.563 26.8434 173.747 26.7825C171.278 26.9603 172.689 28.0538 172.216 28.7869C169.279 29.4103 170.771 28.0343 169.71 27.5156C167.884 28.0027 166.558 29.2569 165.175 29.347C165.053 29.1595 164.781 29.1035 165.073 28.8332C163.201 29.9778 159.266 29.4444 157.11 30.9179C157.005 30.8716 156.91 30.8047 156.828 30.7206C157.155 31.157 157.319 31.7045 157.29 32.2598C156.183 32.4059 155.307 33.2485 154.811 32.5033C155.503 32.4522 155.519 32.1307 155.809 31.8506L154.687 32.3206C153.522 31.3124 156.231 31.7532 156.151 30.9154C153.916 31.5389 151.371 32.7687 149.6 32.6421C149.118 31.5851 153.624 31.8165 151.214 31.0956L153.949 31.2174C151.717 29.7075 155.6 31.1565 153.52 29.5126C149.939 29.6027 149.6 30.4868 146.043 30.6256C145.316 31.3392 146.405 31.4999 145.678 32.211C140.793 33.9426 141.418 29.9364 137.897 31.8652C137.025 32.7176 136.822 34.1569 134.118 33.7819L134.86 32.4132C131.425 32.7614 133.126 34.4711 129.444 34.118C130.021 33.5432 132.082 33.3338 131.547 33.2607C129.105 32.5958 129.993 34.1886 128.211 34.4321L127.704 33.3849C126.8 33.5529 125.875 33.7648 124.937 33.9962C123.998 34.2276 123.048 34.5052 122.089 34.7731C120.162 35.3089 118.19 35.8519 116.191 36.2514C116.369 35.8933 117.015 35.4452 116.028 35.2504C113.413 35.8945 110.755 36.3276 108.078 36.546C105.371 36.7896 102.662 36.8626 100.172 36.9454L98.4449 38.2045C98.0115 38.2654 97.578 37.9099 98.0207 37.6468C96.0632 37.6103 98.0207 38.2654 97.1515 38.7915C96.0794 39.035 95.6413 38.4846 96.2846 38.0876C94.2238 38.9431 92.1109 39.6509 89.9602 40.2064C87.5854 40.8323 85.1506 41.2366 83.3038 41.0393L83.9494 40.6351C81.1388 40.7349 81.1526 43.1167 78.4619 42.6832L78.9231 42.4275C72.8984 43.0948 66.4541 45.143 61.6768 44.5804C61.1557 45.8346 57.4183 45.3573 56.0902 46.2535C54.6208 48.9048 53.2666 51.6511 52.0277 54.4924C54.7403 54.1778 57.4317 53.6841 60.0859 53.0142L59.3458 53.8373C61.716 53.4598 61.882 50.6567 64.0609 50.1842L64.9439 51.419C69.0641 50.6177 73.4333 51.0805 77.3091 49.1005C77.2768 49.3099 77.2169 49.7264 76.5575 49.9042C78.4412 49.5876 83.8272 49.4975 83.2969 47.9193C83.9125 48.7474 87.6176 47.0694 89.6466 46.1951L89.4345 47.1546C91.1407 45.6739 91.1568 45.3549 93.7391 44.5974C94.3086 44.5974 94.387 45.0845 93.8014 45.1381C95.6274 45.1381 95.1409 44.013 97.6172 44.0714L96.7641 44.802C98.913 44.5146 98.6986 44.2346 99.7776 43.3676C100.423 43.0753 101.445 42.9609 102.36 43.0193C103.275 43.0778 104.089 43.3116 104.304 43.6963C104.518 43.1533 105.599 42.3057 106.893 42.3398C107.11 42.6199 106.676 42.8829 106.462 43.012C110.125 43.0607 111.638 41.1221 114.225 41.619C114.255 41.7398 114.317 41.8493 114.403 41.9353C114.489 42.0213 114.595 42.0804 114.711 42.106C112.12 42.4811 109.985 42.7855 109.777 42.7563C109.918 43.5673 112.194 43.3651 110.54 44.7898C111.417 44.332 112.597 43.6355 113.842 43.0607C115.087 42.486 116.408 42.0549 117.552 42.0866C117.678 42.1439 117.792 42.2266 117.888 42.3301L117.658 42.4592C118.143 42.4602 118.623 42.3418 119.057 42.1133C119.686 42.1664 120.318 42.1583 120.946 42.089C121.298 42.7368 123.627 42.0719 124.775 41.9331C124.568 41.0466 126.053 40.959 124.628 40.4378C124.665 40.4841 124.282 40.5766 123.62 40.7106C123.456 40.7461 123.297 40.8025 123.145 40.8786C123.164 40.8494 123.189 40.8153 123.212 40.786C122.463 40.9224 121.485 41.0905 120.372 41.2731C121.215 40.6765 122.115 40.148 123.445 40.4646C123.887 39.8699 124.359 39.3008 124.858 38.7598C126.595 39.7949 129.7 40.0749 130.224 40.7958C133.668 39.8046 138.434 39.3199 140.447 37.3522C141.422 37.0063 141.65 37.6955 142.061 37.9196C141.505 38.1631 140.816 38.224 140.53 38.509C142.478 37.8222 146.423 37.5957 146.769 36.339C149.344 36.5655 145.476 37.6176 148.911 36.9893L148.482 37.413C151.987 37.978 154.668 36.9113 157.458 35.8885C160.121 34.9143 162.888 34.0327 166.51 34.6951C166.357 34.6776 166.217 34.5981 166.118 34.4735C168.311 34.5101 170.504 34.406 172.684 34.1618C174.891 33.9621 177.1 33.6747 179.311 33.3971C183.724 32.8223 188.148 32.4643 192.453 33.0366C194.892 33.229 195.116 32.4278 196.564 31.7654L197.136 32.7176L199.107 31.7069C197.644 29.9356 196.112 28.2267 194.512 26.5804L194.523 26.5731ZM113.056 37.7272C113.286 37.4837 112.134 37.4837 111.37 37.3229C111.963 37.2645 112.696 37.1549 113.469 37.0258C113.678 37.3181 113.535 37.6639 113.056 37.7272ZM116.201 36.5704C116.201 36.5704 116.201 36.5582 116.201 36.5509L117.065 36.3902L116.201 36.5704ZM122.59 41.7115C122.608 41.675 122.647 41.6287 122.666 41.5897C122.628 41.774 122.549 41.9459 122.435 42.0914C121.693 42.335 121.411 42.1913 121.282 42.0184C121.621 41.9502 122.048 41.8576 122.583 41.7115H122.59ZM107.158 167.784C107.211 167.806 107.267 167.815 107.323 167.812C107.38 167.809 107.435 167.794 107.485 167.767L107.158 167.784Z" fill="#EDB327"/>
<path d="M187.483 98.3265C187.497 98.3212 187.51 98.3118 187.52 98.2994C187.531 98.287 187.537 98.272 187.54 98.2559C187.519 98.2774 187.5 98.301 187.483 98.3265Z" fill="#EDB327"/>
<path d="M166.287 101.272C166.379 101.272 166.504 101.272 166.624 101.252C166.511 101.245 166.398 101.252 166.287 101.272Z" fill="#EDB327"/>
<path d="M166.51 34.6753C166.621 34.707 166.761 34.7313 166.932 34.763C166.791 34.7289 166.648 34.7045 166.51 34.6753Z" fill="#EDB327"/>
<path d="M109.771 42.7295C109.75 42.7295 109.752 42.7446 109.771 42.7446C109.79 42.7446 109.774 42.7345 109.771 42.7295Z" fill="#EDB327"/>
<path d="M123.627 40.6859C123.726 40.6388 123.828 40.6005 123.933 40.5715C123.775 40.5167 123.614 40.4712 123.451 40.4351C123.371 40.5447 123.29 40.6543 123.221 40.7614L123.627 40.6859Z" fill="#EDB327"/>
<path d="M190.812 143.562H190.916C190.836 143.558 190.758 143.537 190.686 143.501C190.748 143.513 190.762 143.542 190.812 143.562Z" fill="#EDB327"/>
<path d="M164.238 148.72C164.119 148.636 163.977 148.595 163.834 148.603C163.873 148.657 164.042 148.691 164.238 148.72Z" fill="#EDB327"/>
<path d="M153.08 152.054L151.42 152.242C151.977 152.216 152.531 152.153 153.08 152.054Z" fill="#EDB327"/>
<path d="M144.408 154.333C144.36 154.47 144.339 154.616 144.348 154.762H144.366L144.408 154.333Z" fill="#EDB327"/>
<path d="M188.911 105.224C188.911 105.224 188.911 105.224 188.911 105.209L188.623 105.161L188.911 105.224Z" fill="#EDB327"/>
<path d="M107.287 165.7L106.865 165.795C106.876 165.819 106.882 165.846 106.882 165.873C106.882 165.9 106.876 165.926 106.865 165.951L107.287 165.7Z" fill="#EDB327"/>
<path d="M106.857 165.951L106.428 166.194C106.638 166.133 106.824 166.068 106.857 165.951Z" fill="#EDB327"/>
<path d="M105.533 166.727L106.433 166.199C106.101 166.303 105.676 166.406 105.533 166.727Z" fill="#EDB327"/>
<path d="M118.711 162.512L118.748 162.151C118.692 162.262 118.679 162.391 118.711 162.512Z" fill="#EDB327"/>
<path d="M122.119 161.328C121.28 161.516 119.871 161.301 118.783 161.864L118.748 162.151C119.152 161.506 121.494 162.112 122.119 161.328Z" fill="#EDB327"/>
<path d="M137.582 160.712L134.631 161.372C135.23 161.552 136.014 161.798 134.737 162.295C138.645 162.156 133.771 161.774 137.582 160.712Z" fill="#EDB327"/>
<path d="M146.647 158.367C145.146 159.017 146.806 158.854 146.778 159.073C147.67 158.45 147.887 158.296 146.647 158.367Z" fill="#EDB327"/>
<path d="M211.135 137.569L211.232 138.416C212.382 137.873 211.146 138.102 211.135 137.569Z" fill="#EDB327"/>
<path d="M177.213 94.9949L177.423 96.0762C178.283 96.047 178.636 94.9365 177.213 94.9949Z" fill="#EDB327"/>
<path d="M128.982 87.1287C128.551 86.5174 127.262 85.911 126.342 86.2544C127.407 86.5393 128.41 87.1482 128.982 87.1287Z" fill="#EDB327"/>
<path d="M159.137 22.0265L152.969 22.0508L150.272 16.1475H153.163L155.475 16.3496L158.364 18.181L159.137 22.0265Z" fill="#333333"/>
<path d="M89.182 85.356C83.0144 88.8143 84.7483 79.4526 81.0869 73.5492C77.4256 67.6458 69.9092 58.4863 74.1492 56.8571C78.3893 55.2278 88.0246 60.1132 88.0246 60.1132L91.8151 71.6935L93.2215 77.6188L89.182 85.356Z" fill="#333333"/>
<path d="M186.624 106.753L189.16 108.67C189.16 108.67 189.665 111.264 186.797 111.04C183.929 110.816 182.121 108.405 181.208 108.117C180.285 107.87 179.349 107.683 178.404 107.557L179.14 105.896L182.006 105.343L186.624 106.753Z" fill="#663434"/>
<path d="M187.268 104.403L193.571 107.642C193.571 107.642 194.634 110.46 191.351 110.497C188.068 110.533 184.711 107.192 183.918 107.184C183.125 107.177 180.229 107.672 180.229 107.672L182.156 103.794L187.268 104.403Z" fill="#824848"/>
<path d="M169.818 96.7632L166.744 107.367L167.637 107.406C168.59 108.212 169.591 108.952 170.634 109.622C172.916 111.047 175.639 112.014 178.104 112.545C180.569 113.075 183.737 114.921 184.399 114.196C185.06 113.47 185.687 112.247 183.246 110.611C180.804 108.974 180.322 108.938 180.018 108.419C179.714 107.9 182.07 107.932 183.67 107.333L185.268 106.734C186.553 106.823 187.834 106.981 189.104 107.206C190.589 107.518 194.454 109.452 195.452 107.294C196.45 105.136 191.016 103.461 187.862 102.44C184.708 101.42 182.923 100.331 179.84 99.5907C178.531 99.2741 176.211 98.6336 173.972 97.9979V97.9858C173.276 97.7593 171.775 97.3209 169.818 96.7632Z" fill="#8C6060"/>
<path d="M169.745 96.8314C163.769 94.7954 145.462 87.6719 145.462 87.6719L139.682 101.921L168.588 107.62L169.745 96.8314Z" fill="#8C6060"/>
<path d="M164.928 240.652C164.928 240.652 156.803 258.727 155.452 265.887C154.398 271.467 154.493 279.038 150.257 281.569C149.058 282.299 147.511 282.606 145.491 282.355C136.345 281.223 136.163 257.383 136.008 252.578C135.854 247.773 132.933 243.277 132.347 237.439C131.904 233.021 132.395 229.402 136.329 228.005C137.592 227.552 139.209 227.327 141.261 227.376L164.928 240.652Z" fill="#EA2440"/>
<path d="M150.253 281.568C149.054 282.299 147.507 282.606 145.488 282.355C136.341 281.223 136.159 257.383 136.004 252.578C135.85 247.772 132.929 243.277 132.343 237.439C131.9 233.021 132.392 229.402 136.325 228.004C137.446 231.049 135.878 236.09 136.267 239.034C136.851 243.455 138.292 247.709 138.93 252.122C139.786 258.045 139.191 264.172 140.544 269.988C141.78 275.268 145.361 280.538 150.253 281.568Z" fill="#EFD1C6"/>
<path d="M155.1 263.583C155.025 263.584 154.951 263.559 154.89 263.513C154.081 262.894 153.244 262.253 152.584 261.411C151.201 259.66 150.648 257.076 151.063 254.321C151.427 251.886 152.425 249.655 153.389 247.502L157.053 239.31C157.093 239.219 157.166 239.149 157.255 239.115C157.344 239.081 157.443 239.086 157.529 239.128C157.615 239.171 157.681 239.248 157.713 239.342C157.746 239.436 157.741 239.54 157.701 239.631L154.037 247.826C153.094 249.938 152.119 252.12 151.768 254.446C151.388 256.986 151.886 259.35 153.135 260.931C153.744 261.703 154.544 262.314 155.317 262.906C155.378 262.953 155.424 263.019 155.448 263.095C155.472 263.171 155.472 263.253 155.448 263.329C155.425 263.405 155.379 263.472 155.318 263.519C155.257 263.566 155.183 263.591 155.107 263.59L155.1 263.583Z" fill="#333333"/>
<path d="M141.926 248.786C141.858 248.785 141.791 248.764 141.733 248.725C141.676 248.686 141.63 248.63 141.601 248.564C141.573 248.499 141.563 248.426 141.572 248.354C141.581 248.282 141.61 248.215 141.654 248.16C145.804 243.046 147.236 235.62 145.329 229.21C145.315 229.162 145.31 229.112 145.315 229.062C145.319 229.012 145.333 228.963 145.355 228.919C145.377 228.874 145.407 228.835 145.444 228.803C145.48 228.771 145.522 228.746 145.568 228.731C145.613 228.717 145.661 228.711 145.708 228.716C145.756 228.721 145.802 228.735 145.844 228.758C145.886 228.782 145.923 228.814 145.954 228.852C145.984 228.891 146.007 228.936 146.021 228.984C148.001 235.637 146.503 243.352 142.207 248.652C142.173 248.695 142.13 248.729 142.081 248.752C142.032 248.776 141.979 248.787 141.926 248.786Z" fill="#333333"/>
<path d="M138.257 242.431C138.18 242.432 138.106 242.407 138.044 242.359C137.983 242.312 137.937 242.245 137.914 242.169C137.89 242.092 137.891 242.009 137.915 241.933C137.94 241.857 137.987 241.791 138.049 241.745C142.531 238.398 144.38 231.587 142.259 226.241C142.222 226.148 142.221 226.044 142.257 225.951C142.293 225.858 142.362 225.784 142.449 225.745C142.537 225.706 142.635 225.705 142.723 225.743C142.811 225.781 142.882 225.854 142.919 225.946C145.167 231.608 143.209 238.82 138.462 242.361C138.402 242.407 138.33 242.432 138.257 242.431Z" fill="#333333"/>
<path d="M152.443 277.665H152.416C149.965 277.47 147.574 275.524 146.336 272.708C145.183 270.107 145.021 267.178 144.952 264.638C144.913 263.057 144.867 261.267 143.901 260.093C143.453 259.579 142.861 259.23 142.212 259.099C141.563 258.967 140.891 259.06 140.295 259.363C140.253 259.385 140.207 259.399 140.16 259.404C140.114 259.408 140.066 259.402 140.022 259.387C139.977 259.372 139.935 259.348 139.899 259.316C139.863 259.284 139.833 259.245 139.812 259.201C139.79 259.156 139.777 259.108 139.773 259.059C139.769 259.009 139.774 258.959 139.788 258.912C139.803 258.865 139.826 258.821 139.856 258.783C139.886 258.745 139.923 258.713 139.965 258.69C140.703 258.306 141.54 258.187 142.348 258.351C143.156 258.515 143.892 258.953 144.443 259.599C145.577 260.977 145.625 262.913 145.669 264.621C145.732 267.085 145.888 269.922 146.979 272.392C148.116 274.964 150.269 276.737 152.464 276.912C152.554 276.922 152.638 276.968 152.697 277.041C152.757 277.113 152.788 277.207 152.785 277.303C152.782 277.399 152.744 277.49 152.68 277.558C152.616 277.626 152.53 277.666 152.439 277.669L152.443 277.665Z" fill="#333333"/>
<path d="M149.685 258.725C149.594 258.717 149.51 258.674 149.449 258.604C149.388 258.533 149.354 258.441 149.354 258.346C149.354 258.25 149.388 258.158 149.449 258.088C149.51 258.018 149.594 257.975 149.685 257.967L156.023 257.768C156.355 257.768 156.666 257.733 156.844 257.565C157.097 257.322 156.993 256.776 156.735 256.469C156.443 256.174 156.102 255.936 155.73 255.768C155.617 255.71 155.499 255.649 155.393 255.585C154.265 254.928 153.331 253.953 152.695 252.769C152.059 251.585 151.745 250.239 151.79 248.878C151.794 248.798 151.822 248.721 151.87 248.658C151.918 248.596 151.983 248.551 152.057 248.53C153.676 248.083 155.39 248.232 156.917 248.954L157.259 249.119C158.181 249.568 159.117 250.03 159.756 249.516C159.793 249.486 159.836 249.464 159.881 249.452C159.927 249.439 159.974 249.436 160.02 249.443C160.067 249.449 160.112 249.466 160.152 249.491C160.193 249.516 160.229 249.549 160.257 249.588C160.286 249.628 160.306 249.673 160.318 249.721C160.33 249.769 160.333 249.819 160.327 249.868C160.321 249.917 160.305 249.965 160.282 250.007C160.258 250.05 160.226 250.088 160.189 250.118C159.207 250.909 157.959 250.298 156.961 249.806L156.631 249.643C155.338 249.032 153.893 248.876 152.509 249.197C152.519 250.368 152.823 251.514 153.39 252.519C153.957 253.524 154.767 254.352 155.737 254.918C155.843 254.979 155.949 255.037 156.057 255.093C156.511 255.3 156.923 255.596 157.272 255.965C157.773 256.555 157.916 257.565 157.328 258.126C156.943 258.496 156.405 258.513 156.048 258.522L149.71 258.725H149.685Z" fill="#EFD1C6"/>
<path d="M141.45 36.8292C148.816 36.8292 154.788 30.7341 154.788 23.2154C154.788 15.6967 148.816 9.60156 141.45 9.60156C134.083 9.60156 128.111 15.6967 128.111 23.2154C128.111 30.7341 134.083 36.8292 141.45 36.8292Z" fill="#594444"/>
<path d="M179.364 142.649C179.364 142.649 183.514 148.774 166.189 157.77C148.865 166.767 160.674 146.465 160.674 146.465L179.364 142.649Z" fill="#333333"/>
<path d="M148.558 126.824C171.419 147.749 206.967 199.591 202.314 220.886C197.661 242.181 172 232.654 172 232.654L145.441 177.127L131.483 155.88L148.558 126.824Z" fill="#7C4E59"/>
<path d="M155.602 155.016C155.602 155.016 179.417 180.928 185.368 211.67C191.319 242.412 147.583 188.566 147.583 188.566L145.561 162.911L155.602 155.016Z" fill="#333333"/>
<path d="M92.0724 167.998C118.961 207.671 155.09 240.668 158.27 243.839C168.285 253.824 166.914 267.525 174.492 285.277C182.071 303.029 211.56 328.973 215.833 332.524C220.105 336.074 228.105 356.556 228.105 356.556L260.131 339.482C260.131 339.482 234.351 329.375 228.022 309.728C221.693 290.082 211.346 261.108 205.838 253.227C200.329 245.346 205.376 245.619 186.334 211.874C167.292 178.13 140.546 149.528 140.546 149.528L92.0724 167.998Z" fill="#7C4E59"/>
<path d="M94.9613 108.355C91.5029 116.906 81.0929 135.337 88.5055 162.26C95.9182 189.184 104.599 196.088 104.599 196.088C104.599 196.088 111.44 194.909 130.422 187.947C149.405 180.984 152.254 163.052 152.393 162.908C167.61 146.835 179.369 142.648 179.369 142.648C179.369 142.648 176.251 138.16 168.735 132.366C161.219 126.572 146.481 117.905 146.481 117.905L144.074 110.879L94.9613 108.355Z" fill="#266B27"/>
<path d="M304.494 392.114C293.657 402.971 269.137 388.163 253.742 383.103C238.347 378.042 229.199 378.758 226.482 374.206C225.985 373.302 225.61 372.329 225.367 371.315C223.753 365.336 223.451 354.796 220.379 350.2C216.716 344.714 216.82 335.8 220.986 338.754C227.246 343.179 232.876 339.485 232.876 339.485C232.876 339.485 231.493 325.389 239.461 321.996C247.429 318.604 255.67 335.172 264.362 343.184C273.054 351.197 295.218 361.057 301.99 366.24C304.879 368.446 307.729 371.503 309.207 375.124C311.206 380 310.712 385.894 304.494 392.114Z" fill="#EA2440"/>
<path d="M304.497 392.114C293.66 402.971 269.14 388.163 253.745 383.103C238.35 378.042 229.201 378.758 226.485 374.206C225.988 373.302 225.613 372.329 225.369 371.315C230.781 371.101 236.667 372.757 241.67 373.829C249.801 375.566 257.803 377.916 265.617 380.86C273.029 383.653 280.43 387.016 288.293 387.418C296.155 387.82 304.799 384.481 308.326 377.051C308.619 376.434 308.907 375.77 309.219 375.119C311.208 380 310.715 385.894 304.497 392.114Z" fill="#EFD1C6"/>
<path d="M76.3745 318.867L77.2404 318.448L40.5537 233.769L39.6878 234.188L76.3745 318.867Z" fill="#EFD1C6"/>
<path d="M67.7864 317.611L68.5411 317.246L36.5825 243.48L35.8278 243.845L67.7864 317.611Z" fill="#EFD1C6"/>
<path d="M92.2104 316.702L93.0763 316.283L53.6437 225.266L52.7779 225.685L92.2104 316.702Z" fill="#EFD1C6"/>
<path d="M83.6323 315.633L84.4982 315.215L47.8115 230.536L46.9456 230.954L83.6323 315.633Z" fill="#EFD1C6"/>
<path d="M104.765 307.862L105.631 307.444L67.1962 218.73L66.3303 219.149L104.765 307.862Z" fill="#EFD1C6"/>
<path d="M98.9448 313.164L99.8107 312.746L58.5993 217.623L57.7334 218.042L98.9448 313.164Z" fill="#EFD1C6"/>
<path d="M118.355 300.515L119.221 300.097L82.5341 215.418L81.6683 215.836L118.355 300.515Z" fill="#EFD1C6"/>
<path d="M111.132 302.624L111.998 302.206L75.3115 217.527L74.4456 217.945L111.132 302.624Z" fill="#EFD1C6"/>
<path d="M118.996 283.553L119.861 283.134L91.8317 218.437L90.9658 218.856L118.996 283.553Z" fill="#EFD1C6"/>
<path d="M33.6605 271.86L34.0568 272.774L107.585 237.233L107.188 236.318L33.6605 271.86Z" fill="#EFD1C6"/>
<path d="M34.8481 262.781L35.1935 263.579L105.029 229.822L104.684 229.024L34.8481 262.781Z" fill="#EFD1C6"/>
<path d="M40.2699 286.373L40.6661 287.287L116.284 250.735L115.888 249.82L40.2699 286.373Z" fill="#EFD1C6"/>
<path d="M36.7152 279.519L37.1115 280.434L112.021 244.225L111.625 243.31L36.7152 279.519Z" fill="#EFD1C6"/>
<path d="M49.8168 299.051L50.213 299.965L120.389 266.044L119.992 265.13L49.8168 299.051Z" fill="#EFD1C6"/>
<path d="M44.5043 293.054L44.9005 293.968L118.921 258.188L118.525 257.274L44.5043 293.054Z" fill="#EFD1C6"/>
<path d="M60.3404 310.036L60.7404 310.952L121.618 281.273L121.218 280.358L60.3404 310.036Z" fill="#EFD1C6"/>
<path d="M55.0277 305.684L55.424 306.599L121.4 274.707L121.004 273.793L55.0277 305.684Z" fill="#EFD1C6"/>
<path d="M67.0941 316.873L67.4904 317.788L120.13 292.343L119.734 291.429L67.0941 316.873Z" fill="#EFD1C6"/>
<path d="M32.223 255.536L32.6193 256.451L94.2639 226.653L93.8677 225.738L32.223 255.536Z" fill="#EFD1C6"/>
<path d="M38.4106 244.038L38.756 244.835L89.5657 220.275L89.2203 219.478L38.4106 244.038Z" fill="#EFD1C6"/>
<path d="M37.7207 286.756C50.268 315.718 78.5536 330.542 100.775 319.802C122.997 309.062 130.871 276.759 118.324 247.797C111.499 232.043 100.015 220.487 87.3843 214.937C87.3843 214.937 60.4474 199.15 44.8935 176.586L41.0431 181.136L36.0998 181.379C42.0945 208.561 34.5827 239.972 34.5827 239.972C30.1028 253.81 30.8037 270.787 37.7207 286.756ZM97.2063 311.563C79.2868 320.223 56.099 307.406 45.5207 282.986C34.9424 258.567 40.9094 231.653 58.8381 222.99C76.7668 214.328 99.9454 227.148 110.517 251.567C121.088 275.987 115.128 302.9 97.2063 311.563ZM43.3188 186.26C51.2894 196.695 60.6895 205.171 68.5909 211.32C59.624 211.784 51.1389 215.745 44.7782 222.438C45.5114 212.168 45.5552 199.282 43.3188 186.26Z" fill="#FF859C"/>
<path d="M47.9708 180.081L36.4881 185.632L0.754094 103.152C0.554091 102.69 0.535891 102.163 0.703507 101.688C0.871121 101.212 1.21082 100.826 1.64786 100.614L9.82438 96.6621C10.2614 96.4509 10.76 96.4317 11.2105 96.6087C11.6609 96.7858 12.0264 97.1446 12.2264 97.6062L47.9603 180.086L47.9708 180.081Z" fill="#EA2440"/>
<path d="M29.3059 168.758L40.6818 163.259L28.1881 134.421L16.8122 139.92L29.3059 168.758Z" fill="#EFD1C6"/>
<path d="M28.3411 166.529L39.7169 161.03L37.9074 156.853L26.5316 162.352L28.3411 166.529Z" fill="#FFF6E6"/>
<path d="M25.2005 159.119L36.5763 153.621L34.7668 149.444L23.391 154.943L25.2005 159.119Z" fill="#FFF6E6"/>
<path d="M21.7981 151.423L33.174 145.924L31.3645 141.748L19.9886 147.247L21.7981 151.423Z" fill="#FFF6E6"/>
<path d="M122.58 126.836C118.89 126.82 115.213 126.366 111.619 125.484C101.638 123.086 94.4486 118.249 94.3772 118.2C94.3377 118.173 94.3036 118.138 94.2768 118.098C94.25 118.057 94.2311 118.011 94.2211 117.962C94.2112 117.914 94.2104 117.864 94.2187 117.815C94.2271 117.766 94.2445 117.72 94.27 117.678C94.2954 117.636 94.3284 117.6 94.367 117.572C94.4056 117.543 94.4491 117.523 94.495 117.513C94.541 117.502 94.5884 117.502 94.6346 117.51C94.6809 117.519 94.725 117.538 94.7645 117.565C94.8337 117.611 101.937 122.384 111.801 124.751C120.876 126.943 134.219 127.46 146.259 117.606C146.296 117.576 146.338 117.553 146.384 117.54C146.429 117.527 146.476 117.524 146.523 117.53C146.569 117.536 146.614 117.552 146.655 117.576C146.696 117.601 146.732 117.634 146.76 117.673C146.789 117.712 146.81 117.757 146.823 117.805C146.835 117.853 146.838 117.902 146.832 117.952C146.827 118.001 146.812 118.048 146.788 118.091C146.765 118.134 146.734 118.172 146.697 118.203C141.413 122.579 135.13 125.407 128.482 126.403C126.527 126.694 124.555 126.839 122.58 126.836Z" fill="#333333"/>
<path d="M196.298 231.523C196.239 231.523 196.18 231.508 196.128 231.478C196.076 231.449 196.031 231.407 195.998 231.355C195.793 231.028 190.96 223.318 189.492 220.473C189.007 219.533 188.477 218.238 187.804 216.599C186.372 213.104 184.412 208.318 181.051 202.315C181.011 202.229 181.003 202.13 181.029 202.039C181.055 201.947 181.113 201.869 181.191 201.82C181.269 201.772 181.362 201.756 181.45 201.776C181.539 201.797 181.617 201.852 181.669 201.93C185.051 207.973 187.022 212.785 188.461 216.299C189.127 217.921 189.651 219.202 190.121 220.113C191.576 222.941 196.547 230.856 196.595 230.936C196.631 230.993 196.652 231.059 196.655 231.127C196.658 231.195 196.644 231.263 196.613 231.323C196.583 231.384 196.537 231.434 196.482 231.469C196.426 231.504 196.363 231.523 196.298 231.523Z" fill="#333333"/>
<path d="M241.412 206.753C240.972 206.811 240.522 206.853 240.07 206.875H239.794C236.107 207.007 232.467 205.97 229.344 203.897C226.221 201.824 223.757 198.81 222.271 195.243C222.068 194.756 221.886 194.269 221.72 193.763C220.712 190.672 220.456 187.363 220.974 184.141C221.492 180.918 222.769 177.885 224.686 175.319C226.604 172.753 229.101 170.737 231.948 169.457C234.795 168.176 237.901 167.671 240.981 167.989C241.389 168.03 241.795 168.086 242.196 168.157C246.922 168.988 251.156 171.727 254.006 175.794C254.319 176.238 254.614 176.7 254.891 177.175C256.51 179.957 257.442 183.125 257.601 186.387C257.759 189.648 257.14 192.9 255.799 195.843C254.458 198.786 252.439 201.326 249.927 203.23C247.415 205.134 244.49 206.341 241.422 206.741L241.412 206.753Z" fill="#34A75B"/>
<path d="M245.505 193.543C244.619 195.837 243.259 197.873 242.242 200.097C241.357 202.045 240.658 204.303 241.302 206.429C241.336 206.538 241.371 206.648 241.408 206.755C240.967 206.814 240.518 206.855 240.066 206.877C239.224 204.546 239.835 201.921 240.757 199.724C242.45 195.752 245.878 191.821 244.506 187.157C243.936 185.313 242.865 183.686 241.428 182.477C239.914 181.171 237.827 180.041 235.823 180.324C233.721 180.609 231.742 182.197 230.336 183.792C229.036 185.265 228.173 187.075 227.311 188.855C226.449 190.635 225.577 192.367 224.235 193.762C223.652 194.367 222.983 194.872 222.252 195.258C222.049 194.771 221.867 194.283 221.701 193.777L221.736 193.76C222.611 193.242 223.373 192.535 223.972 191.685C225.264 189.914 226.07 187.822 227.094 185.884C228.107 183.92 229.505 182.207 231.194 180.86C233.038 179.398 235.284 178.361 237.624 178.809C241.544 179.562 245.002 183.042 246.044 187.077C246.605 189.245 246.296 191.49 245.505 193.543Z" fill="#FFF6E6"/>
<path d="M254.885 177.188C254.02 177.472 253.127 177.649 252.224 177.717C249.056 177.96 245.817 176.782 243.633 174.307C242.093 172.586 241.155 170.361 240.975 168C241.383 168.041 241.789 168.097 242.19 168.168C242.315 168.844 242.515 169.503 242.787 170.13C243.958 172.736 245.837 174.833 248.498 175.698C249.877 176.142 251.33 176.269 252.759 176.068C253.177 176.008 253.592 175.92 253.999 175.805C254.313 176.251 254.608 176.713 254.885 177.188Z" fill="#FFF6E6"/>
<path d="M269.235 364.608C265.316 364.608 261.587 362.903 258.399 361.198C248.176 355.687 239.175 347.95 231.988 338.498C231.958 338.459 231.936 338.415 231.923 338.367C231.91 338.319 231.905 338.269 231.91 338.22C231.915 338.17 231.93 338.123 231.952 338.079C231.975 338.035 232.005 337.997 232.042 337.966C232.078 337.934 232.121 337.911 232.166 337.897C232.211 337.883 232.258 337.879 232.305 337.884C232.352 337.889 232.397 337.904 232.438 337.928C232.48 337.952 232.516 337.984 232.546 338.023C239.67 347.391 248.592 355.06 258.724 360.523C262.132 362.352 266.178 364.177 270.34 363.801C274.05 363.47 278.28 360.76 278.82 356.393C278.832 356.294 278.881 356.203 278.956 356.142C279.032 356.081 279.127 356.054 279.221 356.067C279.315 356.08 279.401 356.131 279.459 356.211C279.517 356.29 279.542 356.391 279.53 356.49C278.942 361.252 274.388 364.198 270.402 364.556C270.015 364.593 269.623 364.608 269.235 364.608Z" fill="#333333"/>
<path d="M285.817 378.054C283.936 378.04 282.062 377.836 280.219 377.442C277.171 376.812 274.18 375.776 271.287 374.763C269.903 374.276 268.471 373.789 267.056 373.346C265.137 372.747 262.905 372.128 260.794 372.559C258.912 372.929 256.86 374.439 256.579 376.609C256.566 376.709 256.516 376.799 256.441 376.86C256.365 376.92 256.269 376.947 256.175 376.933C256.081 376.92 255.996 376.867 255.938 376.787C255.881 376.707 255.856 376.607 255.869 376.507C256.212 373.865 258.594 372.223 260.662 371.814C262.94 371.366 265.273 371.997 267.259 372.623C268.686 373.068 270.12 373.565 271.508 374.045C274.381 375.039 277.353 376.066 280.355 376.687C285.524 377.756 289.962 377.386 293.55 375.591C297.834 373.448 300.697 368.926 300.49 364.591C300.491 364.494 300.527 364.402 300.591 364.332C300.655 364.263 300.741 364.222 300.832 364.217C300.923 364.213 301.013 364.245 301.083 364.307C301.152 364.37 301.197 364.458 301.207 364.554C301.417 369.181 298.394 374.006 293.856 376.276C291.512 377.464 288.816 378.054 285.817 378.054Z" fill="#333333"/>
<path d="M221.361 351.184C221.277 351.186 221.196 351.157 221.13 351.102C221.064 351.047 221.019 350.969 221.002 350.883C220.985 350.796 220.997 350.706 221.036 350.628C221.075 350.549 221.138 350.488 221.216 350.454C224.557 348.888 226.878 345.096 226.858 341.231C226.857 341.181 226.866 341.132 226.884 341.086C226.902 341.04 226.928 340.999 226.961 340.963C226.994 340.928 227.033 340.9 227.076 340.881C227.119 340.861 227.166 340.851 227.213 340.851C227.308 340.851 227.399 340.891 227.466 340.961C227.534 341.032 227.572 341.128 227.572 341.229C227.593 345.381 225.098 349.46 221.504 351.145C221.459 351.169 221.411 351.182 221.361 351.184Z" fill="#333333"/>
<path d="M246.134 373.953C246.049 373.952 245.966 373.92 245.901 373.861C245.837 373.803 245.793 373.722 245.779 373.634C245.009 368.612 241.832 363.79 237.278 360.726C233.294 358.047 228.208 356.586 222.57 356.491C222.523 356.491 222.477 356.481 222.434 356.462C222.39 356.443 222.351 356.415 222.318 356.38C222.285 356.345 222.258 356.304 222.24 356.258C222.222 356.212 222.213 356.163 222.213 356.113C222.213 356.064 222.222 356.015 222.24 355.969C222.258 355.923 222.285 355.881 222.318 355.846C222.351 355.811 222.39 355.784 222.434 355.765C222.477 355.746 222.523 355.736 222.57 355.736C228.335 355.836 233.554 357.341 237.649 360.088C242.374 363.254 245.673 368.273 246.475 373.504C246.483 373.553 246.481 373.603 246.471 373.652C246.46 373.7 246.44 373.746 246.413 373.786C246.385 373.826 246.351 373.86 246.311 373.886C246.271 373.912 246.227 373.93 246.18 373.938L246.134 373.953Z" fill="#333333"/>
<path d="M233.882 371.746C233.798 371.746 233.718 371.715 233.654 371.658C233.59 371.602 233.546 371.524 233.531 371.437C232.609 366.225 228.118 362.053 223.103 361.737C223.056 361.734 223.01 361.721 222.968 361.7C222.926 361.678 222.888 361.648 222.857 361.611C222.826 361.574 222.802 361.53 222.787 361.483C222.772 361.437 222.765 361.387 222.768 361.337C222.775 361.238 222.818 361.145 222.889 361.078C222.96 361.012 223.052 360.977 223.147 360.982C228.477 361.32 233.245 365.753 234.234 371.298C234.243 371.347 234.243 371.397 234.233 371.446C234.223 371.494 234.205 371.54 234.178 371.581C234.151 371.622 234.118 371.657 234.078 371.684C234.039 371.711 233.995 371.73 233.949 371.739C233.927 371.744 233.904 371.746 233.882 371.746Z" fill="#333333"/>
<path d="M266.288 366.026C266.238 366.026 266.188 366.015 266.142 365.994C266.059 365.953 265.993 365.88 265.96 365.789C265.926 365.698 265.927 365.597 265.962 365.507C268.133 360.366 270.883 355.521 274.154 351.077C266.523 352.051 259.859 357.258 255.444 361.143C255.382 361.196 255.304 361.226 255.224 361.228C255.144 361.229 255.065 361.203 255.001 361.152C254.937 361.101 254.891 361.028 254.87 360.946C254.849 360.865 254.855 360.778 254.886 360.7C257.115 355.362 259.792 350.246 262.884 345.413C258.753 348.523 254.4 351.411 250.173 354.214C249.058 354.954 247.945 355.696 246.835 356.438C246.776 356.477 246.708 356.497 246.638 356.496C246.569 356.495 246.501 356.473 246.444 356.432C246.386 356.392 246.34 356.334 246.313 356.267C246.285 356.199 246.277 356.125 246.288 356.053C246.955 351.969 249.473 348.659 251.91 345.459C254.123 342.551 256.41 339.546 257.263 335.993C257.313 335.843 257.325 335.683 257.3 335.527C257.289 335.491 257.271 335.459 257.246 335.432C257.221 335.405 257.191 335.384 257.157 335.371C256.927 335.274 256.443 335.371 256.046 335.615C252.561 337.632 249.33 340.104 246.429 342.972C245.871 343.523 245.315 344.098 244.778 344.658C243.18 346.311 241.53 348.023 239.604 349.326C239.565 349.353 239.521 349.372 239.474 349.38C239.428 349.389 239.381 349.388 239.335 349.378C239.289 349.367 239.245 349.347 239.207 349.319C239.168 349.291 239.135 349.255 239.11 349.213C239.084 349.171 239.067 349.125 239.059 349.076C239.05 349.027 239.051 348.977 239.061 348.928C239.071 348.88 239.09 348.834 239.117 348.793C239.143 348.752 239.177 348.718 239.217 348.691C241.08 347.429 242.705 345.746 244.276 344.117C244.817 343.554 245.375 342.975 245.94 342.412C248.885 339.5 252.165 336.991 255.702 334.943C256.163 334.68 256.878 334.456 257.413 334.668C257.545 334.718 257.665 334.799 257.763 334.905C257.861 335.012 257.934 335.14 257.978 335.281C258.056 335.576 258.049 335.889 257.957 336.18C257.067 339.892 254.729 342.965 252.468 345.936C250.162 348.961 247.983 351.83 247.165 355.322L249.791 353.576C254.593 350.391 259.557 347.095 264.162 343.501C264.23 343.447 264.314 343.421 264.399 343.427C264.484 343.433 264.564 343.471 264.625 343.534C264.686 343.596 264.724 343.68 264.731 343.77C264.739 343.859 264.716 343.949 264.667 344.022C261.386 348.906 258.54 354.1 256.166 359.538C260.793 355.605 267.413 350.892 274.927 350.235C274.997 350.228 275.067 350.244 275.129 350.279C275.19 350.314 275.241 350.368 275.274 350.433C275.307 350.499 275.321 350.573 275.314 350.647C275.307 350.721 275.28 350.791 275.236 350.848C271.773 355.431 268.875 360.459 266.61 365.811C266.581 365.876 266.536 365.93 266.479 365.968C266.421 366.006 266.355 366.026 266.288 366.026Z" fill="#EFD1C6"/>
<path d="M236.116 356.97C235.357 356.974 234.603 356.836 233.889 356.564C232.72 356.115 231.302 355.005 231.145 353.354C231.109 352.626 231.233 351.899 231.509 351.23C234.218 343.78 242.509 341.286 245.949 340.561L246.238 340.5C247.16 340.307 248.121 340.108 248.908 339.608C249.039 339.525 249.166 339.434 249.288 339.336C250.969 335.782 252.182 331.927 253.358 328.191C253.724 327.03 254.1 325.831 254.487 324.66C255.124 322.726 255.843 320.534 257.381 318.978C258.919 317.422 261.531 316.718 263.304 318.153C264.362 319.007 264.962 320.527 264.918 322.217C264.826 325.05 263.053 327.855 259.793 330.33C259.119 330.841 258.409 331.333 257.717 331.808C255.873 333.089 253.962 334.414 252.592 336.235C252.308 336.61 252.036 337.024 251.776 337.424C251.211 338.279 250.623 339.155 249.86 339.825L249.664 340.229C249 341.579 248.396 343.059 247.819 344.494C246.457 347.835 245.053 351.289 242.652 353.86C241.048 355.582 238.604 356.97 236.116 356.97ZM248.693 340.573C247.95 340.883 247.177 341.107 246.388 341.243L246.102 341.301C242.779 342.005 234.772 344.404 232.189 351.503C231.957 352.061 231.847 352.668 231.869 353.278C231.993 354.581 233.172 355.47 234.145 355.852C237.017 356.956 240.231 355.38 242.143 353.329C244.449 350.86 245.832 347.47 247.162 344.194C247.642 342.989 248.161 341.749 248.693 340.573ZM261.028 318.128C259.85 318.164 258.727 318.662 257.877 319.524C256.463 320.956 255.774 323.055 255.163 324.908C254.78 326.075 254.402 327.271 254.038 328.43C253.115 331.387 252.152 334.421 250.96 337.331L251.19 336.99C251.46 336.581 251.739 336.16 252.036 335.773C253.477 333.858 255.435 332.499 257.339 331.184C258.031 330.714 258.723 330.227 259.382 329.723C261.524 328.096 264.102 325.471 264.21 322.198C264.256 320.751 263.763 319.468 262.887 318.761C262.352 318.336 261.698 318.113 261.028 318.128Z" fill="#EFD1C6"/>
<path d="M177.184 240.167H177.136C177.042 240.153 176.957 240.1 176.9 240.02C176.842 239.941 176.817 239.84 176.829 239.741L177.45 235.077C177.463 234.977 177.513 234.887 177.589 234.827C177.665 234.766 177.76 234.74 177.854 234.754C177.948 234.768 178.034 234.821 178.091 234.901C178.148 234.981 178.173 235.082 178.16 235.182L177.54 239.845C177.526 239.935 177.483 240.016 177.418 240.075C177.353 240.134 177.27 240.167 177.184 240.167Z" fill="#333333"/>
<path d="M182.885 250.31C182.813 250.309 182.742 250.286 182.682 250.244C181.688 249.507 180.998 248.397 180.752 247.141C180.752 247.053 180.78 246.968 180.833 246.899C180.885 246.831 180.958 246.784 181.04 246.766C181.122 246.749 181.207 246.762 181.28 246.803C181.354 246.844 181.412 246.911 181.444 246.993C181.651 248.057 182.236 248.997 183.078 249.62C183.142 249.666 183.19 249.732 183.215 249.809C183.24 249.885 183.241 249.968 183.218 250.045C183.195 250.123 183.149 250.19 183.087 250.238C183.025 250.285 182.95 250.31 182.873 250.31H182.885Z" fill="#333333"/>
<path d="M107.675 81.6599C102.926 81.8328 101.127 75.2037 101.127 75.2037C90.8947 83.3136 69.9202 89.933 69.9202 89.933C66.5747 95.32 58.7563 104.08 51.7056 111.574C47.5555 115.982 43.6566 119.949 41.0997 122.533C39.1952 124.45 38.0239 125.604 38.0239 125.604L22.7052 117.791C22.7052 117.791 23.5376 116.026 24.9509 113.164C26.5533 109.915 28.9028 105.254 31.6258 100.171C34.6646 94.5212 38.1415 88.3475 41.5815 83.014C50.8041 68.6622 58.2675 66.5021 65.1291 64.3784C70.4759 62.7175 90.8509 51.522 90.8509 51.522C98.056 41.6391 114.659 35.4313 119.63 41.2738C124.981 47.5644 115.593 81.3725 107.675 81.6599Z" fill="#7C4E59"/>
<path d="M26.3218 113.057C24.219 115.553 13.5208 122.976 9.37299 127.145C5.22513 131.315 3.92244 137.488 3.23305 140.253C1.6583 146.585 5.39575 146.217 5.39575 146.217C5.39575 146.217 6.57394 153.206 11.2659 151.195C11.2659 151.195 12.9421 158.84 18.7039 155.615C18.7039 155.615 21.0672 160.05 24.9776 158.401C28.888 156.752 29.3583 147.021 31.053 145.284L34.3823 148.119C34.3823 148.119 43.3743 138.587 36.688 121.468C31.2674 107.618 26.3218 113.057 26.3218 113.057Z" fill="#7C4E59"/>
<path d="M100.348 75.6514C103.267 74.0805 109.693 70.71 109.693 70.71L100.143 83.4665L100.348 75.6514Z" fill="#333333"/>
<path d="M51.692 111.573C50.3686 112.976 49.0728 114.333 47.837 115.616C46.8732 116.62 45.9463 117.579 45.0702 118.475C43.5485 120.036 42.1904 121.415 41.0791 122.533C36.0377 118.8 30.6258 115.659 24.9396 113.166C25.6313 111.763 26.4636 110.095 27.4043 108.247C27.9923 107.09 28.624 105.858 29.2904 104.577C30.0259 103.162 30.8029 101.686 31.6145 100.173C42.3334 102.48 48.7846 108.291 51.692 111.573Z" fill="#EFD1C6"/>
<path d="M94.5623 61.2653C94.4772 61.2654 94.3949 61.2337 94.3298 61.1757C94.2648 61.1178 94.2214 61.0373 94.2072 60.9487L93.089 53.8617C93.0813 53.8128 93.0827 53.7627 93.0933 53.7144C93.1039 53.6661 93.1234 53.6204 93.1507 53.5801C93.178 53.5397 93.2126 53.5054 93.2524 53.4791C93.2923 53.4529 93.3366 53.4352 93.3829 53.427C93.4293 53.4189 93.4767 53.4204 93.5224 53.4316C93.5682 53.4428 93.6114 53.4634 93.6496 53.4922C93.6878 53.5211 93.7203 53.5576 93.7451 53.5997C93.77 53.6418 93.7868 53.6886 93.7945 53.7375L94.915 60.8245C94.9226 60.8735 94.921 60.9235 94.9103 60.9718C94.8995 61.02 94.8799 61.0656 94.8525 61.1058C94.8251 61.1461 94.7905 61.1803 94.7505 61.2064C94.7106 61.2325 94.6663 61.25 94.6199 61.258C94.6011 61.2628 94.5817 61.2653 94.5623 61.2653Z" fill="#333333"/>
<path d="M92.019 61.265C91.9385 61.2641 91.8605 61.2349 91.7974 61.182C91.7344 61.1291 91.6898 61.0554 91.6709 60.9727L90.9446 57.7044C90.9379 57.6141 90.962 57.5242 91.0126 57.451C91.0632 57.3777 91.1368 57.326 91.2203 57.3051C91.3038 57.2843 91.3916 57.2956 91.4679 57.3371C91.5442 57.3786 91.6039 57.4476 91.6363 57.5315L92.3626 60.7998C92.384 60.8977 92.3679 61.0005 92.3178 61.0858C92.2677 61.1712 92.1876 61.2321 92.0951 61.2552C92.07 61.2605 92.0446 61.2638 92.019 61.265Z" fill="#333333"/>
<path d="M68.6745 81.6207C68.6158 81.6214 68.5579 81.6067 68.5059 81.5777C68.454 81.5488 68.4097 81.5067 68.3771 81.4551C66.3356 78.2946 63.3148 75.9848 59.8347 74.9234C59.7893 74.91 59.7468 74.8872 59.7097 74.8564C59.6726 74.8257 59.6416 74.7875 59.6185 74.7441C59.5954 74.7006 59.5806 74.6528 59.575 74.6034C59.5693 74.5539 59.573 74.5037 59.5857 74.4558C59.5984 74.4078 59.6199 74.3629 59.6491 74.3238C59.6782 74.2846 59.7144 74.2519 59.7555 74.2274C59.7966 74.203 59.8418 74.1874 59.8887 74.1814C59.9355 74.1755 59.983 74.1793 60.0284 74.1928C63.6715 75.3035 66.8341 77.7209 68.972 81.0289C69.0085 81.0858 69.0296 81.1521 69.0331 81.2208C69.0365 81.2894 69.0222 81.3577 68.9916 81.4184C68.961 81.479 68.9153 81.5297 68.8594 81.5649C68.8035 81.6001 68.7396 81.6186 68.6745 81.6183V81.6207Z" fill="#333333"/>
<path d="M47.838 115.616C46.8742 116.619 45.9473 117.579 45.0712 118.475C37.7715 111.877 30.6171 109.191 27.4123 108.246C28.0002 107.089 28.6319 105.857 29.2983 104.576C33.2248 105.833 40.4737 108.877 47.838 115.616Z" fill="#3F7FEF"/>
<path d="M18.6614 156.038H18.6315C18.5368 156.03 18.4492 155.982 18.3879 155.905C18.3265 155.828 18.2964 155.729 18.3041 155.629C18.6891 150.758 20.6097 143.421 20.6282 143.348C20.6584 143.257 20.7202 143.181 20.8009 143.137C20.8817 143.092 20.9755 143.082 21.0634 143.108C21.1512 143.133 21.2265 143.193 21.2741 143.275C21.3218 143.357 21.3381 143.455 21.3198 143.55C21.2991 143.623 19.3969 150.9 19.0142 155.693C19.0062 155.786 18.9658 155.873 18.9006 155.937C18.8355 156.001 18.7503 156.037 18.6614 156.038Z" fill="#333333"/>
<path d="M11.3361 151.56C11.2889 151.56 11.2423 151.551 11.1988 151.531C11.1552 151.512 11.1157 151.484 11.0825 151.449C11.0493 151.414 11.023 151.372 11.0052 151.326C10.9874 151.28 10.9784 151.23 10.9787 151.18C10.9787 148.326 12.648 139.861 12.7194 139.491C12.7228 139.436 12.7371 139.384 12.7614 139.336C12.7858 139.288 12.8195 139.247 12.8604 139.214C12.9013 139.181 12.9484 139.158 12.9985 139.147C13.0486 139.135 13.1005 139.135 13.1506 139.146C13.2008 139.157 13.2481 139.18 13.2892 139.212C13.3304 139.245 13.3645 139.286 13.3892 139.333C13.4139 139.381 13.4287 139.433 13.4325 139.487C13.4362 139.541 13.429 139.596 13.4111 139.646C13.395 139.734 11.6842 148.394 11.6842 151.171C11.6857 151.22 11.6779 151.27 11.6612 151.317C11.6445 151.363 11.6193 151.406 11.5869 151.442C11.5546 151.478 11.5157 151.507 11.4727 151.528C11.4296 151.548 11.3832 151.559 11.3361 151.56Z" fill="#333333"/>
<path d="M5.36106 146.675H5.32878C5.28178 146.67 5.23605 146.656 5.19422 146.633C5.15239 146.61 5.11529 146.579 5.08507 146.54C5.05485 146.502 5.0321 146.458 5.01813 146.41C5.00416 146.363 4.99925 146.313 5.00369 146.263C5.03597 145.903 5.80605 137.376 7.57909 134.875C7.63849 134.802 7.72221 134.755 7.81319 134.744C7.90417 134.733 7.99556 134.76 8.06875 134.818C8.14194 134.876 8.19143 134.961 8.20712 135.057C8.22281 135.152 8.20352 135.25 8.1532 135.33C6.49774 137.659 5.72535 146.246 5.71844 146.334C5.70882 146.427 5.66711 146.513 5.60121 146.576C5.53532 146.639 5.44985 146.674 5.36106 146.675Z" fill="#333333"/>
<path d="M25.5028 132.718C25.4337 132.718 25.3659 132.697 25.3076 132.658C25.2494 132.619 25.2032 132.562 25.1746 132.496C25.1461 132.429 25.1364 132.356 25.1468 132.283C25.1571 132.211 25.1871 132.144 25.2331 132.089C25.5933 131.652 25.8887 131.159 26.1092 130.628C26.1258 130.579 26.1517 130.534 26.1855 130.496C26.2193 130.458 26.2601 130.427 26.3054 130.407C26.3508 130.386 26.3997 130.375 26.4491 130.375C26.4984 130.376 26.5473 130.387 26.5925 130.407C26.6378 130.428 26.6784 130.459 26.712 130.497C26.7455 130.536 26.7713 130.581 26.7876 130.63C26.8039 130.679 26.8104 130.732 26.8067 130.784C26.8031 130.836 26.7893 130.886 26.7663 130.932C26.5151 131.533 26.1801 132.09 25.7726 132.586C25.7391 132.627 25.6977 132.66 25.6512 132.683C25.6046 132.705 25.5541 132.717 25.5028 132.718Z" fill="#333333"/>
<path d="M20.4066 130.44C20.3706 130.44 20.3349 130.434 20.3006 130.423C20.256 130.408 20.2147 130.384 20.1789 130.352C20.1432 130.32 20.1138 130.281 20.0923 130.237C20.0709 130.193 20.0579 130.145 20.0541 130.096C20.0502 130.047 20.0557 129.997 20.07 129.95C20.1932 129.537 20.4069 129.161 20.6937 128.852C20.9806 128.542 21.3325 128.309 21.7208 128.17C21.8107 128.138 21.9091 128.144 21.9943 128.189C22.0794 128.233 22.1445 128.311 22.175 128.406C22.2056 128.501 22.1992 128.605 22.1573 128.695C22.1153 128.785 22.0413 128.854 21.9514 128.886C21.671 128.986 21.417 129.155 21.2099 129.379C21.0028 129.602 20.8484 129.874 20.7594 130.172C20.7363 130.251 20.6893 130.32 20.6256 130.369C20.5619 130.417 20.485 130.442 20.4066 130.44Z" fill="#333333"/>
<path d="M16.8031 128.604C16.7363 128.603 16.671 128.583 16.6146 128.545C16.5582 128.507 16.5128 128.454 16.4836 128.39C16.4544 128.327 16.4425 128.256 16.4493 128.186C16.456 128.115 16.4811 128.049 16.5218 127.993C16.8888 127.5 17.3055 127.051 17.7646 126.653C17.8009 126.621 17.8428 126.597 17.888 126.582C17.9331 126.567 17.9806 126.562 18.0277 126.567C18.0748 126.571 18.1206 126.585 18.1625 126.609C18.2044 126.632 18.2415 126.663 18.2718 126.702C18.3021 126.74 18.3249 126.785 18.339 126.832C18.353 126.88 18.3581 126.93 18.3538 126.98C18.3495 127.03 18.336 127.078 18.314 127.122C18.292 127.166 18.262 127.206 18.2257 127.238C17.8066 127.598 17.4269 128.006 17.0936 128.455C17.0594 128.502 17.0153 128.54 16.9649 128.566C16.9145 128.591 16.8591 128.605 16.8031 128.604Z" fill="#333333"/>
<path d="M146.571 12.8596C147.074 13.5049 147.159 14.333 147.113 15.1464C147.058 16.1205 146.53 16.7854 145.949 17.5087C145.199 18.4439 144.053 20.2266 145.317 21.23C145.37 21.2706 145.43 21.298 145.495 21.3101C145.559 21.3223 145.625 21.3188 145.688 21.3001C145.751 21.2813 145.809 21.2477 145.857 21.2018C145.906 21.1559 145.944 21.099 145.969 21.0352C146.255 20.1122 146.343 19.3694 146.945 18.5876C147.5 17.857 148.097 17.1897 148.312 16.2594C148.683 14.6983 147.989 13.4708 146.788 12.6063C146.656 12.5137 146.47 12.7183 146.571 12.8498V12.8596Z" fill="#333333"/>
<path d="M152.392 163.288C152.298 163.287 152.208 163.249 152.141 163.181C151.636 162.662 139.741 150.468 138.57 147.375C137.357 144.173 139.231 141.18 139.31 141.043C139.334 140.998 139.367 140.959 139.407 140.927C139.447 140.896 139.492 140.874 139.54 140.862C139.588 140.851 139.638 140.849 139.687 140.859C139.735 140.868 139.782 140.888 139.823 140.917C139.864 140.947 139.898 140.984 139.925 141.028C139.951 141.073 139.969 141.122 139.977 141.173C139.985 141.225 139.982 141.278 139.97 141.328C139.957 141.379 139.935 141.426 139.904 141.467C139.888 141.494 138.164 144.26 139.234 147.085C140.349 150.03 152.516 162.501 152.641 162.628C152.708 162.699 152.745 162.795 152.745 162.895C152.745 162.995 152.708 163.091 152.641 163.161C152.61 163.199 152.571 163.23 152.529 163.252C152.486 163.274 152.439 163.286 152.392 163.288Z" fill="#333333"/>
<path d="M149.89 46.8844C156.249 48.7158 161.649 53.8034 162.995 59.0979C164.342 64.3924 159.719 75.3809 159.719 77.2172C159.719 79.0535 161.644 81.9005 159.91 82.9185C158.177 83.9365 153.551 84.7499 153.551 84.7499L147.577 99.8128C147.577 99.8128 150.084 101.237 150.084 103.069C150.084 104.9 147.577 107.141 147.577 107.141C147.577 107.141 149.505 108.359 149.696 109.99C149.888 111.622 152.396 120.567 152.396 120.567C152.396 120.567 123.873 163.111 83.2131 143.367C83.2131 143.367 89.7635 109.372 92.076 102.859C94.3886 96.3472 95.5345 81.4865 95.5345 81.4865L89.1755 85.3539C89.1755 85.3539 90.5243 79.6526 89.7519 76.3965C88.9795 73.1404 85.7055 68.0504 83.778 65.1937C81.8505 62.337 77.2277 56.8476 74.1427 56.8476C74.1427 56.8476 84.3567 52.3689 85.1268 52.1668C85.8969 51.9647 86.6693 48.0948 88.2118 47.6881C89.7542 47.2814 92.6432 47.6881 93.8006 46.8747C94.9581 46.0612 104.603 37.927 114.438 37.5203C124.274 37.1136 132.167 41.1734 132.167 41.1734L149.89 46.8844Z" fill="white"/>
<path d="M136.02 30.0654L132.935 39.8362L125.787 38.9449C125.787 38.9449 136.061 54.076 144.094 51.0536C148.396 49.4317 149.886 46.9597 149.886 46.9597L144.675 44.3393L145.378 41.5946L136.02 30.0654Z" fill="#8C6060"/>
<path d="M150.333 39.9043L146.568 40.7519C145.781 41.8234 143.519 45.742 141.034 45.1356C138.452 44.5072 136.001 40.3622 136.522 35.1797L150.333 39.9043Z" fill="#333333"/>
<path d="M154.593 22.6813L154.727 27.8662C154.669 35.4598 152.788 38.7208 150.323 40.674C149.552 41.2905 148.674 41.7394 147.738 41.9948C146.802 42.2503 145.827 42.3071 144.87 42.162C136.24 40.8712 135.166 32.3717 135.166 32.3717C135.166 32.3717 134.663 32.7492 133.321 32.8905C130.022 31.8359 128.643 26.1566 131.299 24.6101C133.24 23.4777 134.721 24.632 135.565 25.6744C136.558 26.2418 136.079 23.183 136.132 22.562C143.279 20.1266 146.738 15.1097 147.51 14.7882C147.372 14.7492 153.964 15.38 154.593 22.6813Z" fill="#8C6060"/>
<path d="M134.303 30.5304C134.211 30.5304 134.122 30.4927 134.055 30.425C133.989 30.3574 133.95 30.2651 133.946 30.1675C133.93 29.6975 133.893 29.225 133.838 28.7623C133.801 28.2767 133.685 27.8015 133.496 27.3571C133.414 27.1629 133.294 26.9888 133.145 26.8455C132.996 26.7022 132.82 26.5928 132.629 26.5241C132.465 26.4713 132.29 26.4749 132.128 26.5344C131.966 26.594 131.826 26.7064 131.728 26.8554C131.678 26.9355 131.601 26.9925 131.512 27.0149C131.424 27.0373 131.331 27.0236 131.251 26.9763C131.172 26.9291 131.113 26.8519 131.085 26.7603C131.058 26.6687 131.064 26.5696 131.103 26.4827C131.28 26.1872 131.544 25.9604 131.853 25.8365C132.163 25.7126 132.503 25.6984 132.821 25.796C133.108 25.892 133.373 26.0497 133.599 26.2593C133.825 26.4689 134.008 26.7258 134.135 27.0137C134.361 27.5349 134.501 28.0935 134.548 28.6649C134.605 29.1519 134.645 29.639 134.661 30.1261C134.663 30.1757 134.655 30.2252 134.639 30.2717C134.623 30.3183 134.598 30.361 134.566 30.3974C134.534 30.4338 134.496 30.4632 134.453 30.4839C134.41 30.5047 134.364 30.5163 134.317 30.5182L134.303 30.5304Z" fill="#333333"/>
<path d="M132.508 29.5151C132.469 29.5144 132.43 29.5078 132.393 29.4956C132.347 29.4799 132.305 29.4548 132.268 29.4217C132.232 29.3887 132.202 29.3483 132.181 29.303C132.159 29.2577 132.147 29.2083 132.144 29.1577C132.14 29.1072 132.147 29.0565 132.162 29.0085C132.31 28.5898 132.597 28.2423 132.969 28.0307C133.342 27.8192 133.774 27.7581 134.186 27.859C134.277 27.8852 134.354 27.9481 134.401 28.034C134.448 28.1199 134.462 28.222 134.438 28.3181C134.414 28.4142 134.356 28.4965 134.275 28.5474C134.194 28.5982 134.098 28.6134 134.007 28.5896C133.769 28.5376 133.523 28.5755 133.309 28.6967C133.096 28.8178 132.93 29.0144 132.84 29.252C132.817 29.3267 132.773 29.3922 132.713 29.4393C132.654 29.4864 132.582 29.5128 132.508 29.5151Z" fill="#333333"/>
<path d="M146.183 36.8014C146.106 36.8014 146.03 36.7749 145.969 36.7259C145.893 36.665 145.843 36.5752 145.83 36.4759C145.817 36.3766 145.841 36.2757 145.897 36.195L146.589 35.2208C146.646 35.1407 146.73 35.0878 146.824 35.0736C146.918 35.0595 147.013 35.0853 147.089 35.1453C147.165 35.2054 147.215 35.2948 147.228 35.3939C147.242 35.493 147.217 35.5937 147.161 35.6738L146.469 36.648C146.436 36.6953 146.393 36.7338 146.343 36.7605C146.293 36.7871 146.239 36.8011 146.183 36.8014Z" fill="#333333"/>
<path d="M147.666 30.9982C147.975 30.9719 148.285 31.0254 148.57 31.154C148.717 31.2443 148.829 31.3861 148.888 31.5547C148.946 31.7233 148.946 31.9082 148.888 32.0771C148.709 32.7663 148.033 33.341 147.189 33.5821C146.309 33.8163 145.382 33.7559 144.535 33.4092C143.802 33.1072 143.175 32.5495 143.152 31.9163C143.069 30.4429 146.507 30.9933 147.666 30.9982Z" fill="white"/>
<path d="M151.188 26.0445C151.291 26.537 151.343 27.0402 151.34 27.5447C151.338 27.7073 151.278 27.8631 151.17 27.9797C151.063 28.0963 150.918 28.1648 150.764 28.1711C150.61 28.1773 150.46 28.1208 150.344 28.0133C150.229 27.9058 150.157 27.7554 150.143 27.5934C150.09 27.0933 150.09 26.5885 150.143 26.0884C150.206 25.5355 151.066 25.5136 151.179 26.0445H151.188Z" fill="#333333"/>
<path d="M140.6 26.0445C140.496 26.537 140.445 27.0402 140.447 27.5447C140.449 27.7073 140.51 27.8631 140.617 27.9797C140.724 28.0963 140.87 28.1648 141.024 28.1711C141.178 28.1773 141.328 28.1208 141.443 28.0133C141.559 27.9058 141.631 27.7554 141.644 27.5934C141.697 27.0933 141.697 26.5885 141.644 26.0884C141.582 25.5355 140.722 25.5136 140.609 26.0445H140.6Z" fill="#333333"/>
<path d="M146.446 29.8146C146.366 29.8156 146.289 29.7887 146.226 29.7381C146.163 29.6875 146.117 29.6161 146.096 29.5352C146.076 29.4543 146.081 29.3684 146.112 29.2911C146.143 29.2138 146.197 29.1495 146.266 29.1084C146.491 28.9861 146.7 28.832 146.886 28.6505C146.953 28.5837 147.007 28.5029 147.043 28.4132C147.079 28.3235 147.097 28.2268 147.096 28.1293C147.082 28.0367 147.04 27.9513 146.976 27.8856C146.913 27.8199 146.831 27.7773 146.743 27.764C146.696 27.76 146.651 27.7463 146.609 27.7237C146.567 27.7011 146.53 27.6701 146.5 27.6323C146.469 27.5945 146.446 27.5508 146.432 27.5036C146.417 27.4564 146.412 27.4067 146.416 27.3573C146.42 27.3079 146.433 27.2598 146.454 27.2156C146.475 27.1715 146.505 27.1323 146.541 27.1002C146.576 27.0681 146.618 27.0437 146.662 27.0285C146.707 27.0133 146.754 27.0075 146.801 27.0115C147.054 27.0393 147.292 27.1565 147.475 27.3443C147.657 27.5321 147.775 27.7795 147.808 28.0465C147.823 28.2538 147.794 28.4618 147.724 28.6561C147.655 28.8504 147.546 29.0264 147.405 29.1717C147.173 29.4085 146.91 29.6086 146.623 29.7659C146.569 29.797 146.508 29.8137 146.446 29.8146Z" fill="#333333"/>
<path d="M140.331 24.5856C140.251 24.5864 140.172 24.5581 140.108 24.5054C140.044 24.4527 139.999 24.3787 139.981 24.2955C139.962 24.2124 139.97 24.1249 140.005 24.0475C140.039 23.9701 140.098 23.9074 140.17 23.8696C140.785 23.5451 141.483 23.4441 142.158 23.5822C142.251 23.6016 142.333 23.6593 142.386 23.7426C142.439 23.826 142.458 23.9282 142.44 24.0267C142.422 24.1252 142.367 24.2119 142.288 24.2679C142.209 24.3238 142.112 24.3444 142.019 24.325C141.501 24.2182 140.963 24.2952 140.491 24.5442C140.442 24.5718 140.387 24.586 140.331 24.5856Z" fill="#333333"/>
<path d="M149.82 24.5541C149.748 24.553 149.678 24.5292 149.619 24.4858C149.56 24.4425 149.514 24.3814 149.488 24.3106C149.454 24.2185 149.455 24.1158 149.491 24.0247C149.528 23.9336 149.597 23.8613 149.684 23.8235C150.436 23.4992 151.27 23.4512 152.052 23.6871C152.143 23.7149 152.221 23.78 152.267 23.8681C152.313 23.9563 152.325 24.0603 152.298 24.1571C152.272 24.254 152.21 24.3359 152.127 24.3848C152.044 24.4336 151.945 24.4455 151.853 24.4177C151.227 24.2279 150.559 24.2666 149.956 24.5273C149.913 24.5453 149.866 24.5544 149.82 24.5541Z" fill="#333333"/>
<path d="M94.4665 82.9065C94.398 82.9055 94.3311 82.884 94.2738 82.8443C94.2165 82.8046 94.1712 82.7484 94.1431 82.6824C94.115 82.6164 94.1053 82.5433 94.1152 82.4716C94.1251 82.4 94.1542 82.3329 94.199 82.2782C95.4164 80.8169 97.0534 79.9085 98.6374 79.0269C99.3752 78.6153 100.136 78.1916 100.839 77.7191C104.157 75.4931 106.603 71.8936 108.738 68.7081C108.764 68.6634 108.798 68.6247 108.839 68.5945C108.879 68.5643 108.925 68.5432 108.974 68.5327C109.022 68.5221 109.072 68.5223 109.121 68.5332C109.169 68.544 109.215 68.5654 109.255 68.5958C109.296 68.6263 109.33 68.6652 109.355 68.7102C109.38 68.7551 109.397 68.8052 109.403 68.8571C109.409 68.909 109.405 68.9618 109.391 69.012C109.377 69.0622 109.354 69.1088 109.322 69.149C107.136 72.3807 104.657 76.0411 101.222 78.3499C100.496 78.8369 99.721 79.268 98.9717 79.6869C97.3739 80.5758 95.866 81.416 94.7362 82.7701C94.7029 82.8116 94.6616 82.8452 94.6151 82.8687C94.5686 82.8922 94.518 82.9051 94.4665 82.9065Z" fill="#333333"/>
<path d="M110.594 48.0307C110.516 48.0315 110.441 48.0058 110.378 47.9574C110.316 47.909 110.27 47.8405 110.248 47.7622C110.225 47.684 110.228 47.6002 110.254 47.5234C110.281 47.4466 110.33 47.3811 110.395 47.3366C114.115 44.7651 118.47 43.4097 122.915 43.4399C123.01 43.4399 123.101 43.4797 123.168 43.5505C123.235 43.6213 123.272 43.7173 123.272 43.8174C123.272 43.9175 123.235 44.0136 123.168 44.0844C123.101 44.1551 123.01 44.1949 122.915 44.1949C118.612 44.1648 114.396 45.4781 110.797 47.9698C110.737 48.012 110.666 48.0333 110.594 48.0307Z" fill="#333333"/>
<path d="M105.076 54.3046C105.009 54.3044 104.944 54.2847 104.887 54.2478C104.831 54.2108 104.785 54.1579 104.755 54.0951C103.699 51.8833 102.003 50.0849 99.9133 48.9613C99.8286 48.9161 99.7644 48.8372 99.7348 48.742C99.7052 48.6468 99.7126 48.543 99.7554 48.4536C99.7982 48.3641 99.8729 48.2963 99.963 48.265C100.053 48.2337 100.151 48.2415 100.236 48.2867C102.46 49.4849 104.265 51.401 105.387 53.7566C105.408 53.8008 105.421 53.8491 105.425 53.8986C105.428 53.9481 105.422 53.9979 105.408 54.045C105.393 54.0921 105.369 54.1357 105.338 54.1731C105.308 54.2106 105.27 54.2412 105.228 54.2632C105.181 54.2896 105.129 54.3038 105.076 54.3046Z" fill="#333333"/>
<path d="M153.227 84.9177C153.172 84.9179 153.118 84.9045 153.07 84.8788C153.028 84.8572 152.99 84.827 152.959 84.7899C152.928 84.7529 152.904 84.7096 152.888 84.6628C152.873 84.6159 152.867 84.5663 152.87 84.5168C152.873 84.4674 152.885 84.419 152.906 84.3746C154.641 80.6375 155.84 76.6485 156.464 72.5386C156.479 72.4395 156.53 72.3507 156.607 72.2918C156.684 72.2328 156.78 72.2086 156.874 72.2245C156.968 72.2403 157.052 72.2948 157.108 72.3761C157.164 72.4574 157.187 72.5588 157.172 72.658C156.536 76.8413 155.315 80.9016 153.549 84.7058C153.52 84.7695 153.474 84.823 153.417 84.8605C153.36 84.8979 153.294 84.9178 153.227 84.9177Z" fill="#333333"/>
<path d="M115.739 111.656C115.646 111.659 115.556 111.625 115.488 111.559C115.419 111.494 115.377 111.403 115.37 111.306C115.364 111.208 115.393 111.112 115.452 111.037C115.512 110.962 115.596 110.914 115.688 110.903C120.004 110.224 124.258 108.811 128.369 107.445C131.101 106.539 133.923 105.602 136.755 104.881C138.17 104.52 139.807 104.182 141.301 104.737C141.348 104.751 141.391 104.775 141.429 104.807C141.467 104.84 141.498 104.88 141.52 104.925C141.542 104.97 141.556 105.02 141.56 105.071C141.563 105.122 141.557 105.174 141.542 105.222C141.526 105.27 141.501 105.315 141.469 105.353C141.436 105.391 141.397 105.422 141.353 105.443C141.309 105.464 141.261 105.476 141.212 105.477C141.164 105.479 141.116 105.47 141.071 105.451C139.763 104.964 138.304 105.265 136.921 105.616C134.115 106.33 131.304 107.265 128.586 108.166C124.436 109.542 120.163 110.964 115.789 111.651L115.739 111.656Z" fill="#333333"/>
<path d="M104.644 129.395C104.565 129.394 104.489 129.366 104.426 129.315C104.364 129.264 104.319 129.193 104.299 129.112C104.279 129.032 104.284 128.946 104.315 128.869C104.345 128.792 104.398 128.728 104.467 128.686C108.543 126.241 112.369 123.356 115.884 120.08C116.262 119.729 116.636 119.371 117.012 119.015C118.319 117.768 119.67 116.48 121.162 115.411C126.246 111.758 132.616 110.815 138.235 109.985C138.282 109.978 138.329 109.98 138.375 109.993C138.42 110.005 138.463 110.027 138.501 110.057C138.539 110.086 138.57 110.124 138.594 110.167C138.618 110.209 138.634 110.257 138.64 110.306C138.647 110.355 138.644 110.405 138.632 110.454C138.62 110.502 138.6 110.547 138.571 110.586C138.543 110.626 138.507 110.659 138.467 110.684C138.426 110.71 138.381 110.726 138.334 110.733C132.801 111.553 126.511 112.481 121.565 116.037C120.117 117.077 118.785 118.348 117.496 119.578C117.12 119.936 116.744 120.294 116.364 120.647C112.81 123.956 108.941 126.867 104.819 129.334C104.767 129.371 104.707 129.392 104.644 129.395Z" fill="#333333"/>
<path d="M103.063 142.198C99.1415 142.208 95.2558 141.412 91.6222 139.855C91.5345 139.817 91.4646 139.743 91.4281 139.651C91.3916 139.558 91.3913 139.454 91.4274 139.362C91.4635 139.269 91.5329 139.195 91.6205 139.156C91.708 139.118 91.8065 139.118 91.8943 139.156C100.024 142.68 109.841 142.059 117.515 137.531C117.597 137.491 117.691 137.486 117.777 137.515C117.863 137.545 117.935 137.608 117.979 137.692C118.023 137.776 118.036 137.874 118.014 137.967C117.993 138.06 117.938 138.141 117.863 138.194C113.881 140.514 109.458 141.862 104.919 142.139C104.301 142.178 103.681 142.198 103.063 142.198Z" fill="#333333"/>
<path d="M96.4229 112.608H96.3953C96.3006 112.6 96.2128 112.553 96.151 112.477C96.0893 112.401 96.0586 112.302 96.0656 112.202C96.3953 107.747 97.7487 103.417 99.0629 99.2283C100.55 94.4623 102.09 89.5355 102.072 84.5015C102.071 84.4519 102.08 84.4028 102.098 84.3569C102.116 84.311 102.142 84.2692 102.175 84.2339C102.208 84.1986 102.247 84.1705 102.29 84.1513C102.333 84.132 102.38 84.1219 102.427 84.1216C102.474 84.1213 102.52 84.1308 102.564 84.1497C102.607 84.1685 102.647 84.1963 102.68 84.2314C102.713 84.2666 102.74 84.3083 102.758 84.3542C102.775 84.4002 102.785 84.4494 102.784 84.4991C102.803 89.6572 101.246 94.6425 99.7408 99.4646C98.445 103.605 97.1077 107.898 96.7849 112.26C96.7779 112.356 96.7365 112.445 96.6693 112.51C96.602 112.575 96.5139 112.61 96.4229 112.608Z" fill="#333333"/>
<path d="M134.659 22.6647C134.354 22.6851 134.053 22.5763 133.823 22.3623C133.593 22.1484 133.453 21.8467 133.434 21.5238C133.415 21.2008 133.518 20.883 133.72 20.6402C133.923 20.3975 134.208 20.2497 134.514 20.2293L140.048 19.4768C141.152 18.2031 144.996 14.438 151.885 14.438C160.538 14.438 160.877 21.3301 160.877 21.3983C160.888 21.7213 160.776 22.0355 160.568 22.2719C160.359 22.5082 160.07 22.6474 159.765 22.6587C159.459 22.67 159.161 22.5525 158.938 22.3321C158.714 22.1118 158.582 21.8065 158.571 21.4836C158.546 21.0233 158.154 16.8807 151.885 16.8807C144.968 16.8807 141.685 21.1913 141.549 21.3764C141.362 21.6317 141.086 21.7982 140.783 21.8391L134.809 22.6526C134.76 22.6603 134.71 22.6643 134.659 22.6647Z" fill="#4CC881"/>
<path d="M135.27 22.6643L128.111 23.4875C128.111 23.4875 126.958 10.256 139.869 9.03342C150.129 8.05926 153.166 15.1414 153.166 15.1414L145.458 16.3591L140.259 20.4213L135.27 22.6643Z" fill="#4CC881"/>
<path d="M135.434 21.0032C135.343 21.0053 135.255 20.9711 135.188 20.9074C135.12 20.8437 135.078 20.7553 135.07 20.66C135.062 20.5648 135.088 20.4698 135.144 20.3943C135.199 20.3188 135.28 20.2683 135.369 20.2531L140.453 19.2546C141.113 18.4924 145.316 14.0137 152.687 14.0137C152.777 14.0213 152.861 14.0645 152.922 14.1347C152.984 14.2049 153.018 14.2969 153.018 14.3924C153.018 14.4879 152.984 14.5799 152.922 14.65C152.861 14.7202 152.777 14.7634 152.687 14.7711C145.145 14.7711 140.951 19.7977 140.91 19.8489C140.856 19.9146 140.783 19.9586 140.702 19.9731L135.501 20.9911C135.479 20.9975 135.456 21.0016 135.434 21.0032Z" fill="#333333"/>
<path d="M135.047 19.578C134.963 19.5778 134.882 19.5464 134.818 19.4895C134.753 19.4326 134.71 19.3536 134.694 19.2663C133.514 12.4009 136.809 9.64894 136.949 9.52473C136.986 9.48966 137.03 9.46304 137.077 9.44654C137.124 9.43005 137.174 9.42403 137.223 9.42887C137.273 9.43371 137.321 9.44931 137.364 9.47468C137.407 9.50005 137.445 9.53465 137.476 9.5763C137.506 9.61794 137.527 9.66572 137.539 9.71665C137.551 9.76757 137.553 9.82053 137.544 9.87219C137.536 9.92386 137.517 9.9731 137.49 10.0168C137.463 10.0606 137.427 10.0978 137.385 10.1263C137.256 10.231 134.303 12.7419 135.4 19.1226C135.417 19.2211 135.396 19.3226 135.342 19.4048C135.288 19.487 135.205 19.5432 135.112 19.561C135.091 19.5691 135.069 19.5748 135.047 19.578Z" fill="#333333"/>
<path d="M128.689 21.6144C128.599 21.6142 128.513 21.5786 128.447 21.5146C128.381 21.4506 128.34 21.3629 128.332 21.2686C128.327 21.2191 128.332 21.1692 128.346 21.1217C128.36 21.0743 128.383 21.0302 128.413 20.9922C128.444 20.9541 128.481 20.9228 128.522 20.9C128.564 20.8772 128.61 20.8634 128.657 20.8594L130.776 20.6549C130.823 20.6504 130.87 20.6557 130.915 20.6705C130.959 20.6852 131.001 20.7092 131.037 20.741C131.073 20.7727 131.103 20.8117 131.125 20.8556C131.147 20.8996 131.16 20.9476 131.164 20.997C131.168 21.0464 131.163 21.0963 131.149 21.1436C131.136 21.191 131.113 21.235 131.083 21.2731C131.053 21.3112 131.016 21.3427 130.974 21.3657C130.933 21.3888 130.887 21.4029 130.84 21.4074L128.721 21.612L128.689 21.6144Z" fill="#333333"/>
<path d="M141.757 62.7868C143.666 63.2276 145.573 63.9388 147.06 65.2855C148.547 66.6323 149.527 68.7121 149.23 70.753C148.875 73.1884 146.864 75.0027 146.216 77.3675C145.617 79.5594 146.251 81.9314 145.794 84.1525C145.322 86.4564 143.738 88.3292 142.995 90.5527C142.234 92.8323 142.271 95.6208 140.533 97.1916C139.182 98.4093 137.19 98.4361 135.447 98.0562C133.704 97.6763 132.004 96.9651 130.224 96.9456C128.069 96.9213 126.035 97.9198 123.928 98.3898C121.82 98.8598 119.289 98.6772 117.984 96.8653C116.418 94.6929 117.479 91.5391 118.929 89.2814C120.656 86.6025 122.932 84.1282 123.573 80.9548C124.34 77.1361 122.574 72.9789 123.918 69.3429C126.519 62.2997 135.878 61.4327 141.757 62.7868Z" fill="#FF859C"/>
</svg>
