<svg width="227" height="396" viewBox="0 0 227 396" fill="none" xmlns="http://www.w3.org/2000/svg">
<path d="M163.902 66.2779C163.902 66.2779 165.318 70.9989 171.319 72.486C171.319 72.486 172.031 79.4404 173.56 79.9406C175.09 80.4408 174.616 75.8402 174.616 75.8402C174.616 75.8402 176.503 82.6742 178.032 81.5535C179.562 80.4328 177.675 74.5991 177.675 74.5991C177.675 74.5991 180.149 79.4458 182.266 78.6969C184.383 77.9479 182.616 75.7145 182.616 75.7145C182.616 75.7145 185.442 75.9606 184.968 74.1096C184.495 72.2587 180.494 69.1426 179.671 68.2733C178.848 67.404 170.489 61.1958 170.489 61.1958L163.902 66.2779Z" fill="#7C4E59"/>
<path d="M182.618 76.2438C182.503 76.2444 182.392 76.2028 182.304 76.1261C180.513 74.6176 178.31 71.694 178.219 71.579C178.138 71.4678 178.101 71.3272 178.117 71.1876C178.133 71.048 178.2 70.9206 178.304 70.8331C178.409 70.7456 178.541 70.7049 178.674 70.7198C178.806 70.7348 178.927 70.8042 179.012 70.913C179.034 70.9424 181.235 73.8553 182.934 75.2996C183.039 75.388 183.107 75.5168 183.122 75.6577C183.137 75.7987 183.099 75.9402 183.015 76.0512C182.967 76.1127 182.906 76.1619 182.837 76.1952C182.768 76.2285 182.693 76.2452 182.618 76.2438Z" fill="#333333"/>
<path d="M177.392 75.0706C177.104 75.0687 176.821 74.9915 176.569 74.8459C175.214 74.0863 174.396 71.5132 174.143 70.6011L172.95 70.2132C168.645 70.1811 167.108 67.2014 167.045 67.073C166.986 66.9479 166.976 66.8034 167.017 66.6705C167.058 66.5376 167.146 66.4268 167.263 66.3618C167.38 66.2968 167.517 66.2828 167.643 66.3227C167.77 66.3627 167.877 66.4534 167.941 66.5755C167.997 66.6825 169.291 69.1433 173.019 69.1433C173.069 69.1434 173.12 69.1515 173.168 69.1674L174.687 69.6649C174.77 69.6914 174.844 69.7398 174.904 69.8053C174.964 69.8708 175.007 69.9514 175.029 70.0394C175.247 70.9247 176.042 73.3427 177.027 73.9017C177.114 73.9559 177.211 73.9888 177.311 73.9981C177.412 74.0073 177.513 73.9927 177.607 73.9552C177.689 73.9239 177.764 73.8739 177.826 73.8087C177.888 73.7436 177.936 73.6648 177.967 73.5781C178.506 72.3664 177.698 69.3653 177.285 68.1349L174.454 65.7463C174.349 65.6577 174.282 65.5285 174.267 65.3873C174.252 65.2461 174.291 65.1044 174.375 64.9934C174.458 64.8824 174.581 64.8111 174.714 64.7953C174.848 64.7795 174.982 64.8205 175.087 64.9091L178.03 67.394C178.101 67.4556 178.156 67.5358 178.189 67.6267C178.349 68.0814 179.724 72.1417 178.886 74.0328C178.797 74.2471 178.668 74.4401 178.507 74.6002C178.345 74.7602 178.154 74.8838 177.946 74.9636C177.769 75.0321 177.581 75.0683 177.392 75.0706Z" fill="#333333"/>
<path d="M174.622 76.1394C174.511 76.1395 174.403 76.101 174.315 76.03C174.227 75.959 174.163 75.8592 174.133 75.7462L173.424 73.0126C173.389 72.8756 173.406 72.7294 173.473 72.606C173.539 72.4826 173.649 72.3922 173.779 72.3546C173.908 72.317 174.047 72.3353 174.164 72.4055C174.281 72.4758 174.366 72.5921 174.402 72.729L175.111 75.4626C175.128 75.5304 175.133 75.6013 175.125 75.671C175.117 75.7408 175.096 75.8082 175.063 75.8693C175.03 75.9304 174.986 75.9841 174.933 76.0272C174.881 76.0703 174.82 76.1021 174.756 76.1206C174.713 76.1332 174.667 76.1395 174.622 76.1394Z" fill="#333333"/>
<path d="M217.141 168.222C216.092 170.729 214.973 173.175 213.783 175.561C212.77 177.591 211.716 179.577 210.62 181.521C181.631 232.609 120.471 254.05 67.5819 229.354C15.2068 204.904 -10.9389 143.686 4.31554 87.128C5.14613 84.0466 6.10166 80.9795 7.1821 77.9267C7.95528 75.7316 8.79938 73.549 9.71437 71.3789C10.9079 68.5258 12.1926 65.7476 13.5685 63.0443C15.3529 59.5243 17.2851 56.1362 19.3649 52.8801C49.4559 5.57404 108.21 -13.5854 159.273 10.2549C173.774 17.0012 186.771 26.8925 197.419 39.2869C199.335 41.5177 201.165 43.8171 202.907 46.1852C222.405 72.6654 230.853 107.17 225.062 141.019C224.753 142.844 224.398 144.67 224.001 146.487C222.373 153.946 220.076 161.224 217.141 168.222Z" fill="#545452"/>
<path d="M64.8231 221.816C64.8868 221.814 64.9494 221.799 65.0072 221.77C65.065 221.742 65.1167 221.702 65.1593 221.652C65.2019 221.602 65.2345 221.543 65.255 221.479C65.2756 221.416 65.2837 221.348 65.2789 221.281C65.2784 221.244 65.2742 221.208 65.2663 221.172C65.2619 221.151 65.2559 221.132 65.2484 221.113C65.2307 221.086 65.2105 221.057 65.1928 221.024C65.1118 220.901 65.0105 220.757 64.8915 220.618C64.7402 220.432 64.6021 220.234 64.4786 220.027C64.2965 219.741 64.1541 219.43 64.0558 219.101C63.901 218.953 63.7649 218.784 63.6507 218.598C63.527 218.408 63.4185 218.206 63.3265 217.997C63.1529 217.589 63.0214 217.163 62.934 216.726C62.7363 217.42 62.6972 218.153 62.82 218.866C62.8595 219.143 62.9336 219.412 63.0404 219.668C63.1345 219.93 63.2551 220.18 63.3999 220.415C63.5417 220.624 63.6956 220.824 63.8608 221.014C64.0029 221.178 64.1628 221.324 64.3369 221.45C64.4965 221.594 64.661 221.712 64.8231 221.816Z" fill="#EDB327"/>
<path d="M70.7384 214.292C71.959 213.303 73.2833 211.765 72.121 210.748C71.0549 212.377 70.6016 211.92 69.4924 213.822C68.2896 214.212 67.0741 214.357 67.0539 213.76C66.8994 214.057 66.3652 214.295 65.8688 214.715C65.3725 215.135 64.9065 215.729 64.9952 216.381C66.0207 215.788 66.8893 215.437 67.7983 214.937C68.2516 214.704 68.7378 214.453 69.2493 214.217C69.7323 213.985 70.1928 213.704 70.6244 213.378C71.1258 213.565 70.7815 214.02 70.7384 214.292Z" fill="#EDB327"/>
<path d="M184.889 188.184L184.129 188.208C184.382 188.241 184.638 188.232 184.889 188.184Z" fill="#EDB327"/>
<path d="M184.891 188.184L186.868 188.136C186.901 187.662 185.84 188.055 184.891 188.184Z" fill="#EDB327"/>
<path d="M85.6945 207.158C85.3503 207.304 85.0312 207.51 84.75 207.765C85.0615 207.626 85.3629 207.498 85.6794 207.386C85.6771 207.309 85.6821 207.233 85.6945 207.158Z" fill="#EDB327"/>
<path d="M154.077 196.981L153.504 197.126C153.364 197.334 153.247 197.557 153.152 197.792L154.077 196.981Z" fill="#EDB327"/>
<path d="M130.296 203.101C130.846 203.016 130.78 201.828 130.876 201.277C130.788 201.521 130.652 201.742 130.478 201.927C130.303 202.111 130.094 202.254 129.863 202.347C129.938 202.636 130.088 202.897 130.296 203.101Z" fill="#EDB327"/>
<path d="M92.0614 210.464L91.4258 210.788C91.5904 210.694 91.8741 210.577 92.0614 210.464Z" fill="#EDB327"/>
<path d="M171.191 192.998C171.263 193.143 171.369 193.266 171.5 193.354C171.474 193.275 171.434 193.204 171.38 193.142C171.327 193.081 171.263 193.032 171.191 192.998Z" fill="#EDB327"/>
<path d="M56.1429 94.1334C58.1257 95.8185 52.1192 94.3206 55.2111 96.4631C55.0161 95.9335 58.7765 95.6339 56.1429 94.1334Z" fill="#EDB327"/>
<path d="M86.3438 207.156C86.6628 207.063 86.9895 206.972 87.3187 206.889C86.9843 206.934 86.6567 207.024 86.3438 207.156Z" fill="#EDB327"/>
<path d="M206.809 133.313C206.897 133.553 207.037 133.766 207.219 133.937C207.229 133.816 207.14 133.648 206.809 133.313Z" fill="#EDB327"/>
<path d="M186.82 130.205C186.331 129.994 186.192 129.796 185.465 129.78C185.515 129.853 185.576 129.918 185.645 129.972C185.931 129.876 186.28 129.884 186.82 130.205Z" fill="#EDB327"/>
<path d="M166.391 125.254C166.493 125.368 166.602 125.475 166.717 125.575L167.378 125.674L166.391 125.254Z" fill="#EDB327"/>
<path d="M147.922 40.3248C148.321 40.5852 148.666 40.9293 148.935 41.3359C148.578 40.5147 151.649 40.0734 147.922 40.3248Z" fill="#EDB327"/>
<path d="M85.8457 207.798C85.8661 207.652 85.9242 207.515 86.0136 207.402C86.1029 207.288 86.22 207.203 86.3521 207.156C86.1217 207.228 85.9013 207.306 85.6886 207.386C85.6557 207.57 85.6785 207.739 85.8457 207.798Z" fill="#EDB327"/>
<path d="M184.034 139.032L180.82 138.077C181.875 138.455 182.947 138.774 184.034 139.032Z" fill="#EDB327"/>
<path d="M171.15 135.91C170.673 135.395 170.112 134.976 169.494 134.672C169.335 134.71 169.185 134.779 169.051 134.875L171.15 135.91Z" fill="#EDB327"/>
<path d="M204.632 178.83L205.683 178.717C205.46 181.071 201.378 178.776 198.878 180.509C199.514 180.167 199.476 179.081 199.352 179.367C197.453 179.696 195.579 180.327 193.485 181.135C191.39 181.943 189.091 182.941 186.328 183.997L186.906 183.262C184.591 183.329 181.026 184.431 178.58 184.773C177.995 185.503 176.609 185.752 177.617 186.348C169.549 185.011 163.943 191.527 156.825 190.518C157.605 190.32 158.582 189.577 157.962 189.716L152.507 191.61C153.155 192.436 153.361 191.995 154.695 192.436C154.113 193.169 152.636 193.985 151.261 194.33C153.624 193.089 150.902 192.827 149.707 192.573C149.96 192.816 149.648 193.225 149.805 193.498C146.526 192.543 149.739 195.504 145.518 195.37L145.617 194.835C144.189 195.459 142.966 196.44 141.332 196.708C140.423 195.78 142.801 195.806 142.705 194.889C140.469 195.504 138.722 198.045 136.445 197.467C137.329 196.932 138.706 196.582 139.595 196.044C137.093 195.322 136.906 195.707 135.214 195.911H135.381L135.012 195.943L134.759 195.97L131.454 196.277L132.497 196.381C130.35 199.859 127.007 198.382 123.685 200.969C126.686 198.508 123.88 199.931 123.893 198.652C122.842 198.551 121.289 198.532 121.629 198.08C120.059 199.522 118.463 198.04 116.255 200.118C116.055 199.757 114.331 200.562 114.513 199.465C112.249 200.356 115.217 200.017 115.128 200.562C111.836 202.812 106.319 201.014 101.563 204.154C97.2733 206.027 96.7516 207.565 92.7607 209.258C91.2236 208.969 93.5812 207.53 93.5812 207.53C91.1984 207.509 89.5296 208.035 87.5038 209.014C87.8558 208.562 87.3492 208.378 86.6047 208.094C84.9233 208.629 85.7844 209.822 83.4091 209.79C83.6978 209.255 84.0319 208.429 84.7587 207.779C82.8316 208.643 81.0135 209.873 79.0156 210.748C78.3091 210.189 80.0285 209.386 80.6666 208.755C78.4028 209.646 74.7562 210.895 74.2802 212.155H75.4451C75.1311 211.962 75.3488 211.248 75.7995 210.972C77.6076 209.635 78.77 210.638 78.9726 211.004L77.5494 211.63C79.5752 213.572 83.4091 209.777 86.4124 209.175L85.5488 211.173L88.2887 209.012C89.0357 209.279 89.6916 210.127 88.2761 210.745C90.5982 211.047 90.0335 209.675 92.0745 210.151C92.31 210.245 92.234 210.352 92.0745 210.462L94.0496 209.442C93.7179 209.9 94.6625 210.55 93.3254 210.622C97.2859 210.667 99.0838 207.856 100.78 208.79L100.487 208.972C105.551 207.099 100.712 207.605 104.285 205.184L107.577 207.591L107.815 206.225C108.36 206.136 109.441 205.957 109.355 206.511C111.158 205.173 108.894 206.056 109.874 204.968C112.707 205.457 116.871 202.67 117.891 204.505C118.608 203.333 115.265 204.392 117.871 203.052C119.137 204.981 120.975 201.9 123.546 202.287C123.07 203.566 120.704 203.536 123.292 203.935C124.305 201.726 127.972 203.197 129.876 202.349C129.638 200.851 134.06 200.664 137.286 199.345C137.187 199.88 143.748 198.594 146.967 198.363L146.929 198.631C147.202 196.989 150.474 196.475 152.725 195.59C152.831 196.507 152.492 196.959 151.317 197.673L153.508 197.138C153.918 196.531 154.548 196.114 155.928 195.587L155.627 196.839C158.532 196.055 161.198 194.07 165.128 193.897C165.105 192.8 161.499 191.735 165.313 190.056C165.566 190.545 165.888 191.369 165.164 191.874C165.556 191.647 166.194 191.243 166.802 191.299L165.427 192.637C167.23 192.637 166.146 191.628 167.534 191.374C167.686 192.177 168.673 191.695 168.62 192.383C168.286 192.546 167.354 192.345 166.898 192.789C168.471 192.554 170.443 192.565 171.203 193.025C170.965 192.599 170.95 191.941 172.064 191.556C174.969 190.775 173.277 192.276 175.07 192.262C175.657 191.532 177.645 191.65 177.427 190.435C178.281 190.23 178.562 190.748 178.967 190.994C180.355 190.09 185.987 189.09 183.999 188.237H183.591C183.672 188.205 183.75 188.167 183.826 188.124C188.506 185.717 194.262 186.231 199.048 184.423L199.134 184.824C200.545 184.203 202.158 183.706 203.652 183.184C205.146 182.663 206.518 182.085 207.45 181.368C208.314 181.133 209.666 181.531 209.425 182.104C209.914 181.892 210.296 181.705 210.631 181.536C211.735 179.593 212.789 177.606 213.793 175.577C210.747 176.931 207.681 178.217 204.632 178.83ZM119.086 121.611L117.182 122.536C126.526 123.288 135.531 127.319 144.642 128.153C144.047 128.333 143.941 128.734 143.08 128.514C144.723 129.948 149.947 130.266 150.155 129.477C151.507 129.911 150.312 130.28 151.069 130.892C152.806 131.93 156.025 130.809 156.802 132.026C156.886 132.157 156.604 132.198 156.295 132.203C157.939 132.326 161.393 133.58 160.565 132.302C163.751 133.639 166.994 133.348 169.486 134.658C171.479 133.821 175.009 136.643 175.944 134.993C175.305 136.771 181.421 137.873 183.692 137.515C182.872 137.9 185.386 138.529 184.401 139.101C186.792 139.652 189.05 139.839 188.84 138.794C192.76 142.051 198.053 139.139 199.919 142.557C207.214 143.268 213.915 144.162 220.377 145.267C219.757 147.048 213.287 143.763 213.155 145.756C217.407 146.229 220.542 146.023 223.993 146.462C224.391 144.646 224.753 142.819 225.054 140.995C224.728 140.88 224.417 140.725 224.125 140.532L224.723 138.146C220.866 136.095 217.197 137.641 212.018 135.766L213.636 136.59C212.717 137.376 210.327 135.934 208.526 135.915C208.858 135.145 207.845 134.6 207.222 133.92C207.184 134.541 203.35 132.933 202.522 134.426L200.377 132.797C196.186 131.336 194.994 133.912 190.937 132.65C192.365 132.075 190.615 131.058 193.512 131.09C192.135 130.75 190.932 130.309 190.79 130.857C190.096 130.165 186.739 131.023 185.645 129.959C184.989 130.17 184.619 130.962 183.092 130.523C183.062 130.478 183.045 130.424 183.045 130.368C183.045 130.312 183.062 130.258 183.092 130.213C182.659 130.459 180.742 130.197 181.793 131.302C178.103 127.776 169.922 128.627 166.703 125.559C163.664 125.093 159.977 124.489 157.248 123.86C157.46 123.676 157.362 123.486 157.754 123.636C154.267 122.052 154.994 125.388 150.94 123.513C149.051 121.672 153.363 123.371 152.112 122.542C152.112 119.757 146.883 121.624 144.356 119.372H145.085C143.097 117.93 139.514 119.019 135.969 117.925C135.969 117.925 136.197 117.735 136.08 117.532C133.328 118.251 128.585 117.532 125.06 116.997C126.367 116.248 126.749 116.86 126.326 115.641C124.751 115.389 126.389 117.438 123.239 116.933C122.368 116.109 120.264 115.034 120.231 113.843L123.146 114.536C121.993 112.704 119.38 113.608 117.906 112.958L118.253 112.377C113.756 111.425 113.315 113.011 108.567 111.612L108.952 112.22C105.964 113.094 106.974 110.749 104.09 111.222L103.687 109.414C101.874 109.326 97.2808 109.355 94.1281 108.785C96.1539 108.095 99.9195 108.459 102.325 108.355C100.623 107.887 96.501 106.921 95.4273 107.451C96.1464 107.485 97.1086 107.341 97.7265 107.766C95.3276 108.447 92.4324 108.299 89.0408 107.322C90.4184 104.38 80.3855 104.112 78.5546 100.972C72.2872 100.381 66.8176 97.0965 59.8437 95.1573C61.6619 98.2894 57.8027 94.6223 57.5647 97.1981C55.9035 96.8664 55.2856 96.6418 55.1919 96.4385L50.6971 93.4962C49.7374 92.4263 52.3837 93.4267 52.3887 92.8249C48.9069 91.5517 51.1934 91.3297 49.041 89.9495C49.2765 90.9793 47.4684 90.8188 45.5565 89.8505L48.0863 91.9208C42.7964 91.6694 44.4121 88.5292 39.0841 88.2483L40.8718 87.9809C39.5398 87.799 37.1848 87.0875 34.7944 86.4937C32.4039 85.8999 29.9831 85.512 28.4435 86.0791C28.0789 85.6458 27.6837 84.7872 28.8486 84.9797C25.8656 83.8216 22.328 83.2652 19.0133 82.5725C15.6985 81.8797 12.5864 81.1067 10.4339 79.6971L11.0721 79.2638C9.89458 79.0471 8.76514 79.6944 7.54458 78.6111C7.69652 78.3891 8.18272 78.1778 7.67373 77.9638C7.56484 77.9638 7.39265 77.9638 7.16727 77.9638C6.08684 81.0131 5.13137 84.0801 4.30078 87.165C5.76444 87.5154 7.48132 87.8899 9.93763 88.3981C9.39825 87.7481 8.70184 87.3068 9.19816 87.0928C10.3681 87.3148 11.6114 88.4035 11.3 88.8341H10.9733C18.2004 89.7489 25.8276 96.9333 31.9431 96.928H31.9557C33.9815 97.1954 36.0073 97.4121 38.0332 97.6528C40.6363 98.6612 36.2251 97.9203 38.0104 99.1694C44.7159 99.4075 47.7648 102.553 53.2294 102.936C54.8019 105.051 58.3547 106.06 62.1101 106.988C65.8654 107.916 69.8487 108.676 72.2923 110.438L72.1657 109.636C73.7408 109.331 73.7409 110.529 74.7259 110.989C74.7259 110.39 73.3838 109.919 74.3461 109.77C80.3476 111.07 86.387 112.979 92.4113 115.149C98.4356 117.318 104.478 119.573 110.471 121.539C114.888 122.86 113.887 118.433 119.086 121.611ZM197.417 39.2759C195.26 39.3936 192.877 39.3829 190.96 39.9526C191.182 39.7512 191.452 39.6156 191.74 39.5594C189.767 39.3802 189.152 38.8078 187.835 38.444C187.582 40.089 184.302 40.4447 182.553 41.4906C179.965 39.9553 184.097 39.5407 183.274 38.0374C183.416 39.3588 178.813 39.4417 179.701 40.5303C177.721 39.5861 178 40.0837 176.964 38.7489C176.65 40.8005 175.136 39.1288 173.523 40.4126C170.656 39.4551 172.763 38.5055 169.633 39.1849C168.2 38.6125 170.646 37.8796 170.881 37.8154C167.719 37.8395 169.436 39.3481 168.78 40.2468C164.981 40.7818 166.989 39.1769 165.678 38.4146C163.307 38.9014 161.525 40.3752 159.752 40.3752C159.613 40.1264 159.268 40.0462 159.663 39.7092C157.189 41.0145 152.208 40.0061 149.347 41.7072C149.217 41.6428 149.1 41.5519 149.003 41.4398C149.388 42.0244 149.559 42.7379 149.481 43.4458C148.061 43.5395 146.878 44.5398 146.301 43.5582C147.174 43.5582 147.233 43.1409 147.625 42.8066L146.156 43.3121C144.746 41.9292 148.182 42.7183 148.129 41.643C145.232 42.2529 141.892 43.6117 139.646 43.3014C139.109 41.9105 144.839 42.5846 141.803 41.4638L145.285 41.8437C142.548 39.7333 147.392 41.9052 144.865 39.6209C140.289 39.439 139.8 40.5491 135.242 40.4233C134.262 41.2712 135.64 41.5681 134.657 42.416C128.296 44.2162 129.393 39.1582 124.759 41.3247C123.584 42.3412 123.216 44.16 119.793 43.4646L120.844 41.7794C116.435 41.9346 118.476 44.259 113.806 43.5154C114.586 42.8306 117.23 42.7344 116.551 42.5953C113.485 41.5468 114.5 43.6652 112.209 43.815L111.639 42.4348C110.472 42.5765 109.281 42.7664 108.063 42.9858C106.845 43.2051 105.617 43.4753 104.374 43.7401C101.874 44.2616 99.3092 44.7913 96.7389 45.1336C96.9921 44.695 97.8481 44.1734 96.6048 43.8444C93.2331 44.4426 89.8232 44.7699 86.4047 44.8233C82.9329 44.9089 79.4739 44.7752 76.2883 44.6762L73.9915 46.1367C73.4344 46.1795 72.9102 45.69 73.485 45.3931C70.9907 45.1791 73.4242 46.1795 72.2872 46.7786C70.9021 47.006 70.3855 46.2624 71.2364 45.8077C68.5488 46.7229 65.8061 47.4468 63.0268 47.9742C59.95 48.5761 56.8151 48.8863 54.4728 48.4824L55.3261 48.0197C51.7353 47.9127 51.5758 50.962 48.1724 50.1756L48.7852 49.8894C41.0491 50.2398 32.675 52.3154 26.6228 51.2C25.8631 52.7567 21.1303 51.8393 19.3704 52.8718C17.299 56.1332 15.3668 59.5212 13.5739 63.0359C17.0553 62.8603 20.5229 62.4547 23.9563 61.8215L22.9434 62.7952C25.9973 62.5063 26.4227 58.9462 29.2284 58.5396L30.2642 60.1846C35.582 59.5079 41.1201 60.4521 46.2175 58.2561C46.1618 58.5236 46.0555 59.0585 45.2046 59.219C47.6306 58.9702 54.5082 59.3073 53.9485 57.2477C54.6728 58.355 59.5195 56.5228 62.1784 55.5759L61.8365 56.7823C64.1156 55.0356 64.1689 54.6425 67.5191 53.8775C68.2458 53.9363 68.3091 54.5595 67.557 54.5729C69.8867 54.7361 69.3499 53.2489 72.5051 53.5297L71.363 54.3883C74.1257 54.1984 73.8725 53.824 75.3134 52.8076C76.1591 52.4893 77.4709 52.4277 78.6357 52.5775C79.8006 52.7273 80.8185 53.0964 81.0642 53.6046C81.3782 52.9279 82.8215 51.9356 84.4675 52.088C84.7207 52.4652 84.1484 52.7621 83.8673 52.9092C88.5369 53.2756 90.6108 50.9272 93.8749 51.7778C93.9071 51.9324 93.9786 52.0748 94.0816 52.1898C94.1847 52.3048 94.3155 52.388 94.4599 52.4304C91.1249 52.6979 88.3824 52.9012 88.1292 52.845C88.2482 53.8935 91.1679 53.824 88.9522 55.5064C90.1044 54.9955 91.6617 54.2038 93.2925 53.5725C94.9233 52.9413 96.6402 52.5026 98.1039 52.6337C98.2608 52.7166 98.4004 52.8322 98.5141 52.9734L98.2254 53.1178C98.8447 53.1582 99.4644 53.0466 100.036 52.7915C100.834 52.913 101.641 52.956 102.447 52.9199C102.849 53.7758 105.87 53.1205 107.347 53.0376C107.147 51.8901 109.046 51.9035 107.268 51.1198C107.314 51.1786 106.817 51.2669 105.964 51.3873C105.752 51.4188 105.545 51.4772 105.346 51.5611L105.435 51.4488C104.47 51.5638 103.209 51.6948 101.776 51.8286C102.897 51.1385 104.083 50.5394 105.759 51.0529C106.366 50.3315 107.01 49.6457 107.689 48.9987C109.826 50.4645 113.766 51.0796 114.381 52.0426C118.848 51.0636 124.964 50.8443 127.678 48.4985C128.944 48.1401 129.198 49.0334 129.686 49.3571C128.96 49.6246 128.076 49.6433 127.691 49.983C130.223 49.2662 135.288 49.3063 135.812 47.7308C139.081 48.2364 134.067 49.2555 138.496 48.7392L137.919 49.2448C142.345 50.2558 145.847 49.119 149.481 48.0491C152.95 47.014 156.546 46.1313 161.13 47.2761C160.936 47.241 160.762 47.1279 160.646 46.9605C163.441 47.19 166.247 47.24 169.048 47.1103C171.877 47.0381 174.718 46.8428 177.556 46.685C183.231 46.3186 188.904 46.2303 194.351 47.3189C197.45 47.7656 197.795 46.7626 199.689 46.0377L200.35 47.3002L202.94 46.1741C201.178 43.8114 199.337 41.5129 197.417 39.2785V39.2759ZM92.6544 46.7171C92.976 46.4175 91.492 46.3185 90.5348 46.0644C91.2945 46.0377 92.2366 45.9574 93.2343 45.8585C93.4926 46.257 93.2849 46.6877 92.6544 46.7171ZM96.7541 45.5054C96.7541 45.5054 96.7541 45.4867 96.7541 45.4813L97.8683 45.3449C97.5974 45.3957 97.2479 45.4439 96.7592 45.5134L96.7541 45.5054ZM104.521 52.5936C104.546 52.5481 104.602 52.4946 104.627 52.4438C104.561 52.6769 104.443 52.8898 104.283 53.0643C103.315 53.3104 102.968 53.1071 102.816 52.8771C103.29 52.8263 103.824 52.7434 104.526 52.6016L104.521 52.5936ZM75.4349 212.155C75.5009 212.184 75.5721 212.2 75.6439 212.2C75.7157 212.2 75.7867 212.184 75.8527 212.155H75.4349Z" fill="#EDB327"/>
<path d="M183.102 130.227C183.121 130.221 183.138 130.21 183.152 130.195C183.165 130.18 183.175 130.161 183.18 130.141C183.151 130.167 183.125 130.196 183.102 130.227Z" fill="#EDB327"/>
<path d="M155.84 132.219C155.956 132.219 156.118 132.219 156.27 132.219C156.127 132.203 155.983 132.203 155.84 132.219Z" fill="#EDB327"/>
<path d="M161.09 47.2791C161.232 47.3299 161.409 47.3727 161.622 47.4262C161.444 47.3727 161.275 47.3273 161.09 47.2791Z" fill="#EDB327"/>
<path d="M88.1042 52.8345C88.0786 52.8345 88.0811 52.8535 88.1042 52.8535C88.1274 52.8535 88.1068 52.8426 88.1042 52.8345Z" fill="#EDB327"/>
<path d="M105.939 51.3907C106.065 51.3372 106.194 51.2952 106.327 51.265C106.13 51.1809 105.929 51.1085 105.724 51.0483C105.613 51.1821 105.499 51.3158 105.402 51.4442L105.939 51.3907Z" fill="#EDB327"/>
<path d="M183.982 188.213H184.116C184.01 188.204 183.906 188.172 183.812 188.117C183.911 188.147 183.919 188.181 183.982 188.213Z" fill="#EDB327"/>
<path d="M149.698 192.584C149.553 192.464 149.375 192.4 149.192 192.399C149.23 192.471 149.442 192.527 149.698 192.584Z" fill="#EDB327"/>
<path d="M135.21 195.908L133.078 196.007C133.79 196.022 134.502 195.989 135.21 195.908Z" fill="#EDB327"/>
<path d="M123.988 198.094C123.917 198.262 123.88 198.444 123.879 198.629C123.879 198.629 123.894 198.629 123.902 198.629L123.988 198.094Z" fill="#EDB327"/>
<path d="M184.392 139.136C184.392 139.136 184.392 139.136 184.392 139.117L184.027 139.032L184.392 139.136Z" fill="#EDB327"/>
<path d="M75.7781 209.51L75.2337 209.593C75.2442 209.626 75.2476 209.662 75.2437 209.696C75.2398 209.731 75.2286 209.764 75.2109 209.794L75.7781 209.51Z" fill="#EDB327"/>
<path d="M75.2053 209.793L74.6406 210.06C74.9217 210.007 75.1471 209.94 75.2053 209.793Z" fill="#EDB327"/>
<path d="M73.4609 210.681L74.6461 210.082C74.2131 210.178 73.661 210.277 73.4609 210.681Z" fill="#EDB327"/>
<path d="M90.5864 206.401L90.6623 205.947C90.5831 206.083 90.5559 206.245 90.5864 206.401Z" fill="#EDB327"/>
<path d="M95.0191 205.163C93.9327 205.334 92.15 204.944 90.7142 205.572L90.6484 205.936C91.2182 205.147 94.1682 206.115 95.0191 205.163Z" fill="#EDB327"/>
<path d="M114.794 205.663L110.98 206.259C111.74 206.527 112.723 206.92 111.046 207.447C116.055 207.594 109.854 206.701 114.794 205.663Z" fill="#EDB327"/>
<path d="M126.533 203.425C124.568 204.131 126.698 204.061 126.647 204.337C127.832 203.617 128.119 203.441 126.533 203.425Z" fill="#EDB327"/>
<path d="M210.356 182.253L210.417 183.342C211.921 182.746 210.328 182.938 210.356 182.253Z" fill="#EDB327"/>
<path d="M170.246 125.131L170.434 126.527C171.53 126.551 172.064 125.166 170.246 125.131Z" fill="#EDB327"/>
<path d="M109.308 111.075C108.802 110.273 107.202 109.395 106.004 109.738C107.338 110.192 108.577 111.054 109.308 111.075Z" fill="#EDB327"/>
<path d="M90.1437 33.7183C88.9763 32.98 87.6114 32.3809 86.2795 32.6938C86.0314 32.7305 85.8048 32.8629 85.6438 33.0656C85.3045 33.6006 85.854 34.2452 86.358 34.5902C87.5145 35.3826 88.7448 36.0477 90.0298 36.5749C86.991 35.4355 83.6331 35.6575 80.4323 36.155C78.9003 36.3957 77.2089 36.8076 76.3606 38.1744C76.6011 38.5409 77.0823 38.597 77.5001 38.6184L85.6768 39.0544C82.2177 39.2229 78.9485 41.0043 76.4111 43.4946C73.8738 45.9848 72.0151 49.149 70.4958 52.4363C70.2932 52.8777 70.1666 53.549 70.5946 53.7443C70.7445 53.7947 70.9055 53.7947 71.0554 53.7443C73.2382 53.2548 74.3068 50.5827 76.2618 49.4406C75.1855 50.9625 74.8563 52.9178 74.5549 54.7901C74.3625 55.9991 74.284 57.5077 75.2615 58.1711C76.2009 58.8077 77.4469 58.1711 78.2825 57.39C80.8376 54.9988 82.1923 51.1792 85.2513 49.5797C86.2642 49.0447 87.3683 48.8174 88.4496 48.5098C91.4275 47.6485 94.2156 46.1854 97.1201 45.0754C98.561 44.5243 100.123 44.0563 101.605 44.4655C102.808 44.7972 103.841 45.6825 105.069 45.8938C105.261 45.9451 105.461 45.95 105.655 45.9083C105.848 45.8667 106.031 45.7794 106.188 45.6531C106.743 45.0994 106.302 44.1098 105.765 43.5347C103.914 41.5527 101.253 40.7315 98.713 39.9826C99.9826 39.9836 101.251 39.9023 102.511 39.7392C103.056 39.6696 103.712 39.4877 103.856 38.9367C104.033 38.2547 103.299 37.7144 102.663 37.4897C101.382 37.0479 100.026 36.8988 98.6856 37.0524C97.3454 37.2059 96.0513 37.6586 94.8892 38.3804C95.2564 38.1316 90.5843 33.9964 90.1437 33.7183Z" fill="#333333"/>
<path d="M102.393 54.5036C102.824 53.1662 102.717 51.7138 102.53 50.3176C102.336 48.8981 102.061 47.4922 101.707 46.1075C101.491 45.1196 101.137 44.1713 100.656 43.2936C99.7573 41.7824 98.2354 40.7526 96.6046 40.2845C94.9573 39.8569 93.241 39.8185 91.578 40.1722C87.5618 40.9158 83.6824 43.3338 81.7908 47.1507C81.2382 48.1723 80.9532 49.331 80.9652 50.5075C81.0918 53.1315 83.2645 55.1402 85.5233 56.2636C88.562 57.7829 91.9755 58.251 95.3105 58.0504C97.934 57.8926 101.38 57.6331 102.393 54.5036Z" fill="#333333"/>
<path d="M78.0884 114.769C78.0884 114.769 74.3406 118.891 70.7448 122.812C67.7592 126.064 64.8749 129.178 64.3204 129.681C63.1023 130.785 57.1768 138.884 54.3863 140.725C51.5957 142.565 46.0297 140.54 44.6269 137.595C43.224 134.65 42.1882 130.601 41.4893 127.102C41.2719 126.128 41.3201 125.108 41.6284 124.161C41.9368 123.215 42.4925 122.379 43.2315 121.753C43.581 116.045 47.068 116.598 47.068 116.598C47.068 116.598 46.8932 108.496 50.2054 106.472C53.5176 104.447 57.5237 109.97 57.5237 109.97L59.9648 106.472L61.2082 107.041L78.0884 114.769Z" fill="#7C4E59"/>
<path d="M78.0875 114.769C78.0875 114.769 74.3397 118.891 70.7439 122.812C65.5831 117.802 60.6603 107.406 60.6603 107.406L61.2073 107.053L78.0875 114.769Z" fill="#333333"/>
<path d="M167.494 101.144C173.769 105.196 168.54 112.913 165.925 115.874C163.309 118.835 158.606 124.893 158.606 124.893L147.971 112.56C147.971 112.56 145.879 104.643 145.879 104.268C145.879 103.894 146.403 100.588 146.403 100.588L153.025 98.5628L161.741 99.4829L167.494 101.144Z" fill="#333333"/>
<path d="M138.738 41.4994C138.738 41.4994 150.764 38.3699 154.773 39.8411C158.781 41.3122 171.506 61.932 171.506 61.932L167.497 69.6648C167.497 69.6648 157.039 63.0367 151.114 56.4113L138.738 61.381V41.4994Z" fill="#7C4E59"/>
<path d="M152.858 108.505C152.858 108.505 158.429 98.196 167.5 101.141C167.5 101.141 161.749 98.0115 155.474 96.1712C149.199 94.331 141.357 91.7525 141.357 91.7525C141.357 91.7525 141.878 88.4385 140.66 87.8875L139.44 87.3338L138.044 75.3695L151.116 68.7414C151.116 68.7414 152.162 44.6257 140.832 37.9976C140.832 37.9976 132.64 41.127 128.981 43.521C125.322 45.9149 118.698 44.9921 115.91 46.835C113.122 48.6779 101.618 57.1489 101.618 57.1489C101.618 57.1489 82.271 70.7689 76.7 76.1078C71.129 81.4466 71.6355 87.3418 70.4251 89.1794C69.2146 91.0169 59.4451 104.642 59.283 106.116C59.121 107.59 69.9186 124.524 85.7731 117.35C101.628 110.176 108.083 114.408 108.083 114.408L142.775 121.772L152.537 118.088L152.858 108.505Z" fill="white"/>
<path d="M120.441 106.851C120.441 106.851 124.45 105.378 128.458 106.3C132.467 107.223 139.785 111.27 141.702 112.375C143.619 113.479 146.589 115.873 146.589 115.873L152.857 108.504C152.857 108.504 176.913 135.568 167.498 156.383C158.083 177.198 133.168 174.967 133.168 174.967L122.026 189.695C122.026 189.695 80.8945 171.284 80.8945 168.893C80.8945 166.502 92.5709 152.692 92.5709 152.692L120.441 106.851Z" fill="#266B27"/>
<path d="M132.811 175.374C132.766 175.374 132.721 175.366 132.679 175.35C132.449 175.265 127.022 173.101 126.493 161.54C126.488 161.43 126.525 161.322 126.595 161.24C126.665 161.159 126.763 161.11 126.867 161.104C126.971 161.101 127.072 161.14 127.149 161.214C127.226 161.288 127.272 161.391 127.278 161.5C127.784 172.509 132.892 174.548 132.942 174.566C133.028 174.6 133.099 174.665 133.145 174.749C133.19 174.832 133.206 174.93 133.191 175.025C133.175 175.12 133.128 175.206 133.059 175.269C132.99 175.332 132.902 175.367 132.811 175.369V175.374Z" fill="#333333"/>
<path d="M87.5009 165.764C83.8418 165.764 82.2743 167.419 82.6212 168.339C82.9682 169.26 85.9335 171.103 85.9335 171.103L90.1168 167.97L87.5009 165.764Z" fill="#333333"/>
<path d="M141.697 170.918C139.78 173.31 134.834 172.887 132.809 171.654C128.278 168.894 128.104 157.847 127.238 154.535C126.371 151.224 118.137 107.879 123.229 107.224C130.375 106.304 132.543 112.039 132.543 112.039L131.768 130.059C131.768 130.059 137.868 151.968 138.043 152.334C138.217 152.701 141.697 170.918 141.697 170.918Z" fill="#333333"/>
<path d="M111.552 175.152C111.552 175.152 95.518 164.841 87.4957 165.764C87.4957 165.764 74.5989 192.64 72.5072 199.466C70.4156 206.292 68.8481 209.959 71.9856 215.849C75.123 221.739 131.418 269.422 131.418 269.422C131.418 269.422 142.745 263.899 144.839 252.486C144.839 252.486 140.048 246.133 136.04 241.899C132.031 237.665 107.979 206.921 107.979 206.921L111.552 175.152Z" fill="#7C4E59"/>
<path d="M88.0742 67.942L90.3963 67.7922C91.4953 68.5144 96.4359 70.9404 98.5858 69.4506C100.814 67.9072 101.759 63.0873 99.553 58.3877L88.0742 67.942Z" fill="#333333"/>
<path d="M78.3668 53.2494L79.9545 58.1951C82.5172 65.3448 85.3736 67.728 88.3465 68.6642C89.277 68.961 90.2538 69.0605 91.2208 68.9567C92.1878 68.853 93.1259 68.5481 93.9808 68.0597C101.702 63.657 99.9063 55.2368 99.9063 55.2368C99.9063 55.2368 100.506 55.408 101.818 55.0469C104.586 52.8349 104.011 46.9637 100.99 46.4876C98.782 46.1319 97.7665 47.7688 97.3132 49.0634C96.5536 49.9675 96.0067 46.9022 95.7484 46.3351C87.0475 43.6604 83.2667 43.211 82.4361 43.1896C82.5627 43.0987 76.5461 46.1238 78.3668 53.2494Z" fill="#7C4E59"/>
<path d="M99.998 53.2355C99.9153 53.2353 99.8349 53.2075 99.768 53.1561C99.7012 53.1047 99.6513 53.0324 99.6257 52.9493C99.4788 52.4812 99.3523 51.9998 99.2434 51.5156C99.0979 50.9543 99.0457 50.3706 99.0889 49.7904C99.1136 49.4663 99.202 49.1511 99.3485 48.8651C99.495 48.5791 99.6964 48.3285 99.9398 48.1294C100.214 47.9164 100.546 47.8028 100.887 47.8057C101.227 47.8086 101.558 47.9278 101.829 48.1454C101.908 48.217 101.957 48.3187 101.966 48.4284C101.974 48.5381 101.942 48.647 101.874 48.7312C101.841 48.7733 101.8 48.8079 101.755 48.8331C101.709 48.8584 101.658 48.8737 101.607 48.8781C101.555 48.8826 101.503 48.8762 101.454 48.8592C101.405 48.8423 101.359 48.8151 101.32 48.7794C101.183 48.6805 101.02 48.6299 100.855 48.6347C100.689 48.6395 100.529 48.6995 100.398 48.8061C100.245 48.9368 100.12 49.0991 100.029 49.2831C99.9375 49.4672 99.8832 49.6689 99.8689 49.876C99.8393 50.3616 99.8871 50.8489 100.011 51.3177C100.112 51.7751 100.233 52.2352 100.373 52.6792C100.39 52.7318 100.397 52.7876 100.394 52.8433C100.391 52.8989 100.377 52.9532 100.353 53.0031C100.329 53.053 100.297 53.0973 100.257 53.1336C100.216 53.1698 100.17 53.1972 100.12 53.2141C100.08 53.2275 100.039 53.2347 99.998 53.2355Z" fill="#333333"/>
<path d="M101.351 51.6152C101.293 51.6148 101.235 51.6009 101.183 51.5746C101.13 51.5483 101.084 51.5101 101.047 51.4627C100.889 51.2821 100.677 51.1646 100.446 51.13C100.215 51.0955 99.9804 51.1459 99.7809 51.2728C99.7385 51.3039 99.6907 51.3259 99.6403 51.3375C99.5899 51.349 99.5378 51.35 99.487 51.3403C99.3844 51.3208 99.2934 51.259 99.234 51.1685C99.1746 51.0781 99.1515 50.9664 99.1701 50.858C99.1886 50.7497 99.247 50.6535 99.3327 50.5908C99.6942 50.3359 100.132 50.2303 100.562 50.2939C100.993 50.3575 101.386 50.586 101.667 50.9358C101.714 50.997 101.744 51.071 101.752 51.1491C101.761 51.2272 101.749 51.3064 101.717 51.3774C101.685 51.4484 101.634 51.5084 101.571 51.5505C101.508 51.5926 101.436 51.615 101.361 51.6152H101.351Z" fill="#333333"/>
<path d="M91.6911 65.5669C91.6155 65.5672 91.5414 65.5439 91.4783 65.5L90.5084 64.8394C90.4208 64.7798 90.3591 64.6859 90.337 64.5783C90.315 64.4707 90.3343 64.3582 90.3907 64.2656C90.4471 64.173 90.536 64.1079 90.6379 64.0846C90.7397 64.0613 90.8462 64.0817 90.9339 64.1413L91.9038 64.8019C91.9759 64.8501 92.0311 64.9217 92.0612 65.006C92.0913 65.0903 92.0946 65.1827 92.0706 65.2692C92.0465 65.3556 91.9965 65.4314 91.928 65.4852C91.8595 65.5389 91.7764 65.5676 91.6911 65.5669Z" fill="#333333"/>
<path d="M88.7086 61.1995C88.4576 61.2743 88.2273 61.4119 88.0375 61.6008C87.9451 61.7169 87.8945 61.8637 87.8945 62.0153C87.8945 62.167 87.9451 62.3138 88.0375 62.4299C88.3717 62.9194 89.0631 63.1655 89.7974 63.0959C90.5584 63.0084 91.2751 62.6739 91.8486 62.1384C92.3551 61.673 92.6867 61.0391 92.5373 60.5335C92.1929 59.3379 89.6278 60.8358 88.7086 61.1995Z" fill="white"/>
<path d="M83.5145 57.2293C83.5955 57.7287 83.7298 58.2168 83.9147 58.6843C83.9697 58.8429 84.0821 58.9718 84.2272 59.0428C84.3723 59.1138 84.5382 59.121 84.6883 59.0628C84.8384 59.0047 84.9604 58.8859 85.0276 58.7326C85.0948 58.5794 85.1017 58.4042 85.0466 58.2457C84.9116 57.759 84.7255 57.2898 84.492 56.8468C84.2387 56.36 83.4259 56.6889 83.5145 57.2293Z" fill="#333333"/>
<path d="M92.5103 53.9604C92.5937 54.4604 92.7287 54.9493 92.9129 55.4182C92.9683 55.5767 93.081 55.7055 93.2263 55.7763C93.3716 55.847 93.5376 55.8539 93.6877 55.7953C93.8378 55.7368 93.9598 55.6177 94.0268 55.4642C94.0937 55.3107 94.1001 55.1354 94.0447 54.9768C93.9101 54.4909 93.7241 54.0225 93.4902 53.5806C93.2369 53.0911 92.4242 53.4201 92.5103 53.9604Z" fill="#333333"/>
<path d="M81.4085 55.8114C81.7808 54.5329 83.9256 54.1397 84.9537 54.5222C85.0578 54.5728 85.1437 54.6575 85.1988 54.7636C85.2538 54.8697 85.2751 54.9918 85.2595 55.1117C85.2439 55.2316 85.1922 55.343 85.1121 55.4295C85.032 55.516 84.9276 55.573 84.8145 55.5921C84.2042 55.6376 83.6167 55.5252 83.0064 55.6723C82.5126 55.7927 82.1024 56.0655 81.5832 56.0441C81.5553 56.0443 81.5277 56.0379 81.5024 56.0254C81.4771 56.0129 81.4548 55.9945 81.4371 55.9717C81.4194 55.9489 81.4067 55.9222 81.4 55.8935C81.3933 55.8649 81.3927 55.835 81.3984 55.8061L81.4085 55.8114Z" fill="#333333"/>
<path d="M94.3248 51.0555C93.9247 51.4461 93.4336 51.5236 92.96 51.7858C92.4257 52.0827 92.0686 52.5588 91.5976 52.9332C91.2076 53.2408 90.5189 52.7808 90.7873 52.2726C91.3166 51.2695 93.2107 50.0445 94.2743 50.7506C94.299 50.7649 94.3203 50.7848 94.3367 50.809C94.3531 50.8331 94.3642 50.8609 94.3691 50.8902C94.374 50.9195 94.3726 50.9496 94.3649 50.9782C94.3572 51.0068 94.3435 51.0333 94.3248 51.0555Z" fill="#333333"/>
<path d="M88.7282 59.3155C88.708 59.3181 88.6875 59.3181 88.6673 59.3155C88.2128 59.2793 87.7844 59.078 87.4545 58.7458C87.346 58.6128 87.2668 58.4559 87.223 58.2866C87.1792 58.1172 87.1718 57.9396 87.2013 57.7668C87.2219 57.6277 87.2729 57.4956 87.3503 57.3809C87.4276 57.2662 87.5291 57.1722 87.6469 57.1062C87.6928 57.0811 87.7429 57.0657 87.7944 57.0611C87.8459 57.0564 87.8977 57.0625 87.947 57.079C87.9962 57.0956 88.042 57.1222 88.0815 57.1573C88.121 57.1925 88.1537 57.2356 88.1775 57.284C88.2012 57.3325 88.2157 57.3855 88.2201 57.4399C88.2245 57.4942 88.2187 57.549 88.203 57.6011C88.1874 57.6531 88.1623 57.7014 88.129 57.7431C88.0957 57.7849 88.0549 57.8193 88.009 57.8444C87.9888 57.8444 87.9786 57.8979 87.976 57.9139C87.9705 57.9613 87.974 58.0093 87.9862 58.0552C87.9983 58.1011 88.0191 58.144 88.047 58.1814C88.2616 58.3685 88.5286 58.4756 88.8067 58.4864C88.9088 58.497 89.003 58.5496 89.0689 58.6327C89.1349 58.7158 89.1673 58.8229 89.1593 58.931C89.1514 59.0391 89.1037 59.1397 89.0264 59.211C88.9491 59.2824 88.8483 59.319 88.7459 59.3129L88.7282 59.3155Z" fill="#333333"/>
<path d="M131.774 111.086C131.774 111.086 105.98 97.8324 94.8255 100.213C83.6708 102.593 82.9743 112.364 83.6707 115.309C84.3671 118.254 84.0202 128.747 85.2408 139.243C86.4613 149.739 98.6137 184.886 100.404 194.838C103.017 209.381 103.19 219.692 103.19 219.692L124.645 214.782C124.645 214.782 123.232 208.095 122.708 202.938C122.184 197.781 123.096 177.083 124.975 162.816L141.705 170.918C141.705 170.918 150.062 164.841 146.063 147.722C142.065 130.604 137.707 132.072 136.129 125.447C134.552 118.821 135.436 114.769 131.774 111.086Z" fill="#7C4E59"/>
<path d="M115.729 208.619C115.729 208.619 106.899 199.637 100.282 209.472C100.282 209.472 101.68 214.397 100.553 217.919C99.4265 221.442 85.3091 243.835 84.1519 249.396C82.9946 254.957 85.2938 261.229 93.3135 256.316C101.333 251.402 111.07 245.437 117.023 238.151C122.977 230.865 137.915 222.523 137.157 219.751C136.4 216.98 123.42 203.098 121.776 202.9C120.133 202.702 119.996 208.025 115.729 208.619Z" fill="#EA2440"/>
<path d="M93.0054 240.537C91.8211 240.558 90.6592 240.196 89.6754 239.499C89.5974 239.433 89.546 239.339 89.5315 239.234C89.517 239.13 89.5406 239.023 89.5974 238.936C89.6543 238.85 89.7401 238.789 89.8378 238.766C89.9354 238.744 90.0376 238.761 90.1237 238.815C92.0811 240.248 94.8058 239.746 96.6392 238.609C98.7562 237.295 100.367 235.057 101.658 233.259C105.811 227.487 109.891 221.53 113.785 215.558C115.689 212.637 116.16 210.475 115.226 208.945C115.198 208.9 115.179 208.848 115.17 208.795C115.161 208.741 115.162 208.686 115.173 208.633C115.183 208.58 115.204 208.529 115.234 208.484C115.263 208.439 115.301 208.401 115.344 208.372C115.387 208.342 115.436 208.322 115.486 208.312C115.537 208.303 115.589 208.304 115.64 208.315C115.69 208.327 115.738 208.349 115.781 208.38C115.823 208.411 115.859 208.45 115.887 208.496C117.561 211.232 115.206 214.843 114.434 216.031C110.531 222.014 106.444 227.979 102.279 233.762C100.944 235.618 99.2804 237.929 97.0292 239.326C95.8127 240.098 94.4244 240.516 93.0054 240.537Z" fill="#333333"/>
<path d="M85.6638 252.918C85.5689 252.917 85.4777 252.88 85.4066 252.814C85.3356 252.747 85.2895 252.656 85.2769 252.557C85.2643 252.457 85.286 252.356 85.338 252.273C85.39 252.189 85.4688 252.127 85.5601 252.1C98.8014 248.262 107.821 243.006 113.949 235.556C114.456 234.955 114.932 234.321 115.405 233.711C116.58 232.186 117.793 230.611 119.259 229.324C121.073 227.719 123.212 226.617 125.281 225.545C126.547 224.881 127.874 224.207 129.08 223.405C131.573 221.788 133.754 219.687 135.507 217.213C135.538 217.169 135.576 217.132 135.621 217.104C135.665 217.076 135.714 217.058 135.766 217.05C135.817 217.042 135.869 217.045 135.919 217.059C135.969 217.072 136.016 217.096 136.057 217.129C136.099 217.161 136.134 217.202 136.16 217.249C136.187 217.296 136.204 217.348 136.211 217.402C136.219 217.456 136.216 217.511 136.203 217.564C136.191 217.617 136.168 217.667 136.137 217.71C134.324 220.269 132.069 222.442 129.49 224.114C128.242 224.916 126.907 225.612 125.616 226.283C123.59 227.334 121.49 228.423 119.748 229.953C118.343 231.191 117.153 232.735 116.003 234.232C115.527 234.848 115.033 235.487 114.532 236.105C108.297 243.682 99.1532 249.021 85.755 252.905C85.7252 252.913 85.6946 252.918 85.6638 252.918Z" fill="#333333"/>
<path d="M89.6118 245.071C88.7101 245.075 87.812 244.954 86.9403 244.71C86.8396 244.682 86.7535 244.612 86.7013 244.517C86.6491 244.422 86.6349 244.308 86.6617 244.202C86.6886 244.095 86.7544 244.005 86.8446 243.949C86.9348 243.894 87.0421 243.879 87.1428 243.908C90.6424 244.895 94.8207 243.67 98.6065 240.548C100.761 238.775 102.643 236.584 104.464 234.468C105.438 233.334 106.446 232.163 107.502 231.061C108.857 229.627 110.516 228.06 112.567 227.27C114.805 226.404 117.163 226.703 118.72 228.051C118.76 228.087 118.793 228.13 118.817 228.178C118.841 228.227 118.856 228.28 118.861 228.335C118.866 228.389 118.86 228.444 118.845 228.497C118.829 228.549 118.804 228.598 118.771 228.64C118.738 228.682 118.697 228.717 118.651 228.742C118.605 228.768 118.555 228.784 118.503 228.789C118.451 228.794 118.399 228.788 118.349 228.771C118.3 228.755 118.254 228.729 118.214 228.693C116.892 227.549 114.778 227.295 112.83 228.049C110.936 228.784 109.356 230.28 108.062 231.646C107.031 232.735 106.036 233.901 105.061 235.027C103.218 237.167 101.314 239.385 99.1054 241.203C96.0236 243.731 92.6885 245.071 89.6118 245.071Z" fill="#333333"/>
<path d="M116.706 211.559C116.604 211.563 116.505 211.526 116.429 211.454C116.352 211.383 116.305 211.283 116.298 211.175C116.29 211.068 116.323 210.961 116.388 210.879C116.453 210.796 116.547 210.743 116.648 210.732C119.765 210.224 122.581 208.479 124.521 205.853C124.587 205.773 124.68 205.723 124.78 205.713C124.881 205.703 124.981 205.734 125.06 205.799C125.14 205.864 125.193 205.959 125.208 206.064C125.224 206.169 125.201 206.277 125.144 206.364C123.077 209.157 120.081 211.012 116.765 211.553L116.706 211.559Z" fill="#333333"/>
<path d="M101.512 234.819H101.485L91.9202 234.142C91.8163 234.134 91.7196 234.083 91.6513 233.999C91.583 233.916 91.5486 233.808 91.5556 233.698C91.5584 233.644 91.5716 233.59 91.5943 233.541C91.617 233.492 91.6487 233.448 91.6876 233.412C91.7266 233.377 91.7718 233.349 91.8209 233.332C91.87 233.315 91.9219 233.308 91.9734 233.313L101.538 233.99C101.637 234.001 101.728 234.051 101.794 234.13C101.86 234.21 101.894 234.313 101.891 234.418C101.888 234.523 101.847 234.623 101.777 234.698C101.707 234.773 101.612 234.817 101.512 234.821V234.819Z" fill="#333333"/>
<path d="M104.805 230.081C104.784 230.084 104.763 230.084 104.742 230.081C101.536 229.541 98.3007 229.217 95.0559 229.11C95.0016 229.112 94.9475 229.103 94.8968 229.082C94.8462 229.061 94.8 229.03 94.7615 228.99C94.7229 228.949 94.6926 228.901 94.6726 228.847C94.6525 228.794 94.643 228.737 94.6447 228.68C94.6465 228.622 94.6594 228.566 94.6827 228.514C94.706 228.462 94.7392 228.416 94.7801 228.379C94.8211 228.341 94.8689 228.312 94.9207 228.295C94.9725 228.278 95.0272 228.272 95.0812 228.278C98.3591 228.387 101.627 228.715 104.866 229.26C104.969 229.278 105.061 229.338 105.122 229.427C105.183 229.516 105.209 229.627 105.193 229.736C105.177 229.833 105.13 229.92 105.059 229.983C104.988 230.047 104.898 230.081 104.805 230.081Z" fill="#333333"/>
<path d="M108.837 224.507H108.822L97.7307 224.012C97.6791 224.01 97.6284 223.997 97.5817 223.974C97.5349 223.95 97.493 223.918 97.4581 223.878C97.4233 223.837 97.3964 223.79 97.3789 223.739C97.3613 223.688 97.3535 223.633 97.3559 223.579C97.3611 223.469 97.4067 223.366 97.4829 223.292C97.5591 223.217 97.6598 223.177 97.7635 223.18L108.855 223.678C108.959 223.68 109.058 223.726 109.13 223.806C109.202 223.885 109.241 223.992 109.239 224.102C109.236 224.212 109.193 224.316 109.117 224.392C109.042 224.468 108.941 224.509 108.837 224.507Z" fill="#333333"/>
<path d="M108.936 218.409C106.197 218.409 103.462 218.208 100.75 217.807C100.698 217.799 100.649 217.781 100.604 217.753C100.56 217.726 100.521 217.689 100.49 217.645C100.427 217.557 100.4 217.447 100.414 217.337C100.428 217.228 100.483 217.129 100.567 217.063C100.65 216.997 100.755 216.968 100.858 216.983C104.662 217.547 108.508 217.711 112.342 217.472C112.446 217.466 112.549 217.504 112.626 217.577C112.704 217.65 112.752 217.753 112.758 217.863C112.764 217.973 112.728 218.081 112.659 218.163C112.589 218.245 112.492 218.295 112.388 218.302C111.242 218.375 110.091 218.41 108.936 218.409Z" fill="#333333"/>
<path d="M123.07 222.647C125.343 222.002 126.69 219.532 126.08 217.131C125.469 214.73 123.131 213.307 120.858 213.952C118.585 214.597 117.237 217.067 117.848 219.468C118.459 221.869 120.797 223.292 123.07 222.647Z" fill="white"/>
<path d="M140.081 257.535C140.081 257.535 128.516 253.239 126.363 265.094C126.363 265.094 129.572 268.956 129.929 272.656C130.286 276.355 126.257 302.918 127.396 308.498C128.536 314.077 133.089 318.763 138.45 310.774C143.811 302.784 150.326 293.086 152.884 283.847C155.441 274.608 165.74 260.464 163.963 258.273C162.185 256.083 144.917 249.155 143.342 249.69C141.767 250.225 143.73 255.122 140.081 257.535Z" fill="#EA2440"/>
<path d="M129.446 297.146C129.136 297.146 128.827 297.117 128.522 297.06C128.419 297.04 128.328 296.978 128.269 296.887C128.21 296.797 128.187 296.685 128.205 296.576C128.215 296.522 128.234 296.471 128.262 296.425C128.29 296.379 128.326 296.339 128.369 296.308C128.411 296.277 128.459 296.255 128.51 296.244C128.561 296.233 128.613 296.232 128.664 296.242C131.006 296.689 133.288 295.033 134.508 293.193C135.916 291.072 136.501 288.327 136.97 286.126C138.476 279.048 139.846 271.84 141.039 264.704C141.621 261.21 141.199 259.038 139.748 258.057C139.7 258.029 139.658 257.992 139.625 257.947C139.592 257.901 139.568 257.849 139.554 257.794C139.541 257.739 139.538 257.681 139.547 257.624C139.556 257.568 139.575 257.514 139.604 257.465C139.634 257.417 139.672 257.376 139.717 257.344C139.762 257.312 139.813 257.29 139.866 257.28C139.92 257.27 139.974 257.271 140.027 257.284C140.08 257.297 140.129 257.322 140.173 257.356C142.771 259.113 142.049 263.43 141.814 264.845C140.619 271.995 139.246 279.214 137.737 286.305C137.253 288.579 136.651 291.411 135.151 293.669C133.703 295.854 131.54 297.146 129.446 297.146Z" fill="#333333"/>
<path d="M129.983 311.066C129.902 311.065 129.823 311.038 129.757 310.989C129.691 310.94 129.641 310.871 129.614 310.791C129.586 310.711 129.582 310.624 129.603 310.541C129.624 310.459 129.668 310.385 129.729 310.33C140.266 301.027 146.404 292.286 149.048 282.823C149.263 282.058 149.458 281.269 149.646 280.504C150.117 278.604 150.6 276.638 151.418 274.822C152.431 272.575 153.951 270.626 155.412 268.743C156.311 267.582 157.24 266.381 158.04 265.132C159.673 262.568 160.83 259.699 161.449 256.679C161.451 256.618 161.466 256.559 161.493 256.505C161.519 256.45 161.557 256.403 161.602 256.366C161.648 256.328 161.701 256.302 161.757 256.289C161.814 256.276 161.872 256.276 161.928 256.289C161.985 256.302 162.038 256.328 162.084 256.365C162.129 256.402 162.167 256.449 162.194 256.503C162.22 256.557 162.236 256.617 162.238 256.678C162.241 256.739 162.231 256.799 162.208 256.856C161.566 259.978 160.37 262.944 158.683 265.597C157.863 266.878 156.911 268.093 156.009 269.269C154.579 271.115 153.1 273.014 152.117 275.183C151.325 276.925 150.851 278.85 150.39 280.715C150.2 281.485 150.003 282.28 149.785 283.058C147.096 292.687 140.877 301.554 130.218 310.967C130.152 311.026 130.069 311.061 129.983 311.066Z" fill="#333333"/>
<path d="M128.017 303.006C127.92 303.003 127.827 302.963 127.757 302.892C127.686 302.822 127.642 302.726 127.634 302.624C127.626 302.522 127.654 302.42 127.712 302.338C127.771 302.256 127.856 302.2 127.951 302.18C131.522 301.543 134.839 298.595 137.068 294.096C138.334 291.537 139.18 288.718 140.005 285.995C140.446 284.534 140.902 283.026 141.418 281.565C142.087 279.669 142.978 277.513 144.523 275.9C146.219 274.129 148.481 273.367 150.428 273.91C150.529 273.938 150.615 274.007 150.667 274.102C150.72 274.197 150.734 274.31 150.708 274.417C150.681 274.523 150.616 274.614 150.526 274.67C150.436 274.725 150.329 274.74 150.228 274.712C148.572 274.252 146.551 274.95 145.077 276.491C143.641 277.989 142.798 280.043 142.155 281.841C141.649 283.285 141.193 284.783 140.752 286.233C139.919 288.99 139.058 291.85 137.767 294.466C135.434 299.197 131.907 302.303 128.093 302.987L128.017 303.006Z" fill="#333333"/>
<path d="M141.952 259.823C141.887 259.823 141.822 259.806 141.764 259.772C141.707 259.739 141.658 259.691 141.623 259.633C141.595 259.587 141.575 259.536 141.565 259.482C141.556 259.429 141.556 259.373 141.567 259.32C141.578 259.267 141.598 259.216 141.627 259.171C141.656 259.126 141.694 259.087 141.737 259.058C144.372 257.228 146.247 254.406 146.981 251.167C147.013 251.07 147.078 250.99 147.163 250.94C147.248 250.891 147.348 250.877 147.442 250.901C147.536 250.924 147.619 250.984 147.674 251.068C147.73 251.152 147.753 251.255 147.741 251.357C146.963 254.803 144.971 257.807 142.17 259.756C142.105 259.8 142.029 259.823 141.952 259.823Z" fill="#333333"/>
<path d="M128.319 291.226C128.227 291.226 128.138 291.192 128.067 291.13C127.997 291.068 127.949 290.982 127.932 290.886C127.916 290.791 127.931 290.692 127.976 290.608C128.022 290.523 128.094 290.458 128.18 290.424L137.146 286.845C137.242 286.815 137.344 286.825 137.434 286.872C137.523 286.919 137.592 286.999 137.627 287.098C137.662 287.196 137.661 287.305 137.623 287.402C137.586 287.5 137.515 287.579 137.425 287.623L128.458 291.191C128.414 291.212 128.367 291.224 128.319 291.226Z" fill="#333333"/>
<path d="M129.187 285.273C129.095 285.274 129.007 285.241 128.935 285.18C128.864 285.119 128.815 285.034 128.797 284.939C128.779 284.844 128.793 284.746 128.835 284.66C128.878 284.575 128.948 284.508 129.033 284.471C132.057 283.13 135.159 281.995 138.321 281.071C138.422 281.042 138.529 281.056 138.62 281.11C138.711 281.165 138.778 281.255 138.806 281.361C138.834 281.468 138.82 281.582 138.769 281.678C138.717 281.774 138.632 281.844 138.531 281.874C135.403 282.789 132.333 283.913 129.339 285.238C129.291 285.261 129.239 285.273 129.187 285.273Z" fill="#333333"/>
<path d="M129.618 279.468C129.526 279.471 129.435 279.439 129.362 279.378C129.29 279.316 129.24 279.23 129.222 279.134C129.204 279.037 129.219 278.938 129.265 278.852C129.31 278.766 129.382 278.7 129.469 278.666L139.753 274.25C139.849 274.211 139.955 274.213 140.049 274.256C140.143 274.299 140.218 274.38 140.257 274.48C140.295 274.581 140.295 274.693 140.257 274.794C140.218 274.894 140.143 274.974 140.049 275.017L129.765 279.433C129.719 279.455 129.669 279.467 129.618 279.468Z" fill="#333333"/>
<path d="M129.957 272.484C129.867 272.478 129.782 272.44 129.716 272.375C129.65 272.311 129.607 272.225 129.594 272.131C129.581 272.037 129.599 271.941 129.645 271.859C129.691 271.777 129.761 271.715 129.846 271.682C133.526 270.526 137.089 268.986 140.481 267.086C140.574 267.035 140.682 267.024 140.781 267.057C140.881 267.09 140.964 267.163 141.013 267.26C141.062 267.358 141.072 267.472 141.041 267.577C141.01 267.683 140.941 267.771 140.849 267.822C137.409 269.747 133.797 271.306 130.066 272.476C130.03 272.485 129.994 272.488 129.957 272.484Z" fill="#333333"/>
<path d="M157.475 268.964C159.452 267.597 160.005 264.795 158.711 262.707C157.416 260.619 154.764 260.034 152.787 261.402C150.81 262.769 150.256 265.57 151.551 267.659C152.846 269.747 155.498 270.332 157.475 268.964Z" fill="white"/>
<path d="M102.331 206.699C102.244 206.699 102.159 206.668 102.091 206.612C102.022 206.556 101.973 206.477 101.951 206.388C101.726 205.458 101.386 203.981 100.958 202.109C99.049 193.726 95.4912 178.124 91.7358 166.502C91.7192 166.451 91.7123 166.396 91.7157 166.342C91.719 166.287 91.7324 166.234 91.7552 166.185C91.778 166.136 91.8098 166.092 91.8486 166.056C91.8874 166.02 91.9325 165.993 91.9814 165.975C92.0303 165.958 92.0819 165.95 92.1335 165.954C92.185 165.958 92.2354 165.972 92.2817 165.996C92.328 166.02 92.3694 166.053 92.4035 166.094C92.4376 166.135 92.4637 166.183 92.4803 166.235C96.2483 177.894 99.8112 193.517 101.723 201.919C102.151 203.791 102.483 205.27 102.713 206.199C102.739 206.305 102.723 206.418 102.67 206.513C102.617 206.608 102.53 206.676 102.43 206.704C102.397 206.706 102.363 206.704 102.331 206.699Z" fill="#333333"/>
<path d="M124.972 163.233H124.935C124.883 163.228 124.833 163.212 124.788 163.186C124.742 163.16 124.702 163.125 124.669 163.083C124.636 163.041 124.612 162.992 124.597 162.94C124.582 162.888 124.577 162.833 124.583 162.778C125.773 150.207 120.949 132.636 114.048 124.436C114.014 124.395 113.988 124.347 113.971 124.296C113.954 124.244 113.947 124.19 113.95 124.135C113.953 124.081 113.966 124.028 113.989 123.979C114.011 123.93 114.043 123.886 114.081 123.85C114.12 123.814 114.165 123.786 114.213 123.768C114.262 123.75 114.314 123.743 114.365 123.746C114.417 123.749 114.467 123.763 114.514 123.787C114.56 123.811 114.602 123.844 114.636 123.885C118.057 127.95 121.065 134.257 123.106 141.648C125.147 149.038 125.958 156.597 125.365 162.861C125.354 162.964 125.309 163.058 125.236 163.127C125.164 163.195 125.07 163.233 124.972 163.233Z" fill="#333333"/>
<path d="M109.835 97.185C109.276 97.185 108.717 97.1788 108.159 97.1663C107.721 97.2001 107.286 97.0766 106.923 96.8159C106.302 96.281 106.368 95.31 106.786 94.7082C107.166 94.1732 107.761 93.871 108.285 93.6383C113.109 91.5626 118.386 91.0972 123.479 90.6479C127.619 90.2841 131.899 89.907 135.902 88.6712C135.952 88.6559 136.004 88.6512 136.056 88.6572C136.108 88.6633 136.158 88.68 136.203 88.7065C136.249 88.7329 136.289 88.7686 136.321 88.8114C136.354 88.8542 136.378 88.9034 136.392 88.9561C136.407 89.0088 136.411 89.064 136.405 89.1185C136.4 89.173 136.384 89.2258 136.359 89.2739C136.334 89.3219 136.3 89.3643 136.259 89.3986C136.219 89.4329 136.172 89.4584 136.123 89.4736C132.043 90.7335 127.723 91.1133 123.545 91.4824C118.5 91.9264 113.284 92.3838 108.571 94.4247C108.126 94.6146 107.67 94.8339 107.412 95.2057C107.209 95.4946 107.158 95.9734 107.412 96.1766C107.643 96.3128 107.908 96.3716 108.171 96.3451C112.102 96.4273 116.033 96.2173 119.936 95.7166C120.673 95.623 121.415 95.5186 122.16 95.4143C127.179 94.7082 132.37 93.9806 137.052 96.0429C137.1 96.0638 137.143 96.0944 137.18 96.133C137.216 96.1716 137.245 96.2174 137.265 96.2679C137.284 96.3183 137.295 96.3723 137.295 96.4269C137.295 96.4815 137.284 96.5355 137.265 96.5859C137.245 96.6363 137.216 96.6821 137.179 96.7207C137.143 96.7592 137.099 96.7898 137.052 96.8107C137.004 96.8315 136.953 96.8423 136.901 96.8422C136.849 96.8422 136.798 96.8315 136.751 96.8106C132.263 94.8339 127.179 95.5454 122.263 96.2382C121.516 96.3425 120.772 96.4468 120.032 96.5404C116.649 96.9718 113.243 97.1871 109.835 97.185Z" fill="#333333"/>
<path d="M136.068 103.979C135.231 103.979 134.395 103.918 133.566 103.797C133.462 103.782 133.369 103.724 133.306 103.636C133.243 103.548 133.216 103.437 133.23 103.328C133.245 103.219 133.3 103.12 133.383 103.054C133.466 102.987 133.571 102.958 133.675 102.974C137.34 103.505 141.071 102.808 144.341 100.981C144.433 100.929 144.54 100.918 144.64 100.95C144.74 100.982 144.823 101.055 144.873 101.152C144.922 101.249 144.932 101.363 144.902 101.468C144.871 101.574 144.802 101.662 144.71 101.714C142.047 103.202 139.08 103.979 136.068 103.979Z" fill="#333333"/>
<path d="M130.291 63.5496C130.212 63.5492 130.134 63.5233 130.069 63.4756C130.004 63.4279 129.954 63.3604 129.926 63.2822C127.946 58.0852 125.262 53.2198 121.957 48.8384C121.925 48.7957 121.901 48.7467 121.887 48.6943C121.872 48.6418 121.868 48.5869 121.874 48.5326C121.879 48.4783 121.895 48.4258 121.92 48.378C121.945 48.3302 121.979 48.288 122.019 48.2539C122.06 48.2199 122.106 48.1946 122.156 48.1794C122.205 48.1643 122.257 48.1596 122.309 48.1657C122.36 48.1718 122.41 48.1885 122.455 48.2149C122.5 48.2413 122.54 48.2768 122.573 48.3195C125.923 52.7614 128.646 57.6934 130.656 62.9612C130.692 63.0628 130.69 63.1755 130.65 63.2754C130.609 63.3754 130.533 63.4546 130.438 63.4961C130.392 63.5232 130.343 63.5414 130.291 63.5496Z" fill="#333333"/>
<path d="M138.103 79.2266C138.002 79.2232 137.905 79.1784 137.834 79.1017C137.763 79.025 137.722 78.9222 137.721 78.8147L137.566 71.6864C137.565 71.632 137.575 71.5779 137.593 71.5271C137.612 71.4764 137.64 71.4301 137.676 71.3909C137.712 71.3516 137.754 71.3202 137.802 71.2984C137.849 71.2766 137.9 71.2649 137.951 71.2638C138.003 71.2624 138.054 71.2717 138.102 71.2913C138.15 71.3109 138.194 71.3403 138.231 71.3778C138.268 71.4153 138.298 71.4603 138.319 71.51C138.339 71.5598 138.351 71.6134 138.352 71.6677L138.508 78.7933C138.51 78.848 138.501 78.9024 138.482 78.9534C138.464 79.0044 138.436 79.051 138.4 79.0906C138.364 79.1301 138.321 79.1618 138.274 79.1837C138.226 79.2057 138.175 79.2176 138.124 79.2186L138.103 79.2266Z" fill="#333333"/>
<path d="M87.8031 103.265C87.7655 103.265 87.7281 103.259 87.6917 103.249C87.5919 103.217 87.508 103.145 87.4582 103.048C87.4084 102.952 87.3968 102.838 87.4259 102.733L88.2337 99.8224C88.2629 99.716 88.331 99.6262 88.4228 99.5728C88.5147 99.5193 88.6229 99.5067 88.7237 99.5375C88.8244 99.5684 88.9094 99.6403 88.96 99.7373C89.0105 99.8344 89.0226 99.9487 88.9934 100.055L88.1856 102.965C88.1613 103.052 88.1109 103.129 88.0419 103.183C87.9729 103.237 87.889 103.266 87.8031 103.265Z" fill="#333333"/>
<path d="M80.8236 77.6677C80.7389 77.6689 80.6561 77.6412 80.5875 77.5886C80.519 77.536 80.4684 77.4614 80.4434 77.3759C80.4183 77.2904 80.4201 77.1987 80.4484 77.1144C80.4768 77.0301 80.5303 76.9577 80.6008 76.9081C82.7273 75.376 84.766 73.712 86.7061 71.925C86.7437 71.8819 86.7894 71.8478 86.8405 71.8248C86.8915 71.8018 86.9465 71.7905 87.0019 71.7916C87.0574 71.7927 87.112 71.8062 87.1622 71.8312C87.2123 71.8562 87.2568 71.8922 87.2929 71.9367C87.3289 71.9812 87.3557 72.0333 87.3713 72.0896C87.3869 72.1458 87.391 72.2049 87.3834 72.2629C87.3758 72.3209 87.3566 72.3766 87.3271 72.4262C87.2977 72.4759 87.2586 72.5184 87.2125 72.5509C85.2491 74.3599 83.1859 76.0444 81.0338 77.5955C80.9718 77.6405 80.8988 77.6656 80.8236 77.6677Z" fill="#333333"/>
<path d="M84.0796 92.566C84.0247 92.5661 83.9704 92.554 83.9202 92.5305C83.87 92.507 83.8251 92.4726 83.7883 92.4296C82.3955 90.8248 80.9547 89.1504 79.2632 87.8611C77.9667 86.8741 75.9332 85.6892 73.6212 85.6732C73.5222 85.6648 73.4299 85.6173 73.3625 85.5402C73.2952 85.4632 73.2578 85.3621 73.2578 85.2572C73.2578 85.1523 73.2952 85.0513 73.3625 84.9742C73.4299 84.8972 73.5222 84.8497 73.6212 84.8413C75.6166 84.8574 77.726 85.6678 79.7189 87.1871C81.4763 88.5245 82.9425 90.2256 84.3631 91.8679C84.4144 91.9275 84.4484 92.0015 84.4608 92.081C84.4732 92.1604 84.4635 92.242 84.433 92.3158C84.4024 92.3896 84.3524 92.4525 84.2888 92.4969C84.2252 92.5413 84.1508 92.5653 84.0745 92.566H84.0796Z" fill="#333333"/>
<path d="M105.421 59.9096C105.334 59.9107 105.248 59.8811 105.179 59.8256C105.11 59.77 105.06 59.6916 105.037 59.6027C105.014 59.5138 105.02 59.4195 105.054 59.3346C105.088 59.2497 105.147 59.1791 105.223 59.1339C110.044 56.1883 115.185 53.871 120.533 52.233C120.634 52.2025 120.742 52.2155 120.834 52.2691C120.925 52.3228 120.993 52.4127 121.022 52.5192C121.051 52.6256 121.039 52.7397 120.988 52.8365C120.937 52.9334 120.852 53.0049 120.751 53.0354C115.464 54.6556 110.383 56.9468 105.618 59.8587C105.558 59.8931 105.49 59.9106 105.421 59.9096Z" fill="#333333"/>
<path d="M157.169 121.296C157.095 121.295 157.024 121.273 156.961 121.231C153.51 118.98 149.814 117.175 145.953 115.858C145.904 115.84 145.857 115.812 145.818 115.776C145.778 115.74 145.746 115.695 145.722 115.646C145.698 115.596 145.684 115.542 145.681 115.487C145.677 115.431 145.684 115.376 145.7 115.323C145.717 115.27 145.743 115.221 145.778 115.18C145.812 115.138 145.854 115.103 145.901 115.078C145.948 115.054 145.999 115.039 146.052 115.035C146.104 115.031 146.157 115.038 146.207 115.055C150.127 116.395 153.881 118.228 157.387 120.515C157.459 120.563 157.515 120.634 157.545 120.718C157.576 120.803 157.579 120.895 157.556 120.982C157.533 121.069 157.483 121.145 157.415 121.2C157.347 121.254 157.264 121.284 157.179 121.285L157.169 121.296Z" fill="#333333"/>
<path d="M86.1234 52.0247C86.5007 52.2762 87.0273 52.4821 87.3565 52.1638C87.6427 51.8963 87.5794 51.4069 87.4882 51.011C87.0577 49.1539 86.4643 47.3433 85.7156 45.6026C86.9087 47.3891 88.4686 48.8676 90.2788 49.9277C90.6662 50.1551 91.1853 50.345 91.512 50.032C91.6005 49.9267 91.6684 49.804 91.7118 49.6709C91.7553 49.5377 91.7734 49.3969 91.7652 49.2563C91.7846 48.5426 91.6468 47.8339 91.3626 47.1861C91.6246 47.7109 91.9908 48.1697 92.4361 48.5311C92.8815 48.8926 93.3955 49.1482 93.943 49.2804C94.2586 49.3685 94.5898 49.374 94.9078 49.2965C95.1925 49.1944 95.4483 49.0184 95.6518 48.7848C95.8553 48.5511 95.9999 48.2672 96.0726 47.9591C96.2131 47.3409 96.2287 46.6983 96.1182 46.0734C96.0296 45.3833 95.8802 44.6584 95.4218 44.1582C95.1426 43.8836 94.8183 43.6651 94.4647 43.5136C91.2765 41.9515 87.9871 41.7616 84.5584 42.2431C83.2062 42.433 82.5326 42.2779 82.3933 43.9549C82.2733 45.4334 82.5139 46.9197 83.0922 48.272C83.732 49.81 84.7862 51.1152 86.1234 52.0247Z" fill="#333333"/>
<path d="M53.9453 138.791C55.3406 137.687 56.0369 134.006 56.908 133.442C57.7791 132.878 61.9726 129.208 62.6614 127.001C63.3502 124.794 63.0083 119.084 63.5325 116.323C64.0567 113.563 65.2747 110.974 63.0083 110.439C60.742 109.904 59.8708 111.359 59.1744 113.017C58.4781 114.676 56.8954 118.723 56.8954 118.723" fill="#7C4E59"/>
<path d="M53.9479 139.326C53.8416 139.326 53.738 139.291 53.6518 139.225C53.5655 139.16 53.501 139.067 53.4674 138.961C53.4338 138.854 53.4327 138.739 53.4644 138.632C53.4961 138.525 53.5589 138.431 53.644 138.363C54.2998 137.847 54.8241 136.539 55.2875 135.389C55.7509 134.239 56.1155 133.335 56.6498 132.982C57.5184 132.431 61.5549 128.817 62.1829 126.83C62.5399 125.701 62.6083 123.46 62.6741 121.293C62.7323 119.437 62.7906 117.516 63.0387 116.211C63.1451 115.649 63.2767 115.104 63.4058 114.577C63.7224 113.271 64.0213 112.041 63.6718 111.436C63.5805 111.304 63.4648 111.192 63.3317 111.108C63.1985 111.024 63.0506 110.969 62.8969 110.947C61.142 110.519 60.4001 111.415 59.6404 113.22C58.9542 114.852 57.3968 118.872 57.3791 118.912C57.356 118.98 57.3202 119.043 57.2737 119.096C57.2273 119.149 57.1711 119.191 57.1087 119.22C57.0462 119.25 56.9788 119.266 56.9105 119.267C56.8421 119.268 56.7743 119.254 56.711 119.227C56.6477 119.2 56.5903 119.159 56.5422 119.108C56.4942 119.057 56.4564 118.996 56.4313 118.928C56.4062 118.861 56.3942 118.79 56.3961 118.717C56.3979 118.645 56.4135 118.574 56.4421 118.509C56.4573 118.466 58.0222 114.429 58.7211 112.785C59.2504 111.533 60.2406 109.198 63.1325 109.904C63.4186 109.956 63.6914 110.07 63.9344 110.238C64.1774 110.406 64.3853 110.624 64.5454 110.88C65.1151 111.87 64.781 113.247 64.3935 114.841C64.2694 115.355 64.1402 115.887 64.0389 116.422C63.8085 117.634 63.7503 119.509 63.6946 121.322C63.6237 123.668 63.5553 125.886 63.1501 127.164C62.3778 129.612 57.9919 133.383 57.179 133.897C56.9258 134.057 56.5232 135.06 56.2294 135.79C55.723 137.066 55.133 138.513 54.2594 139.203C54.1716 139.28 54.0619 139.323 53.9479 139.326Z" fill="#333333"/>
<path d="M57.5232 109.981C57.5232 109.981 61.1848 113.111 59.44 115.689C57.6953 118.268 52.294 114.216 50.7266 112.006" fill="#7C4E59"/>
<path d="M57.7724 117.065C55.3085 117.065 51.6621 114.229 50.32 112.338C50.2394 112.225 50.2048 112.082 50.2238 111.942C50.2428 111.801 50.3138 111.675 50.4213 111.589C50.5288 111.504 50.6638 111.468 50.7968 111.488C50.9298 111.508 51.0497 111.583 51.1303 111.696C52.3433 113.406 55.7543 116.013 57.8004 115.995C58.0365 116.009 58.2724 115.962 58.4868 115.856C58.7012 115.751 58.8874 115.591 59.0286 115.39C60.472 113.25 57.2356 110.437 57.2027 110.41C57.1508 110.365 57.1078 110.311 57.0761 110.249C57.0443 110.187 57.0245 110.119 57.0177 110.049C57.0109 109.979 57.0172 109.908 57.0364 109.84C57.0555 109.773 57.0872 109.71 57.1294 109.655C57.2141 109.546 57.3365 109.476 57.4699 109.461C57.6033 109.447 57.7367 109.489 57.8408 109.578C58.0054 109.717 61.8495 113.055 59.8516 115.997C59.6186 116.336 59.3108 116.609 58.955 116.792C58.5992 116.976 58.2063 117.065 57.8105 117.051L57.7724 117.065Z" fill="#333333"/>
<path d="M53.8609 117.88H53.8179C53.6848 117.867 53.5617 117.8 53.4754 117.692C53.3891 117.585 53.3465 117.445 53.357 117.305L53.5292 115.095C53.5402 114.953 53.6043 114.822 53.7071 114.73C53.8099 114.638 53.9431 114.593 54.0774 114.604C54.2117 114.616 54.3362 114.684 54.4234 114.792C54.5105 114.901 54.5532 115.042 54.5421 115.183L54.3674 117.393C54.3559 117.526 54.2977 117.65 54.2039 117.74C54.1101 117.83 53.9877 117.88 53.8609 117.88Z" fill="#333333"/>
<path d="M56.58 130.947C55.6071 130.898 54.6563 130.624 53.7945 130.144C53.733 130.113 53.6783 130.068 53.6335 130.013C53.5888 129.959 53.555 129.895 53.5341 129.826C53.5133 129.757 53.5059 129.685 53.5124 129.613C53.5188 129.541 53.539 129.471 53.5717 129.408C53.6044 129.344 53.6489 129.288 53.7025 129.244C53.7562 129.199 53.818 129.166 53.8841 129.147C53.9501 129.128 54.019 129.124 54.0867 129.134C54.1545 129.144 54.2197 129.168 54.2782 129.205C54.8176 129.51 56.4433 130.198 57.4562 129.687C57.9626 129.435 58.2715 128.917 58.4184 128.103C59.0489 124.607 51.908 118.389 46.9472 117.137C46.8166 117.104 46.7037 117.017 46.6334 116.896C46.5632 116.776 46.5413 116.63 46.5725 116.492C46.5879 116.424 46.6161 116.359 46.6553 116.302C46.6945 116.245 46.744 116.196 46.801 116.16C46.8579 116.123 46.9211 116.098 46.9871 116.087C47.053 116.077 47.1204 116.08 47.1853 116.096C52.2498 117.391 60.2088 123.915 59.4136 128.315C59.206 129.473 58.6919 130.265 57.8943 130.668C57.4813 130.863 57.0323 130.958 56.58 130.947Z" fill="#333333"/>
<path d="M51.6908 132.731C48.4951 132.731 43.8408 128.986 43.6179 128.818C43.565 128.775 43.5206 128.722 43.4872 128.661C43.4538 128.6 43.4321 128.533 43.4233 128.463C43.4145 128.394 43.4187 128.323 43.4358 128.255C43.4529 128.187 43.4826 128.123 43.523 128.067C43.5634 128.012 43.6138 127.965 43.6713 127.929C43.7289 127.894 43.7925 127.871 43.8584 127.862C43.9244 127.853 43.9914 127.857 44.0558 127.875C44.1201 127.893 44.1803 127.924 44.2332 127.967C45.7323 129.179 50.1031 132.185 52.3062 131.586C52.5517 131.523 52.7789 131.397 52.9685 131.221C53.1582 131.044 53.3045 130.822 53.395 130.572C53.7672 129.668 53.4836 128.612 52.5517 127.427C50.1739 124.407 44.6687 121.965 43.3418 122.286C43.2109 122.317 43.0735 122.293 42.9598 122.217C42.846 122.142 42.7652 122.022 42.7353 121.883C42.7054 121.745 42.7289 121.6 42.8004 121.48C42.8718 121.359 42.9856 121.274 43.1165 121.243C45.0639 120.772 50.883 123.65 53.3317 126.745C54.8207 128.636 54.694 130.102 54.3243 130.998C54.1733 131.398 53.9335 131.755 53.6251 132.037C53.3167 132.32 52.9486 132.52 52.5517 132.621C52.2702 132.696 51.981 132.732 51.6908 132.731Z" fill="#333333"/>
<path d="M44.7871 132.056C44.6898 132.056 44.5946 132.026 44.5128 131.971C44.4311 131.915 44.3662 131.835 44.3261 131.742C44.2861 131.648 44.2724 131.544 44.2868 131.442C44.3012 131.341 44.343 131.246 44.4072 131.168L45.6531 129.673C45.7421 129.567 45.8675 129.502 46.0017 129.493C46.0681 129.489 46.1347 129.498 46.1976 129.521C46.2606 129.544 46.3186 129.58 46.3685 129.626C46.4184 129.673 46.4591 129.729 46.4883 129.792C46.5176 129.856 46.5347 129.924 46.5388 129.994C46.5429 130.065 46.5339 130.135 46.5123 130.201C46.4907 130.268 46.4568 130.329 46.4128 130.382L45.1669 131.874C45.1195 131.932 45.061 131.977 44.9956 132.009C44.9301 132.04 44.859 132.056 44.7871 132.056Z" fill="#333333"/>
<path d="M169.355 338.719C167.071 354.779 159.344 369.417 147.61 379.911C135.876 390.405 120.935 396.043 105.562 395.775C102.764 395.72 99.9725 395.473 97.2052 395.034C88.967 393.728 81.053 390.721 73.9153 386.184C66.7776 381.647 60.5561 375.669 55.606 368.592C50.656 361.514 47.0745 353.476 45.0661 344.937C43.0577 336.397 42.6617 327.523 43.9008 318.822C44.2727 316.207 44.7885 313.617 45.4455 311.065C49.4997 295.447 58.7714 281.908 71.5459 272.952C84.3204 263.997 99.7331 260.231 114.933 262.352C130.133 264.473 144.091 272.336 154.227 284.487C164.362 296.639 169.988 312.256 170.064 328.451C170.075 331.888 169.838 335.321 169.355 338.719Z" fill="#F6F6F6"/>
<path d="M132.897 279.444C132.897 279.444 116.888 291.62 106.736 309.134C106.736 309.134 82.5374 293.158 71.9297 291.842L76.0345 270.074C83.5287 265.723 91.7771 263.014 100.286 262.11C108.794 261.205 117.388 262.124 125.553 264.81L132.897 279.444Z" fill="#333333"/>
<path d="M139.617 385.994C129.379 392.61 117.566 396.004 105.566 395.776C89.0325 377.076 86.0977 364.914 86.0977 364.914C93.7806 352.522 111.628 334.753 111.628 334.753C120.076 339.033 144.441 351.361 144.441 351.361C144.31 360.469 140.805 379.695 139.617 385.994Z" fill="#333333"/>
<path d="M170.07 328.428L160.984 325.649C161.921 316.603 152.609 289.005 152.609 289.005C152.609 289.005 153.939 286.53 154.651 284.992C164.53 297.065 169.999 312.47 170.07 328.428Z" fill="#333333"/>
<path d="M63.144 352.445C59.7026 352.916 53.9011 357.067 50.399 359.785C44.1603 347.212 41.8848 332.865 43.9037 318.831C44.2756 316.216 44.7914 313.626 45.4484 311.074L55.3243 314.428C56.9121 344.827 63.144 352.445 63.144 352.445Z" fill="#333333"/>
<path d="M54.0846 316.22C54.0186 316.219 53.9532 316.206 53.8921 316.18C53.8305 316.153 53.7747 316.114 53.7275 316.064C53.6803 316.015 53.6428 315.956 53.6172 315.891C53.5916 315.826 53.5783 315.757 53.5781 315.686C53.5779 315.616 53.5908 315.547 53.6161 315.482C53.6845 315.31 60.4533 298.229 75.2924 289.197C75.4089 289.126 75.5473 289.106 75.6772 289.143C75.8071 289.18 75.9178 289.27 75.9849 289.393C76.0521 289.516 76.0702 289.662 76.0353 289.8C76.0003 289.937 75.9154 290.054 75.7988 290.125C61.2611 298.97 54.6188 315.72 54.553 315.888C54.5148 315.986 54.4499 316.07 54.3665 316.129C54.2831 316.188 54.185 316.22 54.0846 316.22Z" fill="#333333"/>
<path d="M117.72 348.753C117.632 348.752 117.546 348.727 117.47 348.68C117.394 348.633 117.331 348.566 117.287 348.486C117.229 348.387 115.821 345.904 111.164 334.954C106.477 323.939 106.087 309.083 106.082 308.936C106.082 308.794 106.135 308.658 106.23 308.558C106.325 308.458 106.454 308.401 106.588 308.401C106.723 308.401 106.852 308.458 106.947 308.558C107.042 308.658 107.095 308.794 107.095 308.936C107.095 309.083 107.487 323.728 112.089 334.542C116.69 345.356 118.141 347.935 118.153 347.959C118.188 348.019 118.211 348.085 118.221 348.155C118.231 348.224 118.229 348.295 118.213 348.364C118.197 348.432 118.169 348.496 118.13 348.553C118.09 348.61 118.041 348.658 117.984 348.694C117.902 348.738 117.811 348.758 117.72 348.753Z" fill="#333333"/>
<path d="M144.435 351.886C144.325 351.885 144.218 351.847 144.13 351.777C144.042 351.707 143.978 351.609 143.948 351.497C143.918 351.385 143.924 351.266 143.963 351.157C144.003 351.049 144.075 350.957 144.169 350.896C158.185 341.754 161.642 326.513 161.923 325.143L155.698 291.353C143.738 282.331 132.763 279.787 132.655 279.76C132.587 279.748 132.523 279.722 132.466 279.683C132.409 279.644 132.36 279.593 132.321 279.533C132.283 279.474 132.257 279.406 132.244 279.336C132.231 279.265 132.231 279.192 132.245 279.122C132.26 279.052 132.287 278.985 132.326 278.926C132.365 278.867 132.415 278.817 132.473 278.779C132.531 278.741 132.595 278.716 132.663 278.705C132.73 278.694 132.799 278.697 132.865 278.714C132.976 278.741 144.247 281.346 156.45 290.607C156.555 290.686 156.628 290.804 156.653 290.938L162.948 325.044C162.961 325.112 162.961 325.182 162.948 325.25C162.918 325.419 162.145 329.498 159.512 334.834C157.083 339.758 152.546 346.699 144.713 351.805C144.63 351.861 144.533 351.889 144.435 351.886Z" fill="#333333"/>
<path d="M87.7003 366.428C87.5962 366.428 87.4945 366.394 87.4091 366.332C78.1157 359.431 60.8455 351.906 60.6734 351.832C60.5491 351.778 60.4502 351.674 60.3985 351.543C60.3467 351.412 60.3463 351.265 60.3974 351.133C60.4484 351.002 60.5467 350.898 60.6706 350.843C60.7946 350.788 60.934 350.788 61.0583 350.842C61.233 350.917 78.6044 358.484 87.9915 365.457C88.0789 365.522 88.1443 365.616 88.1783 365.723C88.2124 365.83 88.2133 365.946 88.1809 366.054C88.1486 366.162 88.0845 366.257 87.9982 366.324C87.9118 366.391 87.8075 366.427 87.7003 366.428Z" fill="#333333"/>
</svg>
