<svg width="287" height="47" viewBox="0 0 287 47" fill="none" xmlns="http://www.w3.org/2000/svg">
<path d="M7.10605 29.0261V19.7309H16.5454C19.8347 19.7309 21.8493 21.0796 21.8493 24.0926C21.8493 26.8975 19.8347 29.0261 16.4391 29.0261H7.10605ZM15.9611 6.38626C19.4098 6.38626 20.8401 7.47481 20.8401 10.1237C20.8401 12.5645 19.3036 13.8611 16.386 13.8611H7.10605V6.38263H15.9611V6.38626ZM15.8549 34.8961C24.7099 34.8961 29.0085 30.8986 29.0085 24.6126C29.0085 19.679 26.6221 17.3422 23.6514 16.2536C26.0909 15.2691 27.9462 12.7762 27.9462 9.8153C27.9462 4.04944 24.2319 0.416136 17.3383 0.416136H0V34.8961H15.8549ZM38.1063 34.8961V0H31.2127V34.8961H38.1063ZM54.4734 29.9105C50.2849 29.9105 48.164 27.3136 48.164 22.1236C48.164 16.9299 50.2849 14.385 54.4734 14.385C58.6619 14.385 60.7827 16.9299 60.7827 22.1236C60.7827 27.3173 58.6619 29.9105 54.4734 29.9105ZM54.4734 35.5722C62.5848 35.5722 67.7294 30.2226 67.7294 22.1236C67.7294 13.9727 62.6379 8.67483 54.4734 8.67483C46.1988 8.67483 41.0542 14.0247 41.0542 22.1236C41.0542 30.0702 46.0394 35.5722 54.4734 35.5722ZM83.6715 29.9105C79.483 29.9105 77.3622 27.3136 77.3622 22.1236C77.3622 16.9299 79.483 14.385 83.6715 14.385C87.86 14.385 89.9808 16.9299 89.9808 22.1236C89.9808 27.3173 87.86 29.9105 83.6715 29.9105ZM83.6715 35.5722C91.7867 35.5722 96.9275 30.2226 96.9275 22.1236C96.9275 13.9727 91.836 8.67483 83.6715 8.67483C75.4007 8.67483 70.2561 14.0247 70.2561 22.1236C70.2561 30.0702 75.2414 35.5722 83.6715 35.5722ZM137.371 34.8998V17.1898C137.371 12.4122 133.71 8.67483 128.463 8.67483C125.173 8.67483 122.84 9.91935 121.41 12.7243C119.395 9.76332 117.699 8.67483 114.144 8.67483C110.696 8.67483 108.256 9.71502 106.507 13.0883V9.34728H100.035V34.8961H106.928V19.3668C106.928 16.0455 108.359 14.3812 111.117 14.3812C114.141 14.3812 115.252 15.4215 115.252 19.523V34.8923H122.146V19.627C122.146 16.51 124.001 14.1731 126.547 14.1731C128.986 14.1731 130.629 16.3539 130.629 19.4189V34.8923H137.363L137.371 34.8998ZM147.69 34.8998V9.35091H140.797V34.8998H147.69ZM175.086 34.8998V17.1898C175.086 11.6357 171.425 8.67483 166.444 8.67483C162.255 8.67483 159.603 10.2314 158.014 13.0883V9.34728H151.439V34.8961H158.332V20.2512C158.332 16.3577 160.081 14.3812 163.689 14.3812C166.979 14.3812 168.144 15.4735 168.144 19.4189V34.8923H175.09L175.086 34.8998ZM191.237 29.8102C187.845 29.8102 185.353 26.9011 185.353 22.3315C185.353 17.0858 187.367 14.5446 191.237 14.5446C195.16 14.5446 197.125 17.1935 197.125 22.7476C197.125 27.0572 194.58 29.8102 191.237 29.8102ZM196.913 35.68C196.913 39.057 193.995 41.1821 190.338 41.1821C186.889 41.1821 184.613 39.3653 184.613 36.3004H178.197C178.197 42.8947 183.551 47 190.816 47C198.081 47 203.807 42.8465 203.807 35.1599V9.35091H196.913V12.52C195.27 9.92314 192.884 8.67846 189.594 8.67846C183.285 8.67846 178.194 14.0283 178.194 21.9712C178.194 28.6696 181.164 35.1078 189.754 35.1078C193.146 35.1078 195.957 33.7593 196.913 31.4745V35.68ZM214.392 29.0336V19.7384H223.831C227.12 19.7384 229.135 21.087 229.135 24.1C229.135 26.9049 227.12 29.0336 223.725 29.0336H214.392ZM223.247 6.3937C226.692 6.3937 228.126 7.48225 228.126 10.1311C228.126 12.572 226.585 13.8685 223.672 13.8685H214.392V6.39007H223.247V6.3937ZM223.14 34.9036C231.995 34.9036 236.29 30.906 236.29 24.6201C236.29 19.6864 233.904 17.3496 230.933 16.2611C233.373 15.2766 235.228 12.7837 235.228 9.82274C235.228 4.05688 231.517 0.423574 224.624 0.423574H207.282V34.9036H223.14ZM245.02 19.638C245.286 16.1087 247.566 14.032 250.324 14.032C253.029 14.032 255.571 15.8486 255.677 19.638H245.02ZM262.787 23.8955C262.787 13.7681 258.542 8.68226 250.536 8.68226C242.527 8.68226 237.914 13.7719 237.914 21.6628C237.914 30.9061 242.262 35.5797 250.961 35.5797C256.527 35.5797 260.826 32.6224 262.415 27.3767H255.309C254.831 29.1413 252.87 30.2336 250.643 30.2336C247.247 30.2336 245.02 27.7408 244.808 23.8994H262.787V23.8955ZM280.584 24.7278C280.584 27.8968 279.31 29.7135 276.551 29.7135C273.74 29.7135 272.575 27.8449 272.575 24.6239V14.1361H287V9.35835H272.575V2.45201H265.788V25.3C265.788 30.802 268.812 35.5797 276.445 35.5797C283.817 35.5797 286.996 30.75 286.996 25.3482V18.0778H280.581V24.7242L280.584 24.7278Z" fill="#159A42"/>
</svg>
